<ttFont>
    <TTGlyph name="A" xMin="-46" yMin="0" xMax="933" yMax="1456">
      <contour>
        <pt x="776" y="404" on="1"/>
        <pt x="274" y="404" on="1"/>
        <pt x="75" y="0" on="1"/>
        <pt x="-46" y="0" on="1"/>
        <pt x="684" y="1456" on="1"/>
        <pt x="790" y="1456" on="1"/>
        <pt x="933" y="0" on="1"/>
        <pt x="812" y="0" on="1"/>
      </contour>
      <contour>
        <pt x="328" y="514" on="1"/>
        <pt x="766" y="514" on="1"/>
        <pt x="700" y="1255" on="1"/>
        <pt x="694" y="1256" on="1"/>
      </contour>
    </TTGlyph>
    <TTGlyph name="A.smcp" xMin="-34" yMin="0" xMax="823" yMax="1165">
      <contour>
        <pt x="667" y="301" on="1"/>
        <pt x="242" y="301" on="1"/>
        <pt x="89" y="0" on="1"/>
        <pt x="-34" y="0" on="1"/>
        <pt x="571" y="1165" on="1"/>
        <pt x="685" y="1165" on="1"/>
        <pt x="823" y="0" on="1"/>
        <pt x="700" y="0" on="1"/>
      </contour>
      <contour>
        <pt x="295" y="405" on="1"/>
        <pt x="656" y="405" on="1"/>
        <pt x="593" y="979" on="1"/>
        <pt x="587" y="980" on="1"/>
      </contour>
    </TTGlyph>
    <TTGlyph name="AE" xMin="-69" yMin="0" xMax="1630" yMax="1456">
      <contour>
        <pt x="1387" y="0" on="1"/>
        <pt x="718" y="0" on="1"/>
        <pt x="783" y="387" on="1"/>
        <pt x="331" y="387" on="1"/>
        <pt x="75" y="0" on="1"/>
        <pt x="-69" y="0" on="1"/>
        <pt x="917" y="1456" on="1"/>
        <pt x="1630" y="1456" on="1"/>
        <pt x="1609" y="1350" on="1"/>
        <pt x="1062" y="1350" on="1"/>
        <pt x="972" y="810" on="1"/>
        <pt x="1436" y="810" on="1"/>
        <pt x="1415" y="706" on="1"/>
        <pt x="955" y="706" on="1"/>
        <pt x="854" y="104" on="1"/>
        <pt x="1408" y="104" on="1"/>
      </contour>
      <contour>
        <pt x="407" y="503" on="1"/>
        <pt x="802" y="503" on="1"/>
        <pt x="937" y="1309" on="1"/>
        <pt x="933" y="1298" on="1"/>
      </contour>
    </TTGlyph>
    <TTGlyph name="AEacute" xMin="-69" yMin="0" xMax="1630" yMax="1823">
      <component glyphName="AE" x="0" y="0" flags="0x204"/>
      <component glyphName="acute" x="684" y="345" flags="0x4"/>
    </TTGlyph>
    <TTGlyph name="Aacute" xMin="-46" yMin="0" xMax="1066" yMax="1823">
      <component glyphName="A" x="0" y="0" flags="0x204"/>
      <component glyphName="acute" x="474" y="345" flags="0x4"/>
    </TTGlyph>
    <TTGlyph name="Aacute.smcp" xMin="-34" yMin="0" xMax="928" yMax="1500">
      <component glyphName="A.smcp" x="0" y="0" flags="0x204"/>
      <component glyphName="acute" x="336" y="22" flags="0x4"/>
    </TTGlyph>
    <TTGlyph name="Abreve" xMin="-46" yMin="0" xMax="1064" yMax="1855">
      <component glyphName="A" x="0" y="0" flags="0x204"/>
      <component glyphName="breve" x="293" y="399" flags="0x4"/>
    </TTGlyph>
    <TTGlyph name="Abreve.smcp" xMin="-34" yMin="0" xMax="926" yMax="1532">
      <component glyphName="A.smcp" x="0" y="0" flags="0x204"/>
      <component glyphName="breve" x="155" y="76" flags="0x4"/>
    </TTGlyph>
    <TTGlyph name="Acircumflex" xMin="-46" yMin="0" xMax="1018" yMax="1844">
      <component glyphName="A" x="0" y="0" flags="0x204"/>
      <component glyphName="circumflex" x="249" y="349" flags="0x4"/>
    </TTGlyph>
    <TTGlyph name="Acircumflex.smcp" xMin="-34" yMin="0" xMax="880" yMax="1521">
      <component glyphName="A.smcp" x="0" y="0" flags="0x204"/>
      <component glyphName="circumflex" x="111" y="26" flags="0x4"/>
    </TTGlyph>
    <TTGlyph name="Adieresis" xMin="-46" yMin="0" xMax="1093" yMax="1798">
      <component glyphName="A" x="0" y="0" flags="0x204"/>
      <component glyphName="dieresis" x="232" y="342" flags="0x4"/>
    </TTGlyph>
    <TTGlyph name="Adieresis.smcp" xMin="-34" yMin="0" xMax="955" yMax="1475">
      <component glyphName="A.smcp" x="0" y="0" flags="0x204"/>
      <component glyphName="dieresis" x="94" y="19" flags="0x4"/>
    </TTGlyph>
    <TTGlyph name="Agrave" xMin="-46" yMin="0" xMax="933" yMax="1827">
      <component glyphName="A" x="0" y="0" flags="0x204"/>
      <component glyphName="grave" x="317" y="351" flags="0x4"/>
    </TTGlyph>
    <TTGlyph name="Agrave.smcp" xMin="-34" yMin="0" xMax="823" yMax="1504">
      <component glyphName="A.smcp" x="0" y="0" flags="0x204"/>
      <component glyphName="grave" x="179" y="28" flags="0x4"/>
    </TTGlyph>
    <TTGlyph name="Alpha" xMin="-46" yMin="0" xMax="933" yMax="1456">
      <component glyphName="A" x="0" y="0" flags="0x204"/>
    </TTGlyph>
    <TTGlyph name="Alphatonos" xMin="-46" yMin="0" xMax="933" yMax="1618">
      <component glyphName="A" x="0" y="0" flags="0x204"/>
      <component glyphName="tonos" x="21" y="0" flags="0x4"/>
    </TTGlyph>
    <TTGlyph name="Amacron" xMin="-46" yMin="0" xMax="1102" yMax="1786">
      <component glyphName="A" x="0" y="0" flags="0x204"/>
      <component glyphName="macron" x="262" y="330" flags="0x4"/>
    </TTGlyph>
    <TTGlyph name="Amacron.smcp" xMin="-34" yMin="0" xMax="964" yMax="1463">
      <component glyphName="A.smcp" x="0" y="0" flags="0x204"/>
      <component glyphName="macron" x="124" y="7" flags="0x4"/>
    </TTGlyph>
    <TTGlyph name="Aogonek" xMin="-46" yMin="-394" xMax="933" yMax="1456">
      <component glyphName="A" x="0" y="0" flags="0x204"/>
      <component glyphName="ogonek" x="704" y="0" flags="0x4"/>
    </TTGlyph>
    <TTGlyph name="Aogonek.smcp" xMin="-34" yMin="-394" xMax="823" yMax="1165">
      <component glyphName="A.smcp" x="0" y="0" flags="0x204"/>
      <component glyphName="ogonek" x="590" y="0" flags="0x4"/>
    </TTGlyph>
    <TTGlyph name="Aring" xMin="-46" yMin="0" xMax="973" yMax="1899">
      <component glyphName="A" x="0" y="0" flags="0x204"/>
      <component glyphName="ring" x="334" y="408" flags="0x4"/>
    </TTGlyph>
    <TTGlyph name="Aring.smcp" xMin="-34" yMin="0" xMax="835" yMax="1576">
      <component glyphName="A.smcp" x="0" y="0" flags="0x204"/>
      <component glyphName="ring" x="196" y="85" flags="0x4"/>
    </TTGlyph>
    <TTGlyph name="Aringacute" xMin="-46" yMin="0" xMax="1097" yMax="2082">
      <component glyphName="A" x="0" y="0" flags="0x204"/>
      <component glyphName="ringacute" x="355" y="394" flags="0x4"/>
    </TTGlyph>
    <TTGlyph name="Aringacute.smcp" xMin="-34" yMin="0" xMax="959" yMax="1759">
      <component glyphName="A.smcp" x="0" y="0" flags="0x204"/>
      <component glyphName="ringacute" x="217" y="71" flags="0x4"/>
    </TTGlyph>
    <TTGlyph name="Atilde" xMin="-46" yMin="0" xMax="1083" yMax="1844">
      <component glyphName="A" x="0" y="0" flags="0x204"/>
      <component glyphName="tilde" x="278" y="342" flags="0x4"/>
    </TTGlyph>
    <TTGlyph name="Atilde.smcp" xMin="-34" yMin="0" xMax="945" yMax="1521">
      <component glyphName="A.smcp" x="0" y="0" flags="0x204"/>
      <component glyphName="tilde" x="140" y="19" flags="0x4"/>
    </TTGlyph>
    <TTGlyph name="B" xMin="76" yMin="0" xMax="1059" yMax="1456">
      <contour>
        <pt x="76" y="0" on="1"/>
        <pt x="367" y="1456" on="1"/>
        <pt x="718" y="1456" on="1"/>
        <pt x="886" y="1456" on="0"/>
        <pt x="1059" y="1261" on="0"/>
        <pt x="1022" y="1072" on="1"/>
        <pt x="998" y="955" on="0"/>
        <pt x="864" y="795" on="0"/>
        <pt x="770" y="763" on="1"/>
        <pt x="873" y="740" on="0"/>
        <pt x="962" y="539" on="0"/>
        <pt x="936" y="405" on="1"/>
        <pt x="894" y="196" on="0"/>
        <pt x="657" y="0" on="0"/>
        <pt x="483" y="0" on="1"/>
      </contour>
      <contour>
        <pt x="334" y="701" on="1"/>
        <pt x="215" y="104" on="1"/>
        <pt x="504" y="104" on="1"/>
        <pt x="615" y="104" on="0"/>
        <pt x="790" y="263" on="0"/>
        <pt x="818" y="403" on="1"/>
        <pt x="845" y="542" on="0"/>
        <pt x="759" y="701" on="0"/>
        <pt x="642" y="701" on="1"/>
      </contour>
      <contour>
        <pt x="355" y="804" on="1"/>
        <pt x="624" y="804" on="1"/>
        <pt x="724" y="807" on="0"/>
        <pt x="878" y="948" on="0"/>
        <pt x="904" y="1076" on="1"/>
        <pt x="933" y="1221" on="0"/>
        <pt x="828" y="1350" on="0"/>
        <pt x="697" y="1350" on="1"/>
        <pt x="464" y="1350" on="1"/>
      </contour>
    </TTGlyph>
    <TTGlyph name="B.smcp" xMin="57" yMin="0" xMax="903" yMax="1165">
      <contour>
        <pt x="57" y="0" on="1"/>
        <pt x="290" y="1165" on="1"/>
        <pt x="591" y="1165" on="1"/>
        <pt x="744" y="1165" on="0"/>
        <pt x="903" y="1007" on="0"/>
        <pt x="873" y="855" on="1"/>
        <pt x="854" y="760" on="0"/>
        <pt x="745" y="626" on="0"/>
        <pt x="665" y="598" on="1"/>
        <pt x="747" y="576" on="0"/>
        <pt x="818" y="422" on="0"/>
        <pt x="798" y="321" on="1"/>
        <pt x="764" y="154" on="0"/>
        <pt x="566" y="0" on="0"/>
        <pt x="413" y="0" on="1"/>
      </contour>
      <contour>
        <pt x="283" y="541" on="1"/>
        <pt x="195" y="102" on="1"/>
        <pt x="433" y="102" on="1"/>
        <pt x="525" y="102" on="0"/>
        <pt x="659" y="218" on="0"/>
        <pt x="681" y="323" on="1"/>
        <pt x="701" y="429" on="0"/>
        <pt x="620" y="541" on="0"/>
        <pt x="521" y="541" on="1"/>
      </contour>
      <contour>
        <pt x="302" y="639" on="1"/>
        <pt x="486" y="639" on="1"/>
        <pt x="589" y="639" on="0"/>
        <pt x="734" y="749" on="0"/>
        <pt x="754" y="851" on="1"/>
        <pt x="776" y="963" on="0"/>
        <pt x="684" y="1051" on="0"/>
        <pt x="568" y="1051" on="1"/>
        <pt x="385" y="1051" on="1"/>
      </contour>
    </TTGlyph>
    <TTGlyph name="Beta" xMin="76" yMin="0" xMax="1059" yMax="1456">
      <component glyphName="B" x="0" y="0" flags="0x204"/>
    </TTGlyph>
    <TTGlyph name="C" xMin="96" yMin="-21" xMax="1108" yMax="1477">
      <contour>
        <pt x="962" y="446" on="1"/>
        <pt x="964" y="440" on="1"/>
        <pt x="905" y="217" on="0"/>
        <pt x="669" y="-21" on="0"/>
        <pt x="486" y="-21" on="1"/>
        <pt x="302" y="-21" on="0"/>
        <pt x="96" y="343" on="0"/>
        <pt x="150" y="612" on="1"/>
        <pt x="198" y="851" on="1"/>
        <pt x="258" y="1150" on="0"/>
        <pt x="532" y="1477" on="0"/>
        <pt x="726" y="1477" on="1"/>
        <pt x="905" y="1477" on="0"/>
        <pt x="1108" y="1217" on="0"/>
        <pt x="1080" y="996" on="1"/>
        <pt x="963" y="996" on="1"/>
        <pt x="980" y="1174" on="0"/>
        <pt x="851" y="1371" on="0"/>
        <pt x="711" y="1371" on="1"/>
        <pt x="579" y="1371" on="0"/>
        <pt x="362" y="1082" on="0"/>
        <pt x="317" y="853" on="1"/>
        <pt x="268" y="612" on="1"/>
        <pt x="219" y="369" on="0"/>
        <pt x="353" y="83" on="0"/>
        <pt x="502" y="83" on="1"/>
        <pt x="628" y="83" on="0"/>
        <pt x="797" y="260" on="0"/>
        <pt x="853" y="446" on="1"/>
      </contour>
    </TTGlyph>
    <TTGlyph name="C.smcp" xMin="74" yMin="-17" xMax="950" yMax="1181">
      <contour>
        <pt x="821" y="369" on="1"/>
        <pt x="823" y="363" on="1"/>
        <pt x="787" y="166" on="0"/>
        <pt x="558" y="-17" on="0"/>
        <pt x="393" y="-17" on="1"/>
        <pt x="241" y="-17" on="0"/>
        <pt x="74" y="253" on="0"/>
        <pt x="116" y="461" on="1"/>
        <pt x="165" y="704" on="1"/>
        <pt x="209" y="928" on="0"/>
        <pt x="466" y="1181" on="0"/>
        <pt x="632" y="1181" on="1"/>
        <pt x="786" y="1181" on="0"/>
        <pt x="950" y="979" on="0"/>
        <pt x="914" y="795" on="1"/>
        <pt x="796" y="795" on="1"/>
        <pt x="825" y="943" on="0"/>
        <pt x="728" y="1077" on="0"/>
        <pt x="611" y="1077" on="1"/>
        <pt x="506" y="1077" on="0"/>
        <pt x="315" y="865" on="0"/>
        <pt x="283" y="705" on="1"/>
        <pt x="234" y="461" on="1"/>
        <pt x="198" y="285" on="0"/>
        <pt x="298" y="86" on="0"/>
        <pt x="413" y="86" on="1"/>
        <pt x="520" y="86" on="0"/>
        <pt x="682" y="228" on="0"/>
        <pt x="711" y="369" on="1"/>
      </contour>
    </TTGlyph>
    <TTGlyph name="Cacute" xMin="96" yMin="-21" xMax="1108" yMax="1844">
      <component glyphName="C" x="0" y="0" flags="0x4"/>
      <component glyphName="acute" x="457" y="366" flags="0x4"/>
    </TTGlyph>
    <TTGlyph name="Cacute.smcp" xMin="74" yMin="-17" xMax="950" yMax="1516">
      <component glyphName="C.smcp" x="0" y="0" flags="0x204"/>
      <component glyphName="acute" x="331" y="38" flags="0x4"/>
    </TTGlyph>
    <TTGlyph name="Ccaron" xMin="96" yMin="-21" xMax="1108" yMax="1867">
      <component glyphName="C" x="0" y="0" flags="0x4"/>
      <component glyphName="caron" x="249" y="372" flags="0x4"/>
    </TTGlyph>
    <TTGlyph name="Ccaron.smcp" xMin="74" yMin="-17" xMax="950" yMax="1539">
      <component glyphName="C.smcp" x="0" y="0" flags="0x204"/>
      <component glyphName="caron" x="123" y="44" flags="0x4"/>
    </TTGlyph>
    <TTGlyph name="Ccedilla" xMin="96" yMin="-441" xMax="1108" yMax="1477">
      <component glyphName="C" x="0" y="0" flags="0x4"/>
      <component glyphName="cedilla" x="352" y="-8" flags="0x4"/>
    </TTGlyph>
    <TTGlyph name="Ccedilla.smcp" xMin="74" yMin="-438" xMax="950" yMax="1181">
      <component glyphName="C.smcp" x="0" y="0" flags="0x204"/>
      <component glyphName="cedilla" x="293" y="-5" flags="0x4"/>
    </TTGlyph>
    <TTGlyph name="Ccircumflex" xMin="96" yMin="-21" xMax="1108" yMax="1865">
      <component glyphName="C" x="0" y="0" flags="0x4"/>
      <component glyphName="circumflex" x="232" y="370" flags="0x4"/>
    </TTGlyph>
    <TTGlyph name="Ccircumflex.smcp" xMin="74" yMin="-17" xMax="950" yMax="1537">
      <component glyphName="C.smcp" x="0" y="0" flags="0x204"/>
      <component glyphName="circumflex" x="106" y="42" flags="0x4"/>
    </TTGlyph>
    <TTGlyph name="Chi" xMin="-8" yMin="0" xMax="1124" yMax="1456">
      <component glyphName="X" x="0" y="0" flags="0x204"/>
    </TTGlyph>
    <TTGlyph name="D" xMin="76" yMin="0" xMax="1125" yMax="1456">
      <contour>
        <pt x="676" y="1456" on="1"/>
        <pt x="881" y="1456" on="0"/>
        <pt x="1125" y="1087" on="0"/>
        <pt x="1071" y="817" on="1"/>
        <pt x="1034" y="628" on="1"/>
        <pt x="973" y="326" on="0"/>
        <pt x="667" y="0" on="0"/>
        <pt x="449" y="0" on="1"/>
        <pt x="76" y="0" on="1"/>
        <pt x="367" y="1456" on="1"/>
      </contour>
      <contour>
        <pt x="464" y="1350" on="1"/>
        <pt x="215" y="104" on="1"/>
        <pt x="470" y="104" on="1"/>
        <pt x="622" y="104" on="0"/>
        <pt x="869" y="397" on="0"/>
        <pt x="916" y="628" on="1"/>
        <pt x="954" y="820" on="1"/>
        <pt x="1002" y="1060" on="0"/>
        <pt x="829" y="1350" on="0"/>
        <pt x="655" y="1350" on="1"/>
      </contour>
    </TTGlyph>
    <TTGlyph name="D.smcp" xMin="57" yMin="0" xMax="939" yMax="1165">
      <contour>
        <pt x="610" y="1165" on="1"/>
        <pt x="762" y="1165" on="0"/>
        <pt x="939" y="892" on="0"/>
        <pt x="898" y="687" on="1"/>
        <pt x="856" y="477" on="1"/>
        <pt x="811" y="254" on="0"/>
        <pt x="543" y="0" on="0"/>
        <pt x="377" y="0" on="1"/>
        <pt x="57" y="0" on="1"/>
        <pt x="290" y="1165" on="1"/>
      </contour>
      <contour>
        <pt x="387" y="1061" on="1"/>
        <pt x="195" y="102" on="1"/>
        <pt x="397" y="102" on="1"/>
        <pt x="501" y="102" on="0"/>
        <pt x="705" y="319" on="0"/>
        <pt x="737" y="477" on="1"/>
        <pt x="780" y="688" on="1"/>
        <pt x="813" y="858" on="0"/>
        <pt x="702" y="1061" on="0"/>
        <pt x="589" y="1061" on="1"/>
      </contour>
    </TTGlyph>
    <TTGlyph name="Dcaron" xMin="76" yMin="0" xMax="1125" yMax="1846">
      <component glyphName="D" x="0" y="0" flags="0x204"/>
      <component glyphName="caron" x="211" y="351" flags="0x4"/>
    </TTGlyph>
    <TTGlyph name="Dcaron.smcp" xMin="57" yMin="0" xMax="939" yMax="1523">
      <component glyphName="D.smcp" x="0" y="0" flags="0x204"/>
      <component glyphName="caron" x="54" y="28" flags="0x4"/>
    </TTGlyph>
    <TTGlyph name="Dcroat" xMin="106" yMin="0" xMax="1155" yMax="1456">
      <contour>
        <pt x="106" y="0" on="1"/>
        <pt x="243" y="688" on="1"/>
        <pt x="119" y="688" on="1"/>
        <pt x="140" y="792" on="1"/>
        <pt x="264" y="792" on="1"/>
        <pt x="397" y="1456" on="1"/>
        <pt x="706" y="1456" on="1"/>
        <pt x="911" y="1456" on="0"/>
        <pt x="1155" y="1087" on="0"/>
        <pt x="1101" y="817" on="1"/>
        <pt x="1064" y="628" on="1"/>
        <pt x="1003" y="326" on="0"/>
        <pt x="697" y="0" on="0"/>
        <pt x="479" y="0" on="1"/>
      </contour>
      <contour>
        <pt x="610" y="688" on="1"/>
        <pt x="361" y="688" on="1"/>
        <pt x="245" y="104" on="1"/>
        <pt x="500" y="104" on="1"/>
        <pt x="652" y="104" on="0"/>
        <pt x="899" y="397" on="0"/>
        <pt x="946" y="628" on="1"/>
        <pt x="984" y="820" on="1"/>
        <pt x="1032" y="1060" on="0"/>
        <pt x="859" y="1350" on="0"/>
        <pt x="685" y="1350" on="1"/>
        <pt x="494" y="1350" on="1"/>
        <pt x="382" y="792" on="1"/>
        <pt x="631" y="792" on="1"/>
      </contour>
    </TTGlyph>
    <TTGlyph name="Dcroat.smcp" xMin="24" yMin="0" xMax="939" yMax="1165">
      <contour>
        <pt x="610" y="1165" on="1"/>
        <pt x="762" y="1165" on="0"/>
        <pt x="939" y="892" on="0"/>
        <pt x="898" y="687" on="1"/>
        <pt x="856" y="477" on="1"/>
        <pt x="811" y="254" on="0"/>
        <pt x="543" y="0" on="0"/>
        <pt x="377" y="0" on="1"/>
        <pt x="57" y="0" on="1"/>
        <pt x="165" y="541" on="1"/>
        <pt x="24" y="541" on="1"/>
        <pt x="45" y="645" on="1"/>
        <pt x="186" y="645" on="1"/>
        <pt x="290" y="1165" on="1"/>
      </contour>
      <contour>
        <pt x="515" y="541" on="1"/>
        <pt x="283" y="541" on="1"/>
        <pt x="195" y="102" on="1"/>
        <pt x="397" y="102" on="1"/>
        <pt x="501" y="102" on="0"/>
        <pt x="705" y="319" on="0"/>
        <pt x="737" y="477" on="1"/>
        <pt x="780" y="688" on="1"/>
        <pt x="813" y="858" on="0"/>
        <pt x="702" y="1061" on="0"/>
        <pt x="589" y="1061" on="1"/>
        <pt x="387" y="1061" on="1"/>
        <pt x="304" y="645" on="1"/>
        <pt x="536" y="645" on="1"/>
      </contour>
    </TTGlyph>
    <TTGlyph name="Delta" xMin="-40" yMin="0" xMax="1018" yMax="1456">
      <contour>
        <pt x="843" y="1456" on="1"/>
        <pt x="1018" y="0" on="1"/>
        <pt x="-40" y="0" on="1"/>
        <pt x="737" y="1456" on="1"/>
      </contour>
      <contour>
        <pt x="136" y="104" on="1"/>
        <pt x="884" y="104" on="1"/>
        <pt x="754" y="1266" on="1"/>
        <pt x="748" y="1267" on="1"/>
      </contour>
    </TTGlyph>
    <TTGlyph name="E" xMin="76" yMin="0" xMax="1103" yMax="1456">
      <contour>
        <pt x="878" y="703" on="1"/>
        <pt x="334" y="703" on="1"/>
        <pt x="215" y="104" on="1"/>
        <pt x="839" y="104" on="1"/>
        <pt x="818" y="0" on="1"/>
        <pt x="76" y="0" on="1"/>
        <pt x="367" y="1456" on="1"/>
        <pt x="1103" y="1456" on="1"/>
        <pt x="1082" y="1350" on="1"/>
        <pt x="464" y="1350" on="1"/>
        <pt x="355" y="807" on="1"/>
        <pt x="898" y="807" on="1"/>
      </contour>
    </TTGlyph>
    <TTGlyph name="E.smcp" xMin="57" yMin="0" xMax="921" yMax="1165">
      <contour>
        <pt x="730" y="554" on="1"/>
        <pt x="286" y="554" on="1"/>
        <pt x="195" y="102" on="1"/>
        <pt x="708" y="102" on="1"/>
        <pt x="688" y="0" on="1"/>
        <pt x="57" y="0" on="1"/>
        <pt x="290" y="1165" on="1"/>
        <pt x="921" y="1165" on="1"/>
        <pt x="900" y="1061" on="1"/>
        <pt x="387" y="1061" on="1"/>
        <pt x="307" y="658" on="1"/>
        <pt x="751" y="658" on="1"/>
      </contour>
    </TTGlyph>
    <TTGlyph name="Eacute" xMin="76" yMin="0" xMax="1103" yMax="1823">
      <component glyphName="E" x="0" y="0" flags="0x204"/>
      <component glyphName="acute" x="430" y="345" flags="0x4"/>
    </TTGlyph>
    <TTGlyph name="Eacute.smcp" xMin="57" yMin="0" xMax="921" yMax="1500">
      <component glyphName="E.smcp" x="0" y="0" flags="0x204"/>
      <component glyphName="acute" x="301" y="22" flags="0x4"/>
    </TTGlyph>
    <TTGlyph name="Ebreve" xMin="76" yMin="0" xMax="1103" yMax="1855">
      <component glyphName="E" x="0" y="0" flags="0x204"/>
      <component glyphName="breve" x="249" y="399" flags="0x4"/>
    </TTGlyph>
    <TTGlyph name="Ebreve.smcp" xMin="57" yMin="0" xMax="921" yMax="1532">
      <component glyphName="E.smcp" x="0" y="0" flags="0x204"/>
      <component glyphName="breve" x="120" y="76" flags="0x4"/>
    </TTGlyph>
    <TTGlyph name="Ecaron" xMin="76" yMin="0" xMax="1103" yMax="1846">
      <component glyphName="E" x="0" y="0" flags="0x204"/>
      <component glyphName="caron" x="222" y="351" flags="0x4"/>
    </TTGlyph>
    <TTGlyph name="Ecaron.smcp" xMin="57" yMin="0" xMax="921" yMax="1523">
      <component glyphName="E.smcp" x="0" y="0" flags="0x204"/>
      <component glyphName="caron" x="93" y="28" flags="0x4"/>
    </TTGlyph>
    <TTGlyph name="Ecircumflex" xMin="76" yMin="0" xMax="1103" yMax="1844">
      <component glyphName="E" x="0" y="0" flags="0x204"/>
      <component glyphName="circumflex" x="205" y="349" flags="0x4"/>
    </TTGlyph>
    <TTGlyph name="Ecircumflex.smcp" xMin="57" yMin="0" xMax="921" yMax="1521">
      <component glyphName="E.smcp" x="0" y="0" flags="0x204"/>
      <component glyphName="circumflex" x="76" y="26" flags="0x4"/>
    </TTGlyph>
    <TTGlyph name="Edieresis" xMin="76" yMin="0" xMax="1103" yMax="1798">
      <component glyphName="E" x="0" y="0" flags="0x204"/>
      <component glyphName="dieresis" x="188" y="342" flags="0x4"/>
    </TTGlyph>
    <TTGlyph name="Edieresis.smcp" xMin="57" yMin="0" xMax="921" yMax="1475">
      <component glyphName="E.smcp" x="0" y="0" flags="0x204"/>
      <component glyphName="dieresis" x="59" y="19" flags="0x4"/>
    </TTGlyph>
    <TTGlyph name="Edotaccent" xMin="76" yMin="0" xMax="1103" yMax="1805">
      <component glyphName="E" x="0" y="0" flags="0x204"/>
      <component glyphName="dotaccent" x="366" y="349" flags="0x4"/>
    </TTGlyph>
    <TTGlyph name="Edotaccent.smcp" xMin="57" yMin="0" xMax="921" yMax="1482">
      <component glyphName="E.smcp" x="0" y="0" flags="0x204"/>
      <component glyphName="dotaccent" x="237" y="26" flags="0x4"/>
    </TTGlyph>
    <TTGlyph name="Egrave" xMin="76" yMin="0" xMax="1103" yMax="1827">
      <component glyphName="E" x="0" y="0" flags="0x204"/>
      <component glyphName="grave" x="273" y="351" flags="0x4"/>
    </TTGlyph>
    <TTGlyph name="Egrave.smcp" xMin="57" yMin="0" xMax="921" yMax="1504">
      <component glyphName="E.smcp" x="0" y="0" flags="0x204"/>
      <component glyphName="grave" x="144" y="28" flags="0x4"/>
    </TTGlyph>
    <TTGlyph name="Emacron" xMin="76" yMin="0" xMax="1103" yMax="1786">
      <component glyphName="E" x="0" y="0" flags="0x204"/>
      <component glyphName="macron" x="218" y="330" flags="0x4"/>
    </TTGlyph>
    <TTGlyph name="Emacron.smcp" xMin="57" yMin="0" xMax="929" yMax="1463">
      <component glyphName="E.smcp" x="0" y="0" flags="0x204"/>
      <component glyphName="macron" x="89" y="7" flags="0x4"/>
    </TTGlyph>
    <TTGlyph name="Eng" xMin="66" yMin="-437" xMax="1213" yMax="1456">
      <contour>
        <pt x="1213" y="1456" on="1"/>
        <pt x="904" y="-89" on="1"/>
        <pt x="868" y="-267" on="0"/>
        <pt x="706" y="-437" on="0"/>
        <pt x="587" y="-437" on="1"/>
        <pt x="565" y="-437" on="0"/>
        <pt x="523" y="-427" on="0"/>
        <pt x="502" y="-418" on="1"/>
        <pt x="534" y="-316" on="1"/>
        <pt x="544" y="-321" on="0"/>
        <pt x="593" y="-331" on="0"/>
        <pt x="608" y="-331" on="1"/>
        <pt x="665" y="-331" on="0"/>
        <pt x="762" y="-201" on="0"/>
        <pt x="785" y="-89" on="1"/>
        <pt x="803" y="0" on="1"/>
        <pt x="432" y="1203" on="1"/>
        <pt x="426" y="1203" on="1"/>
        <pt x="185" y="0" on="1"/>
        <pt x="66" y="0" on="1"/>
        <pt x="357" y="1456" on="1"/>
        <pt x="476" y="1456" on="1"/>
        <pt x="847" y="252" on="1"/>
        <pt x="853" y="252" on="1"/>
        <pt x="1094" y="1456" on="1"/>
      </contour>
    </TTGlyph>
    <TTGlyph name="Eogonek" xMin="76" yMin="-394" xMax="1103" yMax="1456">
      <component glyphName="E" x="0" y="0" flags="0x204"/>
      <component glyphName="ogonek" x="411" y="0" flags="0x4"/>
    </TTGlyph>
    <TTGlyph name="Eogonek.smcp" xMin="57" yMin="-394" xMax="921" yMax="1165">
      <component glyphName="E.smcp" x="0" y="0" flags="0x204"/>
      <component glyphName="ogonek" x="368" y="0" flags="0x4"/>
    </TTGlyph>
    <TTGlyph name="Epsilon" xMin="76" yMin="0" xMax="1103" yMax="1456">
      <component glyphName="E" x="0" y="0" flags="0x204"/>
    </TTGlyph>
    <TTGlyph name="Epsilontonos" xMin="176" yMin="0" xMax="1203" yMax="1620">
      <component glyphName="E" x="100" y="0" flags="0x4"/>
      <component glyphName="tonos" x="-144" y="2" flags="0x4"/>
    </TTGlyph>
    <TTGlyph name="Eta" xMin="76" yMin="0" xMax="1218" yMax="1456">
      <component glyphName="H" x="0" y="0" flags="0x204"/>
    </TTGlyph>
    <TTGlyph name="Etatonos" xMin="176" yMin="0" xMax="1318" yMax="1620">
      <component glyphName="H" x="100" y="0" flags="0x4"/>
      <component glyphName="tonos" x="-116" y="2" flags="0x4"/>
    </TTGlyph>
    <TTGlyph name="Eth" xMin="106" yMin="0" xMax="1155" yMax="1456">
      <contour>
        <pt x="106" y="0" on="1"/>
        <pt x="243" y="688" on="1"/>
        <pt x="119" y="688" on="1"/>
        <pt x="140" y="792" on="1"/>
        <pt x="264" y="792" on="1"/>
        <pt x="397" y="1456" on="1"/>
        <pt x="706" y="1456" on="1"/>
        <pt x="911" y="1456" on="0"/>
        <pt x="1155" y="1087" on="0"/>
        <pt x="1101" y="817" on="1"/>
        <pt x="1064" y="628" on="1"/>
        <pt x="1003" y="326" on="0"/>
        <pt x="697" y="0" on="0"/>
        <pt x="479" y="0" on="1"/>
      </contour>
      <contour>
        <pt x="610" y="688" on="1"/>
        <pt x="361" y="688" on="1"/>
        <pt x="245" y="104" on="1"/>
        <pt x="500" y="104" on="1"/>
        <pt x="652" y="104" on="0"/>
        <pt x="899" y="397" on="0"/>
        <pt x="946" y="628" on="1"/>
        <pt x="984" y="820" on="1"/>
        <pt x="1032" y="1060" on="0"/>
        <pt x="859" y="1350" on="0"/>
        <pt x="685" y="1350" on="1"/>
        <pt x="494" y="1350" on="1"/>
        <pt x="382" y="792" on="1"/>
        <pt x="631" y="792" on="1"/>
      </contour>
    </TTGlyph>
    <TTGlyph name="Eth.smcp" xMin="24" yMin="0" xMax="939" yMax="1165">
      <contour>
        <pt x="610" y="1165" on="1"/>
        <pt x="762" y="1165" on="0"/>
        <pt x="939" y="892" on="0"/>
        <pt x="898" y="687" on="1"/>
        <pt x="856" y="477" on="1"/>
        <pt x="811" y="254" on="0"/>
        <pt x="543" y="0" on="0"/>
        <pt x="377" y="0" on="1"/>
        <pt x="57" y="0" on="1"/>
        <pt x="165" y="541" on="1"/>
        <pt x="24" y="541" on="1"/>
        <pt x="45" y="645" on="1"/>
        <pt x="186" y="645" on="1"/>
        <pt x="290" y="1165" on="1"/>
      </contour>
      <contour>
        <pt x="515" y="541" on="1"/>
        <pt x="283" y="541" on="1"/>
        <pt x="195" y="102" on="1"/>
        <pt x="397" y="102" on="1"/>
        <pt x="501" y="102" on="0"/>
        <pt x="705" y="319" on="0"/>
        <pt x="737" y="477" on="1"/>
        <pt x="780" y="688" on="1"/>
        <pt x="813" y="858" on="0"/>
        <pt x="702" y="1061" on="0"/>
        <pt x="589" y="1061" on="1"/>
        <pt x="387" y="1061" on="1"/>
        <pt x="304" y="645" on="1"/>
        <pt x="536" y="645" on="1"/>
      </contour>
    </TTGlyph>
    <TTGlyph name="Euro" xMin="98" yMin="-21" xMax="987" yMax="1477">
      <contour>
        <pt x="755" y="531" on="1"/>
        <pt x="342" y="531" on="1"/>
        <pt x="339" y="514" on="1"/>
        <pt x="297" y="304" on="0"/>
        <pt x="400" y="83" on="0"/>
        <pt x="530" y="83" on="1"/>
        <pt x="573" y="83" on="0"/>
        <pt x="668" y="100" on="0"/>
        <pt x="710" y="117" on="1"/>
        <pt x="700" y="10" on="1"/>
        <pt x="653" y="-5" on="0"/>
        <pt x="557" y="-21" on="0"/>
        <pt x="509" y="-21" on="1"/>
        <pt x="344" y="-21" on="0"/>
        <pt x="172" y="274" on="0"/>
        <pt x="221" y="514" on="1"/>
        <pt x="224" y="531" on="1"/>
        <pt x="98" y="531" on="1"/>
        <pt x="116" y="635" on="1"/>
        <pt x="242" y="635" on="1"/>
        <pt x="281" y="802" on="1"/>
        <pt x="155" y="802" on="1"/>
        <pt x="173" y="906" on="1"/>
        <pt x="299" y="906" on="1"/>
        <pt x="306" y="942" on="1"/>
        <pt x="358" y="1202" on="0"/>
        <pt x="626" y="1477" on="0"/>
        <pt x="807" y="1477" on="1"/>
        <pt x="849" y="1477" on="0"/>
        <pt x="941" y="1460" on="0"/>
        <pt x="987" y="1446" on="1"/>
        <pt x="954" y="1336" on="1"/>
        <pt x="916" y="1352" on="0"/>
        <pt x="831" y="1371" on="0"/>
        <pt x="786" y="1371" on="1"/>
        <pt x="666" y="1371" on="0"/>
        <pt x="463" y="1137" on="0"/>
        <pt x="425" y="944" on="1"/>
        <pt x="417" y="906" on="1"/>
        <pt x="830" y="906" on="1"/>
        <pt x="812" y="802" on="1"/>
        <pt x="399" y="802" on="1"/>
        <pt x="360" y="635" on="1"/>
        <pt x="773" y="635" on="1"/>
      </contour>
    </TTGlyph>
    <TTGlyph name="F" xMin="76" yMin="0" xMax="1111" yMax="1456">
      <contour>
        <pt x="875" y="679" on="1"/>
        <pt x="329" y="679" on="1"/>
        <pt x="194" y="0" on="1"/>
        <pt x="76" y="0" on="1"/>
        <pt x="367" y="1456" on="1"/>
        <pt x="1111" y="1456" on="1"/>
        <pt x="1090" y="1350" on="1"/>
        <pt x="464" y="1350" on="1"/>
        <pt x="350" y="785" on="1"/>
        <pt x="896" y="785" on="1"/>
      </contour>
    </TTGlyph>
    <TTGlyph name="F.smcp" xMin="57" yMin="0" xMax="921" yMax="1165">
      <contour>
        <pt x="728" y="533" on="1"/>
        <pt x="281" y="533" on="1"/>
        <pt x="175" y="0" on="1"/>
        <pt x="57" y="0" on="1"/>
        <pt x="290" y="1165" on="1"/>
        <pt x="921" y="1165" on="1"/>
        <pt x="900" y="1061" on="1"/>
        <pt x="387" y="1061" on="1"/>
        <pt x="302" y="638" on="1"/>
        <pt x="749" y="638" on="1"/>
      </contour>
    </TTGlyph>
    <TTGlyph name="G" xMin="88" yMin="-21" xMax="1142" yMax="1477">
      <contour>
        <pt x="941" y="198" on="1"/>
        <pt x="886" y="116" on="0"/>
        <pt x="654" y="-21" on="0"/>
        <pt x="496" y="-21" on="1"/>
        <pt x="300" y="-21" on="0"/>
        <pt x="88" y="261" on="0"/>
        <pt x="139" y="517" on="1"/>
        <pt x="226" y="950" on="1"/>
        <pt x="280" y="1222" on="0"/>
        <pt x="566" y="1477" on="0"/>
        <pt x="773" y="1477" on="1"/>
        <pt x="957" y="1477" on="0"/>
        <pt x="1142" y="1258" on="0"/>
        <pt x="1109" y="1069" on="1"/>
        <pt x="1106" y="1064" on="1"/>
        <pt x="995" y="1064" on="1"/>
        <pt x="1019" y="1210" on="0"/>
        <pt x="900" y="1371" on="0"/>
        <pt x="752" y="1371" on="1"/>
        <pt x="611" y="1371" on="0"/>
        <pt x="384" y="1153" on="0"/>
        <pt x="344" y="952" on="1"/>
        <pt x="257" y="517" on="1"/>
        <pt x="211" y="291" on="0"/>
        <pt x="354" y="83" on="0"/>
        <pt x="517" y="83" on="1"/>
        <pt x="624" y="83" on="0"/>
        <pt x="791" y="173" on="0"/>
        <pt x="829" y="234" on="1"/>
        <pt x="904" y="612" on="1"/>
        <pt x="620" y="612" on="1"/>
        <pt x="641" y="717" on="1"/>
        <pt x="1044" y="717" on="1"/>
      </contour>
    </TTGlyph>
    <TTGlyph name="G.smcp" xMin="74" yMin="-17" xMax="973" yMax="1181">
      <contour>
        <pt x="813" y="156" on="1"/>
        <pt x="766" y="93" on="0"/>
        <pt x="558" y="-17" on="0"/>
        <pt x="421" y="-17" on="1"/>
        <pt x="254" y="-17" on="0"/>
        <pt x="74" y="252" on="0"/>
        <pt x="116" y="461" on="1"/>
        <pt x="165" y="704" on="1"/>
        <pt x="209" y="928" on="0"/>
        <pt x="477" y="1181" on="0"/>
        <pt x="654" y="1181" on="1"/>
        <pt x="814" y="1181" on="0"/>
        <pt x="973" y="991" on="0"/>
        <pt x="946" y="832" on="1"/>
        <pt x="828" y="828" on="1"/>
        <pt x="847" y="950" on="0"/>
        <pt x="750" y="1077" on="0"/>
        <pt x="633" y="1077" on="1"/>
        <pt x="519" y="1077" on="0"/>
        <pt x="314" y="863" on="0"/>
        <pt x="283" y="705" on="1"/>
        <pt x="234" y="461" on="1"/>
        <pt x="198" y="285" on="0"/>
        <pt x="311" y="86" on="0"/>
        <pt x="441" y="86" on="1"/>
        <pt x="529" y="86" on="0"/>
        <pt x="671" y="150" on="0"/>
        <pt x="703" y="190" on="1"/>
        <pt x="758" y="467" on="1"/>
        <pt x="536" y="467" on="1"/>
        <pt x="557" y="572" on="1"/>
        <pt x="896" y="572" on="1"/>
      </contour>
    </TTGlyph>
    <TTGlyph name="Gamma" xMin="74" yMin="0" xMax="1062" yMax="1456">
      <contour>
        <pt x="1041" y="1350" on="1"/>
        <pt x="462" y="1350" on="1"/>
        <pt x="192" y="0" on="1"/>
        <pt x="74" y="0" on="1"/>
        <pt x="365" y="1456" on="1"/>
        <pt x="1062" y="1456" on="1"/>
      </contour>
    </TTGlyph>
    <TTGlyph name="Gbreve" xMin="88" yMin="-21" xMax="1142" yMax="1876">
      <component glyphName="G" x="0" y="0" flags="0x204"/>
      <component glyphName="breve" x="298" y="420" flags="0x4"/>
    </TTGlyph>
    <TTGlyph name="Gbreve.smcp" xMin="74" yMin="-17" xMax="973" yMax="1548">
      <component glyphName="G.smcp" x="0" y="0" flags="0x204"/>
      <component glyphName="breve" x="150" y="92" flags="0x4"/>
    </TTGlyph>
    <TTGlyph name="Gcircumflex" xMin="88" yMin="-21" xMax="1142" yMax="1865">
      <component glyphName="G" x="0" y="0" flags="0x204"/>
      <component glyphName="circumflex" x="254" y="370" flags="0x4"/>
    </TTGlyph>
    <TTGlyph name="Gcircumflex.smcp" xMin="74" yMin="-17" xMax="973" yMax="1537">
      <component glyphName="G.smcp" x="0" y="0" flags="0x204"/>
      <component glyphName="circumflex" x="106" y="42" flags="0x4"/>
    </TTGlyph>
    <TTGlyph name="Gcommaaccent" xMin="88" yMin="-462" xMax="1142" yMax="1477">
      <component glyphName="G" x="0" y="0" flags="0x204"/>
      <component glyphName="commaaccent" x="285" y="-309" flags="0x4"/>
    </TTGlyph>
    <TTGlyph name="Gcommaaccent.smcp" xMin="74" yMin="-462" xMax="973" yMax="1181">
      <component glyphName="G.smcp" x="0" y="0" flags="0x204"/>
      <component glyphName="commaaccent" x="211" y="-309" flags="0x4"/>
    </TTGlyph>
    <TTGlyph name="H" xMin="76" yMin="0" xMax="1218" yMax="1456">
      <contour>
        <pt x="927" y="0" on="1"/>
        <pt x="811" y="0" on="1"/>
        <pt x="944" y="669" on="1"/>
        <pt x="327" y="669" on="1"/>
        <pt x="194" y="0" on="1"/>
        <pt x="76" y="0" on="1"/>
        <pt x="367" y="1456" on="1"/>
        <pt x="485" y="1456" on="1"/>
        <pt x="348" y="773" on="1"/>
        <pt x="965" y="773" on="1"/>
        <pt x="1102" y="1456" on="1"/>
        <pt x="1218" y="1456" on="1"/>
      </contour>
    </TTGlyph>
    <TTGlyph name="H.smcp" xMin="57" yMin="0" xMax="1025" yMax="1165">
      <contour>
        <pt x="792" y="0" on="1"/>
        <pt x="672" y="0" on="1"/>
        <pt x="776" y="519" on="1"/>
        <pt x="279" y="519" on="1"/>
        <pt x="175" y="0" on="1"/>
        <pt x="57" y="0" on="1"/>
        <pt x="290" y="1165" on="1"/>
        <pt x="408" y="1165" on="1"/>
        <pt x="300" y="623" on="1"/>
        <pt x="797" y="623" on="1"/>
        <pt x="905" y="1165" on="1"/>
        <pt x="1025" y="1165" on="1"/>
      </contour>
    </TTGlyph>
    <TTGlyph name="Hbar" xMin="64" yMin="0" xMax="1259" yMax="1456">
      <contour>
        <pt x="1140" y="1125" on="1"/>
        <pt x="1259" y="1125" on="1"/>
        <pt x="1239" y="1026" on="1"/>
        <pt x="1120" y="1026" on="1"/>
        <pt x="915" y="0" on="1"/>
        <pt x="799" y="0" on="1"/>
        <pt x="932" y="669" on="1"/>
        <pt x="315" y="669" on="1"/>
        <pt x="182" y="0" on="1"/>
        <pt x="64" y="0" on="1"/>
        <pt x="269" y="1026" on="1"/>
        <pt x="156" y="1026" on="1"/>
        <pt x="176" y="1125" on="1"/>
        <pt x="289" y="1125" on="1"/>
        <pt x="355" y="1456" on="1"/>
        <pt x="473" y="1456" on="1"/>
        <pt x="407" y="1125" on="1"/>
        <pt x="1024" y="1125" on="1"/>
        <pt x="1090" y="1456" on="1"/>
        <pt x="1206" y="1456" on="1"/>
      </contour>
      <contour>
        <pt x="336" y="773" on="1"/>
        <pt x="953" y="773" on="1"/>
        <pt x="1004" y="1026" on="1"/>
        <pt x="387" y="1026" on="1"/>
      </contour>
    </TTGlyph>
    <TTGlyph name="Hcircumflex" xMin="76" yMin="0" xMax="1218" yMax="1844">
      <component glyphName="H" x="0" y="0" flags="0x204"/>
      <component glyphName="circumflex" x="280" y="349" flags="0x4"/>
    </TTGlyph>
    <TTGlyph name="Hcircumflex.smcp" xMin="57" yMin="0" xMax="1025" yMax="1521">
      <component glyphName="H.smcp" x="0" y="0" flags="0x204"/>
      <component glyphName="circumflex" x="119" y="26" flags="0x4"/>
    </TTGlyph>
    <TTGlyph name="I" xMin="91" yMin="0" xMax="501" yMax="1456">
      <contour>
        <pt x="210" y="0" on="1"/>
        <pt x="91" y="0" on="1"/>
        <pt x="382" y="1456" on="1"/>
        <pt x="501" y="1456" on="1"/>
      </contour>
    </TTGlyph>
    <TTGlyph name="I.smcp" xMin="57" yMin="0" xMax="407" yMax="1165">
      <contour>
        <pt x="174" y="0" on="1"/>
        <pt x="57" y="0" on="1"/>
        <pt x="290" y="1165" on="1"/>
        <pt x="407" y="1165" on="1"/>
      </contour>
    </TTGlyph>
    <TTGlyph name="IJ" xMin="91" yMin="-21" xMax="1443" yMax="1456">
      <component glyphName="I" x="0" y="0" flags="0x4"/>
      <component glyphName="J" x="473" y="0" flags="0x4"/>
    </TTGlyph>
    <TTGlyph name="Iacute" xMin="91" yMin="0" xMax="752" yMax="1823">
      <component glyphName="I" x="0" y="0" flags="0x204"/>
      <component glyphName="acute" x="160" y="345" flags="0x4"/>
    </TTGlyph>
    <TTGlyph name="Iacute.smcp" xMin="57" yMin="0" xMax="652" yMax="1500">
      <component glyphName="I.smcp" x="0" y="0" flags="0x204"/>
      <component glyphName="acute" x="60" y="22" flags="0x4"/>
    </TTGlyph>
    <TTGlyph name="Ibreve" xMin="91" yMin="0" xMax="752" yMax="1855">
      <component glyphName="I" x="0" y="0" flags="0x204"/>
      <component glyphName="breve" x="-19" y="399" flags="0x4"/>
    </TTGlyph>
    <TTGlyph name="Ibreve.smcp" xMin="57" yMin="0" xMax="652" yMax="1532">
      <component glyphName="I.smcp" x="0" y="0" flags="0x204"/>
      <component glyphName="breve" x="-119" y="76" flags="0x4"/>
    </TTGlyph>
    <TTGlyph name="Icircumflex" xMin="91" yMin="0" xMax="706" yMax="1844">
      <component glyphName="I" x="0" y="0" flags="0x204"/>
      <component glyphName="circumflex" x="-63" y="349" flags="0x4"/>
    </TTGlyph>
    <TTGlyph name="Icircumflex.smcp" xMin="57" yMin="0" xMax="606" yMax="1521">
      <component glyphName="I.smcp" x="0" y="0" flags="0x204"/>
      <component glyphName="circumflex" x="-163" y="26" flags="0x4"/>
    </TTGlyph>
    <TTGlyph name="Idieresis" xMin="91" yMin="0" xMax="781" yMax="1798">
      <component glyphName="I" x="0" y="0" flags="0x204"/>
      <component glyphName="dieresis" x="-80" y="342" flags="0x4"/>
    </TTGlyph>
    <TTGlyph name="Idieresis.smcp" xMin="57" yMin="0" xMax="681" yMax="1475">
      <component glyphName="I.smcp" x="0" y="0" flags="0x204"/>
      <component glyphName="dieresis" x="-180" y="19" flags="0x4"/>
    </TTGlyph>
    <TTGlyph name="Idotaccent" xMin="91" yMin="0" xMax="580" yMax="1805">
      <component glyphName="I" x="0" y="0" flags="0x204"/>
      <component glyphName="dotaccent" x="96" y="349" flags="0x4"/>
    </TTGlyph>
    <TTGlyph name="Idotaccent.smcp" xMin="57" yMin="0" xMax="482" yMax="1482">
      <component glyphName="I.smcp" x="0" y="0" flags="0x204"/>
      <component glyphName="dotaccent" x="-2" y="26" flags="0x4"/>
    </TTGlyph>
    <TTGlyph name="Igrave" xMin="91" yMin="0" xMax="527" yMax="1827">
      <component glyphName="I" x="0" y="0" flags="0x204"/>
      <component glyphName="grave" x="3" y="351" flags="0x4"/>
    </TTGlyph>
    <TTGlyph name="Igrave.smcp" xMin="57" yMin="0" xMax="429" yMax="1504">
      <component glyphName="I.smcp" x="0" y="0" flags="0x204"/>
      <component glyphName="grave" x="-95" y="28" flags="0x4"/>
    </TTGlyph>
    <TTGlyph name="Imacron" xMin="91" yMin="0" xMax="790" yMax="1786">
      <component glyphName="I" x="0" y="0" flags="0x204"/>
      <component glyphName="macron" x="-50" y="330" flags="0x4"/>
    </TTGlyph>
    <TTGlyph name="Imacron.smcp" xMin="57" yMin="0" xMax="690" yMax="1463">
      <component glyphName="I.smcp" x="0" y="0" flags="0x204"/>
      <component glyphName="macron" x="-150" y="7" flags="0x4"/>
    </TTGlyph>
    <TTGlyph name="Iogonek" xMin="-82" yMin="-394" xMax="501" yMax="1456">
      <component glyphName="I" x="0" y="0" flags="0x204"/>
      <component glyphName="ogonek" x="-17" y="0" flags="0x4"/>
    </TTGlyph>
    <TTGlyph name="Iogonek.smcp" xMin="-118" yMin="-394" xMax="407" yMax="1165">
      <component glyphName="I.smcp" x="0" y="0" flags="0x204"/>
      <component glyphName="ogonek" x="-53" y="0" flags="0x4"/>
    </TTGlyph>
    <TTGlyph name="Iota" xMin="91" yMin="0" xMax="501" yMax="1456">
      <component glyphName="I" x="0" y="0" flags="0x204"/>
    </TTGlyph>
    <TTGlyph name="Iotadieresis" xMin="91" yMin="0" xMax="781" yMax="1798">
      <component glyphName="I" x="0" y="0" flags="0x204"/>
      <component glyphName="dieresis" x="-80" y="342" flags="0x4"/>
    </TTGlyph>
    <TTGlyph name="Iotatonos" xMin="191" yMin="0" xMax="601" yMax="1618">
      <component glyphName="I" x="100" y="0" flags="0x4"/>
      <component glyphName="tonos" x="-106" y="0" flags="0x4"/>
    </TTGlyph>
    <TTGlyph name="Itilde" xMin="91" yMin="0" xMax="771" yMax="1844">
      <component glyphName="I" x="0" y="0" flags="0x204"/>
      <component glyphName="tilde" x="-34" y="342" flags="0x4"/>
    </TTGlyph>
    <TTGlyph name="Itilde.smcp" xMin="57" yMin="0" xMax="671" yMax="1521">
      <component glyphName="I.smcp" x="0" y="0" flags="0x204"/>
      <component glyphName="tilde" x="-134" y="19" flags="0x4"/>
    </TTGlyph>
    <TTGlyph name="J" xMin="22" yMin="-21" xMax="970" yMax="1456">
      <contour>
        <pt x="852" y="1456" on="1"/>
        <pt x="970" y="1456" on="1"/>
        <pt x="761" y="412" on="1"/>
        <pt x="718" y="199" on="0"/>
        <pt x="489" y="-21" on="0"/>
        <pt x="334" y="-21" on="1"/>
        <pt x="181" y="-21" on="0"/>
        <pt x="22" y="197" on="0"/>
        <pt x="63" y="401" on="1"/>
        <pt x="182" y="401" on="1"/>
        <pt x="148" y="234" on="0"/>
        <pt x="239" y="83" on="0"/>
        <pt x="355" y="83" on="1"/>
        <pt x="446" y="83" on="0"/>
        <pt x="614" y="264" on="0"/>
        <pt x="643" y="412" on="1"/>
      </contour>
    </TTGlyph>
    <TTGlyph name="J.smcp" xMin="17" yMin="-17" xMax="843" yMax="1165">
      <contour>
        <pt x="726" y="1165" on="1"/>
        <pt x="843" y="1165" on="1"/>
        <pt x="679" y="345" on="1"/>
        <pt x="643" y="168" on="0"/>
        <pt x="438" y="-17" on="0"/>
        <pt x="302" y="-17" on="1"/>
        <pt x="163" y="-17" on="0"/>
        <pt x="17" y="161" on="0"/>
        <pt x="51" y="328" on="1"/>
        <pt x="170" y="328" on="1"/>
        <pt x="143" y="197" on="0"/>
        <pt x="223" y="86" on="0"/>
        <pt x="322" y="86" on="1"/>
        <pt x="398" y="86" on="0"/>
        <pt x="538" y="229" on="0"/>
        <pt x="562" y="345" on="1"/>
      </contour>
    </TTGlyph>
    <TTGlyph name="Jcircumflex" xMin="22" yMin="-21" xMax="1165" yMax="1822">
      <component glyphName="J" x="0" y="0" flags="0x204"/>
      <component glyphName="circumflex" x="396" y="327" flags="0x4"/>
    </TTGlyph>
    <TTGlyph name="Jcircumflex.smcp" xMin="17" yMin="-17" xMax="1031" yMax="1504">
      <component glyphName="J.smcp" x="0" y="0" flags="0x204"/>
      <component glyphName="circumflex" x="262" y="9" flags="0x4"/>
    </TTGlyph>
    <TTGlyph name="K" xMin="57" yMin="0" xMax="1149" yMax="1456">
      <contour>
        <pt x="449" y="689" on="1"/>
        <pt x="312" y="689" on="1"/>
        <pt x="175" y="0" on="1"/>
        <pt x="57" y="0" on="1"/>
        <pt x="348" y="1456" on="1"/>
        <pt x="466" y="1456" on="1"/>
        <pt x="334" y="798" on="1"/>
        <pt x="482" y="798" on="1"/>
        <pt x="1001" y="1456" on="1"/>
        <pt x="1146" y="1456" on="1"/>
        <pt x="1149" y="1451" on="1"/>
        <pt x="552" y="729" on="1"/>
        <pt x="881" y="0" on="1"/>
        <pt x="745" y="0" on="1"/>
      </contour>
    </TTGlyph>
    <TTGlyph name="K.smcp" xMin="57" yMin="0" xMax="969" yMax="1165">
      <contour>
        <pt x="374" y="535" on="1"/>
        <pt x="282" y="535" on="1"/>
        <pt x="175" y="0" on="1"/>
        <pt x="57" y="0" on="1"/>
        <pt x="290" y="1165" on="1"/>
        <pt x="408" y="1165" on="1"/>
        <pt x="303" y="640" on="1"/>
        <pt x="393" y="640" on="1"/>
        <pt x="831" y="1165" on="1"/>
        <pt x="967" y="1165" on="1"/>
        <pt x="969" y="1160" on="1"/>
        <pt x="482" y="603" on="1"/>
        <pt x="776" y="0" on="1"/>
        <pt x="626" y="0" on="1"/>
      </contour>
    </TTGlyph>
    <TTGlyph name="Kappa" xMin="57" yMin="0" xMax="1149" yMax="1456">
      <component glyphName="K" x="0" y="0" flags="0x4"/>
    </TTGlyph>
    <TTGlyph name="Kcommaaccent" xMin="57" yMin="-462" xMax="1149" yMax="1456">
      <component glyphName="K" x="0" y="0" flags="0x4"/>
      <component glyphName="commaaccent" x="242" y="-309" flags="0x4"/>
    </TTGlyph>
    <TTGlyph name="Kcommaaccent.smcp" xMin="57" yMin="-462" xMax="969" yMax="1165">
      <component glyphName="K.smcp" x="0" y="0" flags="0x204"/>
      <component glyphName="commaaccent" x="146" y="-309" flags="0x4"/>
    </TTGlyph>
    <TTGlyph name="L" xMin="76" yMin="0" xMax="774" yMax="1456">
      <contour>
        <pt x="216" y="104" on="1"/>
        <pt x="774" y="104" on="1"/>
        <pt x="753" y="0" on="1"/>
        <pt x="76" y="0" on="1"/>
        <pt x="367" y="1456" on="1"/>
        <pt x="486" y="1456" on="1"/>
      </contour>
    </TTGlyph>
    <TTGlyph name="L.smcp" xMin="57" yMin="0" xMax="635" yMax="1165">
      <contour>
        <pt x="195" y="102" on="1"/>
        <pt x="635" y="102" on="1"/>
        <pt x="615" y="0" on="1"/>
        <pt x="57" y="0" on="1"/>
        <pt x="290" y="1165" on="1"/>
        <pt x="408" y="1165" on="1"/>
      </contour>
    </TTGlyph>
    <TTGlyph name="Lacute" xMin="76" yMin="0" xMax="774" yMax="1760">
      <component glyphName="L" x="0" y="0" flags="0x204"/>
      <component glyphName="acute" x="131" y="282" flags="0x4"/>
    </TTGlyph>
    <TTGlyph name="Lacute.smcp" xMin="57" yMin="0" xMax="649" yMax="1477">
      <component glyphName="L.smcp" x="0" y="0" flags="0x204"/>
      <component glyphName="acute" x="57" y="-1" flags="0x4"/>
    </TTGlyph>
    <TTGlyph name="Lambda" xMin="-22" yMin="0" xMax="926" yMax="1456">
      <contour>
        <pt x="702" y="1238" on="1"/>
        <pt x="696" y="1239" on="1"/>
        <pt x="99" y="0" on="1"/>
        <pt x="-22" y="0" on="1"/>
        <pt x="689" y="1456" on="1"/>
        <pt x="797" y="1456" on="1"/>
        <pt x="926" y="0" on="1"/>
        <pt x="806" y="0" on="1"/>
      </contour>
    </TTGlyph>
    <TTGlyph name="Lcaron" xMin="76" yMin="0" xMax="816" yMax="1456">
      <component glyphName="L" x="0" y="0" flags="0x204"/>
      <component glyphName="commaaccent" x="611" y="1277" flags="0x4"/>
    </TTGlyph>
    <TTGlyph name="Lcaron.smcp" xMin="57" yMin="0" xMax="645" yMax="1165">
      <component glyphName="L.smcp" x="0" y="0" flags="0x204"/>
      <component glyphName="commaaccent" x="440" y="986" flags="0x4"/>
    </TTGlyph>
    <TTGlyph name="Lcommaaccent" xMin="76" yMin="-462" xMax="774" yMax="1456">
      <component glyphName="L" x="0" y="0" flags="0x204"/>
      <component glyphName="commaaccent" x="239" y="-309" flags="0x4"/>
    </TTGlyph>
    <TTGlyph name="Lcommaaccent.smcp" xMin="57" yMin="-462" xMax="635" yMax="1165">
      <component glyphName="L.smcp" x="0" y="0" flags="0x204"/>
      <component glyphName="commaaccent" x="123" y="-309" flags="0x4"/>
    </TTGlyph>
    <TTGlyph name="Ldot" xMin="76" yMin="0" xMax="774" yMax="1456">
      <component glyphName="L" x="0" y="0" flags="0x204"/>
      <component glyphName="dotaccent" x="236" y="-599" flags="0x4"/>
    </TTGlyph>
    <TTGlyph name="Ldot.smcp" xMin="57" yMin="0" xMax="635" yMax="1165">
      <component glyphName="L.smcp" x="0" y="0" flags="0x204"/>
      <component glyphName="dotaccent" x="90" y="-754" flags="0x4"/>
    </TTGlyph>
    <TTGlyph name="Lslash" xMin="65" yMin="0" xMax="763" yMax="1456">
      <contour>
        <pt x="348" y="821" on="1"/>
        <pt x="600" y="915" on="1"/>
        <pt x="578" y="804" on="1"/>
        <pt x="326" y="710" on="1"/>
        <pt x="205" y="104" on="1"/>
        <pt x="763" y="104" on="1"/>
        <pt x="742" y="0" on="1"/>
        <pt x="65" y="0" on="1"/>
        <pt x="197" y="662" on="1"/>
        <pt x="76" y="617" on="1"/>
        <pt x="99" y="728" on="1"/>
        <pt x="219" y="773" on="1"/>
        <pt x="356" y="1456" on="1"/>
        <pt x="475" y="1456" on="1"/>
      </contour>
    </TTGlyph>
    <TTGlyph name="M" xMin="70" yMin="0" xMax="1433" yMax="1456">
      <contour>
        <pt x="512" y="1456" on="1"/>
        <pt x="638" y="183" on="1"/>
        <pt x="644" y="182" on="1"/>
        <pt x="1281" y="1456" on="1"/>
        <pt x="1433" y="1456" on="1"/>
        <pt x="1142" y="0" on="1"/>
        <pt x="1025" y="0" on="1"/>
        <pt x="1153" y="639" on="1"/>
        <pt x="1281" y="1223" on="1"/>
        <pt x="1275" y="1225" on="1"/>
        <pt x="644" y="0" on="1"/>
        <pt x="566" y="0" on="1"/>
        <pt x="425" y="1223" on="1"/>
        <pt x="419" y="1223" on="1"/>
        <pt x="314" y="639" on="1"/>
        <pt x="186" y="0" on="1"/>
        <pt x="70" y="0" on="1"/>
        <pt x="361" y="1456" on="1"/>
      </contour>
    </TTGlyph>
    <TTGlyph name="M.smcp" xMin="57" yMin="0" xMax="1223" yMax="1165">
      <contour>
        <pt x="558" y="176" on="1"/>
        <pt x="564" y="175" on="1"/>
        <pt x="1075" y="1165" on="1"/>
        <pt x="1223" y="1165" on="1"/>
        <pt x="990" y="0" on="1"/>
        <pt x="871" y="0" on="1"/>
        <pt x="1048" y="886" on="1"/>
        <pt x="1042" y="888" on="1"/>
        <pt x="567" y="0" on="1"/>
        <pt x="485" y="0" on="1"/>
        <pt x="362" y="910" on="1"/>
        <pt x="356" y="910" on="1"/>
        <pt x="175" y="0" on="1"/>
        <pt x="57" y="0" on="1"/>
        <pt x="290" y="1165" on="1"/>
        <pt x="444" y="1165" on="1"/>
      </contour>
    </TTGlyph>
    <TTGlyph name="Mu" xMin="70" yMin="0" xMax="1433" yMax="1456">
      <component glyphName="M" x="0" y="0" flags="0x204"/>
    </TTGlyph>
    <TTGlyph name="N" xMin="76" yMin="0" xMax="1222" yMax="1456">
      <contour>
        <pt x="931" y="0" on="1"/>
        <pt x="813" y="0" on="1"/>
        <pt x="443" y="1212" on="1"/>
        <pt x="437" y="1212" on="1"/>
        <pt x="195" y="0" on="1"/>
        <pt x="76" y="0" on="1"/>
        <pt x="367" y="1456" on="1"/>
        <pt x="486" y="1456" on="1"/>
        <pt x="855" y="245" on="1"/>
        <pt x="861" y="245" on="1"/>
        <pt x="1104" y="1456" on="1"/>
        <pt x="1222" y="1456" on="1"/>
      </contour>
    </TTGlyph>
    <TTGlyph name="N.smcp" xMin="57" yMin="0" xMax="1050" yMax="1165">
      <contour>
        <pt x="817" y="0" on="1"/>
        <pt x="699" y="0" on="1"/>
        <pt x="368" y="935" on="1"/>
        <pt x="362" y="935" on="1"/>
        <pt x="175" y="0" on="1"/>
        <pt x="57" y="0" on="1"/>
        <pt x="290" y="1165" on="1"/>
        <pt x="408" y="1165" on="1"/>
        <pt x="739" y="230" on="1"/>
        <pt x="745" y="230" on="1"/>
        <pt x="932" y="1165" on="1"/>
        <pt x="1050" y="1165" on="1"/>
      </contour>
    </TTGlyph>
    <TTGlyph name="Nacute" xMin="76" yMin="0" xMax="1222" yMax="1823">
      <component glyphName="N" x="0" y="0" flags="0x204"/>
      <component glyphName="acute" x="512" y="345" flags="0x4"/>
    </TTGlyph>
    <TTGlyph name="Nacute.smcp" xMin="57" yMin="0" xMax="1050" yMax="1500">
      <component glyphName="N.smcp" x="0" y="0" flags="0x204"/>
      <component glyphName="acute" x="365" y="22" flags="0x4"/>
    </TTGlyph>
    <TTGlyph name="Ncaron" xMin="76" yMin="0" xMax="1222" yMax="1846">
      <component glyphName="N" x="0" y="0" flags="0x204"/>
      <component glyphName="caron" x="304" y="351" flags="0x4"/>
    </TTGlyph>
    <TTGlyph name="Ncaron.smcp" xMin="57" yMin="0" xMax="1050" yMax="1523">
      <component glyphName="N.smcp" x="0" y="0" flags="0x204"/>
      <component glyphName="caron" x="157" y="28" flags="0x4"/>
    </TTGlyph>
    <TTGlyph name="Ncommaaccent" xMin="76" yMin="-462" xMax="1222" yMax="1456">
      <component glyphName="N" x="0" y="0" flags="0x204"/>
      <component glyphName="commaaccent" x="319" y="-309" flags="0x4"/>
    </TTGlyph>
    <TTGlyph name="Ncommaaccent.smcp" xMin="57" yMin="-462" xMax="1050" yMax="1165">
      <component glyphName="N.smcp" x="0" y="0" flags="0x204"/>
      <component glyphName="commaaccent" x="236" y="-309" flags="0x4"/>
    </TTGlyph>
    <TTGlyph name="Ntilde" xMin="76" yMin="0" xMax="1222" yMax="1844">
      <component glyphName="N" x="0" y="0" flags="0x204"/>
      <component glyphName="tilde" x="316" y="342" flags="0x4"/>
    </TTGlyph>
    <TTGlyph name="Ntilde.smcp" xMin="57" yMin="0" xMax="1050" yMax="1521">
      <component glyphName="N.smcp" x="0" y="0" flags="0x204"/>
      <component glyphName="tilde" x="169" y="19" flags="0x4"/>
    </TTGlyph>
    <TTGlyph name="Nu" xMin="76" yMin="0" xMax="1222" yMax="1456">
      <component glyphName="N" x="0" y="0" flags="0x204"/>
    </TTGlyph>
    <TTGlyph name="O" xMin="91" yMin="-21" xMax="1149" yMax="1477">
      <contour>
        <pt x="1048" y="603" on="1"/>
        <pt x="987" y="301" on="0"/>
        <pt x="700" y="-21" on="0"/>
        <pt x="492" y="-21" on="1"/>
        <pt x="301" y="-21" on="0"/>
        <pt x="91" y="340" on="0"/>
        <pt x="146" y="612" on="1"/>
        <pt x="194" y="851" on="1"/>
        <pt x="254" y="1154" on="0"/>
        <pt x="534" y="1477" on="0"/>
        <pt x="738" y="1477" on="1"/>
        <pt x="933" y="1477" on="0"/>
        <pt x="1149" y="1113" on="0"/>
        <pt x="1095" y="842" on="1"/>
      </contour>
      <contour>
        <pt x="978" y="844" on="1"/>
        <pt x="1026" y="1088" on="0"/>
        <pt x="881" y="1368" on="0"/>
        <pt x="717" y="1368" on="1"/>
        <pt x="576" y="1368" on="0"/>
        <pt x="359" y="1086" on="0"/>
        <pt x="313" y="853" on="1"/>
        <pt x="264" y="612" on="1"/>
        <pt x="215" y="366" on="0"/>
        <pt x="354" y="86" on="0"/>
        <pt x="513" y="86" on="1"/>
        <pt x="659" y="86" on="0"/>
        <pt x="882" y="368" on="0"/>
        <pt x="930" y="603" on="1"/>
      </contour>
    </TTGlyph>
    <TTGlyph name="O.smcp" xMin="73" yMin="-17" xMax="978" yMax="1181">
      <contour>
        <pt x="887" y="461" on="1"/>
        <pt x="840" y="228" on="0"/>
        <pt x="584" y="-17" on="0"/>
        <pt x="408" y="-17" on="1"/>
        <pt x="245" y="-17" on="0"/>
        <pt x="73" y="247" on="0"/>
        <pt x="116" y="461" on="1"/>
        <pt x="165" y="704" on="1"/>
        <pt x="211" y="934" on="0"/>
        <pt x="469" y="1181" on="0"/>
        <pt x="645" y="1181" on="1"/>
        <pt x="806" y="1181" on="0"/>
        <pt x="978" y="916" on="0"/>
        <pt x="936" y="704" on="1"/>
      </contour>
      <contour>
        <pt x="819" y="705" on="1"/>
        <pt x="856" y="894" on="0"/>
        <pt x="752" y="1077" on="0"/>
        <pt x="624" y="1077" on="1"/>
        <pt x="507" y="1077" on="0"/>
        <pt x="317" y="880" on="0"/>
        <pt x="283" y="705" on="1"/>
        <pt x="234" y="461" on="1"/>
        <pt x="195" y="268" on="0"/>
        <pt x="299" y="86" on="0"/>
        <pt x="428" y="86" on="1"/>
        <pt x="545" y="86" on="0"/>
        <pt x="734" y="283" on="0"/>
        <pt x="770" y="461" on="1"/>
      </contour>
    </TTGlyph>
    <TTGlyph name="OE" xMin="77" yMin="-21" xMax="1662" yMax="1477">
      <contour>
        <pt x="1377" y="0" on="1"/>
        <pt x="684" y="0" on="1"/>
        <pt x="606" y="-10" on="0"/>
        <pt x="496" y="-21" on="0"/>
        <pt x="441" y="-21" on="1"/>
        <pt x="261" y="-21" on="0"/>
        <pt x="77" y="316" on="0"/>
        <pt x="129" y="576" on="1"/>
        <pt x="190" y="880" on="1"/>
        <pt x="246" y="1162" on="0"/>
        <pt x="542" y="1477" on="0"/>
        <pt x="739" y="1477" on="1"/>
        <pt x="791" y="1477" on="0"/>
        <pt x="914" y="1465" on="0"/>
        <pt x="975" y="1456" on="1"/>
        <pt x="1662" y="1456" on="1"/>
        <pt x="1641" y="1350" on="1"/>
        <pt x="1023" y="1350" on="1"/>
        <pt x="914" y="807" on="1"/>
        <pt x="1457" y="807" on="1"/>
        <pt x="1437" y="703" on="1"/>
        <pt x="893" y="703" on="1"/>
        <pt x="774" y="104" on="1"/>
        <pt x="1398" y="104" on="1"/>
      </contour>
      <contour>
        <pt x="462" y="83" on="1"/>
        <pt x="507" y="83" on="0"/>
        <pt x="607" y="90" on="0"/>
        <pt x="654" y="98" on="1"/>
        <pt x="906" y="1358" on="1"/>
        <pt x="863" y="1365" on="0"/>
        <pt x="768" y="1373" on="0"/>
        <pt x="719" y="1373" on="1"/>
        <pt x="584" y="1373" on="0"/>
        <pt x="352" y="1106" on="0"/>
        <pt x="307" y="882" on="1"/>
        <pt x="246" y="576" on="1"/>
        <pt x="197" y="334" on="0"/>
        <pt x="315" y="83" on="0"/>
      </contour>
    </TTGlyph>
    <TTGlyph name="Oacute" xMin="91" yMin="-21" xMax="1149" yMax="1844">
      <component glyphName="O" x="0" y="0" flags="0x4"/>
      <component glyphName="acute" x="467" y="366" flags="0x4"/>
    </TTGlyph>
    <TTGlyph name="Oacute.smcp" xMin="73" yMin="-17" xMax="978" yMax="1516">
      <component glyphName="O.smcp" x="0" y="0" flags="0x204"/>
      <component glyphName="acute" x="343" y="38" flags="0x4"/>
    </TTGlyph>
    <TTGlyph name="Obreve" xMin="91" yMin="-21" xMax="1149" yMax="1876">
      <component glyphName="O" x="0" y="0" flags="0x4"/>
      <component glyphName="breve" x="286" y="420" flags="0x4"/>
    </TTGlyph>
    <TTGlyph name="Obreve.smcp" xMin="73" yMin="-17" xMax="978" yMax="1548">
      <component glyphName="O.smcp" x="0" y="0" flags="0x204"/>
      <component glyphName="breve" x="162" y="92" flags="0x4"/>
    </TTGlyph>
    <TTGlyph name="Ocircumflex" xMin="91" yMin="-21" xMax="1149" yMax="1865">
      <component glyphName="O" x="0" y="0" flags="0x4"/>
      <component glyphName="circumflex" x="242" y="370" flags="0x4"/>
    </TTGlyph>
    <TTGlyph name="Ocircumflex.smcp" xMin="73" yMin="-17" xMax="978" yMax="1537">
      <component glyphName="O.smcp" x="0" y="0" flags="0x204"/>
      <component glyphName="circumflex" x="118" y="42" flags="0x4"/>
    </TTGlyph>
    <TTGlyph name="Odieresis" xMin="91" yMin="-21" xMax="1149" yMax="1819">
      <component glyphName="O" x="0" y="0" flags="0x4"/>
      <component glyphName="dieresis" x="225" y="363" flags="0x4"/>
    </TTGlyph>
    <TTGlyph name="Odieresis.smcp" xMin="73" yMin="-17" xMax="978" yMax="1491">
      <component glyphName="O.smcp" x="0" y="0" flags="0x204"/>
      <component glyphName="dieresis" x="101" y="35" flags="0x4"/>
    </TTGlyph>
    <TTGlyph name="Ograve" xMin="91" yMin="-21" xMax="1149" yMax="1848">
      <component glyphName="O" x="0" y="0" flags="0x4"/>
      <component glyphName="grave" x="310" y="372" flags="0x4"/>
    </TTGlyph>
    <TTGlyph name="Ograve.smcp" xMin="73" yMin="-17" xMax="978" yMax="1520">
      <component glyphName="O.smcp" x="0" y="0" flags="0x204"/>
      <component glyphName="grave" x="186" y="44" flags="0x4"/>
    </TTGlyph>
    <TTGlyph name="Ohorn" xMin="78" yMin="-21" xMax="1459" yMax="1627">
      <contour>
        <pt x="1001" y="523" on="1"/>
        <pt x="944" y="241" on="0"/>
        <pt x="662" y="-21" on="0"/>
        <pt x="452" y="-21" on="1"/>
        <pt x="263" y="-21" on="0"/>
        <pt x="78" y="263" on="0"/>
        <pt x="131" y="523" on="1"/>
        <pt x="212" y="931" on="1"/>
        <pt x="268" y="1213" on="0"/>
        <pt x="545" y="1477" on="0"/>
        <pt x="750" y="1477" on="1"/>
        <pt x="860" y="1477" on="0"/>
        <pt x="1024" y="1377" on="0"/>
        <pt x="1065" y="1282" on="1"/>
        <pt x="1165" y="1293" on="0"/>
        <pt x="1314" y="1473" on="0"/>
        <pt x="1345" y="1627" on="1"/>
        <pt x="1457" y="1627" on="1"/>
        <pt x="1459" y="1622" on="1"/>
        <pt x="1421" y="1420" on="0"/>
        <pt x="1235" y="1202" on="0"/>
        <pt x="1093" y="1180" on="1"/>
        <pt x="1101" y="1126" on="0"/>
        <pt x="1096" y="1001" on="0"/>
        <pt x="1082" y="931" on="1"/>
      </contour>
      <contour>
        <pt x="966" y="934" on="1"/>
        <pt x="1011" y="1164" on="0"/>
        <pt x="888" y="1368" on="0"/>
        <pt x="729" y="1368" on="1"/>
        <pt x="587" y="1368" on="0"/>
        <pt x="369" y="1145" on="0"/>
        <pt x="328" y="934" on="1"/>
        <pt x="246" y="523" on="1"/>
        <pt x="198" y="290" on="0"/>
        <pt x="317" y="86" on="0"/>
        <pt x="473" y="86" on="1"/>
        <pt x="619" y="86" on="0"/>
        <pt x="840" y="308" on="0"/>
        <pt x="884" y="523" on="1"/>
      </contour>
    </TTGlyph>
    <TTGlyph name="Ohungarumlaut" xMin="91" yMin="-21" xMax="1204" yMax="1888">
      <component glyphName="O" x="0" y="0" flags="0x4"/>
      <component glyphName="hungarumlaut" x="333" y="370" flags="0x4"/>
    </TTGlyph>
    <TTGlyph name="Ohungarumlaut.smcp" xMin="73" yMin="-17" xMax="1080" yMax="1560">
      <component glyphName="O.smcp" x="0" y="0" flags="0x204"/>
      <component glyphName="hungarumlaut" x="209" y="42" flags="0x4"/>
    </TTGlyph>
    <TTGlyph name="Omacron" xMin="91" yMin="-21" xMax="1149" yMax="1807">
      <component glyphName="O" x="0" y="0" flags="0x4"/>
      <component glyphName="macron" x="255" y="351" flags="0x4"/>
    </TTGlyph>
    <TTGlyph name="Omacron.smcp" xMin="73" yMin="-17" xMax="978" yMax="1479">
      <component glyphName="O.smcp" x="0" y="0" flags="0x204"/>
      <component glyphName="macron" x="131" y="23" flags="0x4"/>
    </TTGlyph>
    <TTGlyph name="Omega" xMin="22" yMin="0" xMax="1109" yMax="1477">
      <contour>
        <pt x="521" y="26" on="1"/>
        <pt x="532" y="80" on="1"/>
        <pt x="537" y="104" on="1"/>
        <pt x="540" y="118" on="1"/>
        <pt x="662" y="165" on="0"/>
        <pt x="858" y="464" on="0"/>
        <pt x="911" y="727" on="1"/>
        <pt x="935" y="845" on="1"/>
        <pt x="985" y="1099" on="0"/>
        <pt x="873" y="1371" on="0"/>
        <pt x="728" y="1371" on="1"/>
        <pt x="593" y="1371" on="0"/>
        <pt x="358" y="1079" on="0"/>
        <pt x="311" y="845" on="1"/>
        <pt x="287" y="727" on="1"/>
        <pt x="231" y="445" on="0"/>
        <pt x="312" y="166" on="0"/>
        <pt x="422" y="118" on="1"/>
        <pt x="419" y="104" on="1"/>
        <pt x="403" y="26" on="1"/>
        <pt x="398" y="0" on="1"/>
        <pt x="22" y="0" on="1"/>
        <pt x="43" y="104" on="1"/>
        <pt x="276" y="104" on="1"/>
        <pt x="188" y="194" on="0"/>
        <pt x="127" y="518" on="0"/>
        <pt x="169" y="727" on="1"/>
        <pt x="193" y="843" on="1"/>
        <pt x="253" y="1145" on="0"/>
        <pt x="552" y="1477" on="0"/>
        <pt x="749" y="1477" on="1"/>
        <pt x="928" y="1477" on="0"/>
        <pt x="1109" y="1121" on="0"/>
        <pt x="1054" y="843" on="1"/>
        <pt x="1030" y="727" on="1"/>
        <pt x="985" y="506" on="0"/>
        <pt x="801" y="190" on="0"/>
        <pt x="680" y="104" on="1"/>
        <pt x="911" y="104" on="1"/>
        <pt x="890" y="0" on="1"/>
        <pt x="516" y="0" on="1"/>
      </contour>
    </TTGlyph>
    <TTGlyph name="Omegatonos" xMin="42" yMin="0" xMax="1129" yMax="1618">
      <component glyphName="Omega" x="20" y="0" flags="0x4"/>
      <component glyphName="tonos" x="-86" y="0" flags="0x4"/>
    </TTGlyph>
    <TTGlyph name="Omicron" xMin="91" yMin="-21" xMax="1149" yMax="1477">
      <component glyphName="O" x="0" y="0" flags="0x4"/>
    </TTGlyph>
    <TTGlyph name="Omicrontonos" xMin="111" yMin="-21" xMax="1169" yMax="1618">
      <component glyphName="O" x="20" y="0" flags="0x4"/>
      <component glyphName="tonos" x="-102" y="0" flags="0x4"/>
    </TTGlyph>
    <TTGlyph name="Oslash" xMin="39" yMin="-85" xMax="1218" yMax="1506">
      <contour>
        <pt x="995" y="523" on="1"/>
        <pt x="938" y="241" on="0"/>
        <pt x="656" y="-21" on="0"/>
        <pt x="446" y="-21" on="1"/>
        <pt x="380" y="-21" on="0"/>
        <pt x="269" y="14" on="0"/>
        <pt x="227" y="50" on="1"/>
        <pt x="135" y="-85" on="1"/>
        <pt x="39" y="-85" on="1"/>
        <pt x="172" y="111" on="1"/>
        <pt x="124" y="181" on="0"/>
        <pt x="97" y="388" on="0"/>
        <pt x="125" y="523" on="1"/>
        <pt x="206" y="931" on="1"/>
        <pt x="262" y="1213" on="0"/>
        <pt x="539" y="1477" on="0"/>
        <pt x="744" y="1477" on="1"/>
        <pt x="831" y="1477" on="0"/>
        <pt x="971" y="1413" on="0"/>
        <pt x="1018" y="1353" on="1"/>
        <pt x="1122" y="1506" on="1"/>
        <pt x="1218" y="1506" on="1"/>
        <pt x="1061" y="1276" on="1"/>
        <pt x="1087" y="1208" on="0"/>
        <pt x="1096" y="1035" on="0"/>
        <pt x="1076" y="931" on="1"/>
      </contour>
      <contour>
        <pt x="240" y="523" on="1"/>
        <pt x="218" y="418" on="0"/>
        <pt x="219" y="266" on="0"/>
        <pt x="241" y="222" on="1"/>
        <pt x="247" y="220" on="1"/>
        <pt x="950" y="1254" on="1"/>
        <pt x="921" y="1312" on="0"/>
        <pt x="807" y="1368" on="0"/>
        <pt x="723" y="1368" on="1"/>
        <pt x="581" y="1368" on="0"/>
        <pt x="363" y="1145" on="0"/>
        <pt x="322" y="934" on="1"/>
      </contour>
      <contour>
        <pt x="960" y="934" on="1"/>
        <pt x="972" y="998" on="0"/>
        <pt x="980" y="1104" on="0"/>
        <pt x="976" y="1140" on="1"/>
        <pt x="970" y="1142" on="1"/>
        <pt x="289" y="141" on="1"/>
        <pt x="320" y="112" on="0"/>
        <pt x="409" y="86" on="0"/>
        <pt x="467" y="86" on="1"/>
        <pt x="613" y="86" on="0"/>
        <pt x="834" y="308" on="0"/>
        <pt x="878" y="523" on="1"/>
      </contour>
    </TTGlyph>
    <TTGlyph name="Oslashacute" xMin="39" yMin="-85" xMax="1218" yMax="1885">
      <component glyphName="Oslash" x="0" y="0" flags="0x204"/>
      <component glyphName="acute" x="506" y="407" flags="0x4"/>
    </TTGlyph>
    <TTGlyph name="Otilde" xMin="91" yMin="-21" xMax="1149" yMax="1865">
      <component glyphName="O" x="0" y="0" flags="0x4"/>
      <component glyphName="tilde" x="271" y="363" flags="0x4"/>
    </TTGlyph>
    <TTGlyph name="Otilde.smcp" xMin="73" yMin="-17" xMax="978" yMax="1537">
      <component glyphName="O.smcp" x="0" y="0" flags="0x204"/>
      <component glyphName="tilde" x="147" y="35" flags="0x4"/>
    </TTGlyph>
    <TTGlyph name="P" xMin="76" yMin="0" xMax="1114" yMax="1456">
      <contour>
        <pt x="314" y="603" on="1"/>
        <pt x="194" y="0" on="1"/>
        <pt x="76" y="0" on="1"/>
        <pt x="367" y="1456" on="1"/>
        <pt x="780" y="1456" on="1"/>
        <pt x="949" y="1456" on="0"/>
        <pt x="1114" y="1218" on="0"/>
        <pt x="1077" y="1030" on="1"/>
        <pt x="1035" y="824" on="0"/>
        <pt x="795" y="603" on="0"/>
        <pt x="610" y="603" on="1"/>
      </contour>
      <contour>
        <pt x="335" y="708" on="1"/>
        <pt x="631" y="708" on="1"/>
        <pt x="753" y="708" on="0"/>
        <pt x="930" y="894" on="0"/>
        <pt x="958" y="1028" on="1"/>
        <pt x="987" y="1175" on="0"/>
        <pt x="893" y="1350" on="0"/>
        <pt x="759" y="1350" on="1"/>
        <pt x="464" y="1350" on="1"/>
      </contour>
    </TTGlyph>
    <TTGlyph name="P.smcp" xMin="57" yMin="0" xMax="935" yMax="1165">
      <contour>
        <pt x="262" y="435" on="1"/>
        <pt x="175" y="0" on="1"/>
        <pt x="57" y="0" on="1"/>
        <pt x="290" y="1165" on="1"/>
        <pt x="646" y="1165" on="1"/>
        <pt x="790" y="1165" on="0"/>
        <pt x="935" y="957" on="0"/>
        <pt x="904" y="799" on="1"/>
        <pt x="869" y="627" on="0"/>
        <pt x="657" y="435" on="0"/>
        <pt x="500" y="435" on="1"/>
      </contour>
      <contour>
        <pt x="283" y="539" on="1"/>
        <pt x="521" y="539" on="1"/>
        <pt x="618" y="539" on="0"/>
        <pt x="763" y="692" on="0"/>
        <pt x="784" y="797" on="1"/>
        <pt x="807" y="915" on="0"/>
        <pt x="731" y="1061" on="0"/>
        <pt x="625" y="1061" on="1"/>
        <pt x="387" y="1061" on="1"/>
      </contour>
    </TTGlyph>
    <TTGlyph name="Phi" xMin="95" yMin="0" xMax="1209" yMax="1456">
      <contour>
        <pt x="819" y="1268" on="1"/>
        <pt x="822" y="1268" on="1"/>
        <pt x="1005" y="1268" on="0"/>
        <pt x="1209" y="957" on="0"/>
        <pt x="1164" y="731" on="1"/>
        <pt x="1114" y="483" on="0"/>
        <pt x="805" y="191" on="0"/>
        <pt x="606" y="191" on="1"/>
        <pt x="604" y="191" on="1"/>
        <pt x="566" y="0" on="1"/>
        <pt x="448" y="0" on="1"/>
        <pt x="486" y="191" on="1"/>
        <pt x="481" y="191" on="1"/>
        <pt x="298" y="191" on="0"/>
        <pt x="95" y="501" on="0"/>
        <pt x="141" y="729" on="1"/>
        <pt x="189" y="975" on="0"/>
        <pt x="497" y="1268" on="0"/>
        <pt x="697" y="1268" on="1"/>
        <pt x="701" y="1268" on="1"/>
        <pt x="739" y="1456" on="1"/>
        <pt x="857" y="1456" on="1"/>
      </contour>
      <contour>
        <pt x="676" y="1163" on="1"/>
        <pt x="531" y="1163" on="0"/>
        <pt x="295" y="918" on="0"/>
        <pt x="258" y="729" on="1"/>
        <pt x="216" y="521" on="0"/>
        <pt x="343" y="296" on="0"/>
        <pt x="502" y="296" on="1"/>
        <pt x="507" y="296" on="1"/>
        <pt x="680" y="1163" on="1"/>
      </contour>
      <contour>
        <pt x="798" y="1163" on="1"/>
        <pt x="625" y="296" on="1"/>
        <pt x="629" y="296" on="1"/>
        <pt x="772" y="296" on="0"/>
        <pt x="1007" y="540" on="0"/>
        <pt x="1046" y="731" on="1"/>
        <pt x="1087" y="935" on="0"/>
        <pt x="959" y="1163" on="0"/>
        <pt x="803" y="1163" on="1"/>
      </contour>
    </TTGlyph>
    <TTGlyph name="Pi" xMin="76" yMin="0" xMax="1220" yMax="1456">
      <contour>
        <pt x="929" y="0" on="1"/>
        <pt x="811" y="0" on="1"/>
        <pt x="1081" y="1350" on="1"/>
        <pt x="464" y="1350" on="1"/>
        <pt x="194" y="0" on="1"/>
        <pt x="76" y="0" on="1"/>
        <pt x="367" y="1456" on="1"/>
        <pt x="1220" y="1456" on="1"/>
      </contour>
    </TTGlyph>
    <TTGlyph name="Psi" xMin="148" yMin="0" xMax="1242" yMax="1456">
      <contour>
        <pt x="630" y="465" on="1"/>
        <pt x="636" y="463" on="1"/>
        <pt x="761" y="477" on="0"/>
        <pt x="975" y="711" on="0"/>
        <pt x="1012" y="895" on="1"/>
        <pt x="1124" y="1456" on="1"/>
        <pt x="1242" y="1456" on="1"/>
        <pt x="1130" y="895" on="1"/>
        <pt x="1078" y="636" on="0"/>
        <pt x="799" y="362" on="0"/>
        <pt x="606" y="347" on="1"/>
        <pt x="537" y="0" on="1"/>
        <pt x="420" y="0" on="1"/>
        <pt x="489" y="348" on="1"/>
        <pt x="319" y="368" on="0"/>
        <pt x="148" y="659" on="0"/>
        <pt x="195" y="895" on="1"/>
        <pt x="307" y="1456" on="1"/>
        <pt x="425" y="1456" on="1"/>
        <pt x="313" y="895" on="1"/>
        <pt x="272" y="694" on="0"/>
        <pt x="380" y="473" on="0"/>
        <pt x="506" y="462" on="1"/>
        <pt x="512" y="463" on="1"/>
        <pt x="711" y="1456" on="1"/>
        <pt x="828" y="1456" on="1"/>
      </contour>
    </TTGlyph>
    <TTGlyph name="Q" xMin="91" yMin="-213" xMax="1149" yMax="1477">
      <contour>
        <pt x="1048" y="603" on="1"/>
        <pt x="1012" y="424" on="0"/>
        <pt x="880" y="163" on="0"/>
        <pt x="788" y="86" on="1"/>
        <pt x="933" y="-136" on="1"/>
        <pt x="837" y="-213" on="1"/>
        <pt x="685" y="20" on="1"/>
        <pt x="640" y="0" on="0"/>
        <pt x="543" y="-21" on="0"/>
        <pt x="492" y="-21" on="1"/>
        <pt x="301" y="-21" on="0"/>
        <pt x="91" y="340" on="0"/>
        <pt x="146" y="612" on="1"/>
        <pt x="194" y="851" on="1"/>
        <pt x="254" y="1154" on="0"/>
        <pt x="534" y="1477" on="0"/>
        <pt x="738" y="1477" on="1"/>
        <pt x="933" y="1477" on="0"/>
        <pt x="1149" y="1113" on="0"/>
        <pt x="1095" y="842" on="1"/>
      </contour>
      <contour>
        <pt x="978" y="844" on="1"/>
        <pt x="1026" y="1088" on="0"/>
        <pt x="881" y="1368" on="0"/>
        <pt x="717" y="1368" on="1"/>
        <pt x="576" y="1368" on="0"/>
        <pt x="359" y="1086" on="0"/>
        <pt x="313" y="853" on="1"/>
        <pt x="264" y="612" on="1"/>
        <pt x="215" y="366" on="0"/>
        <pt x="354" y="86" on="0"/>
        <pt x="513" y="86" on="1"/>
        <pt x="659" y="86" on="0"/>
        <pt x="882" y="368" on="0"/>
        <pt x="930" y="603" on="1"/>
      </contour>
    </TTGlyph>
    <TTGlyph name="Q.smcp" xMin="73" yMin="-111" xMax="978" yMax="1181">
      <contour>
        <pt x="887" y="461" on="1"/>
        <pt x="866" y="358" on="0"/>
        <pt x="791" y="194" on="0"/>
        <pt x="740" y="135" on="1"/>
        <pt x="850" y="-35" on="1"/>
        <pt x="754" y="-111" on="1"/>
        <pt x="645" y="52" on="1"/>
        <pt x="592" y="17" on="0"/>
        <pt x="472" y="-17" on="0"/>
        <pt x="408" y="-17" on="1"/>
        <pt x="245" y="-17" on="0"/>
        <pt x="73" y="247" on="0"/>
        <pt x="116" y="461" on="1"/>
        <pt x="165" y="704" on="1"/>
        <pt x="211" y="934" on="0"/>
        <pt x="469" y="1181" on="0"/>
        <pt x="645" y="1181" on="1"/>
        <pt x="806" y="1181" on="0"/>
        <pt x="978" y="916" on="0"/>
        <pt x="936" y="704" on="1"/>
      </contour>
      <contour>
        <pt x="819" y="705" on="1"/>
        <pt x="856" y="894" on="0"/>
        <pt x="752" y="1077" on="0"/>
        <pt x="624" y="1077" on="1"/>
        <pt x="507" y="1077" on="0"/>
        <pt x="317" y="880" on="0"/>
        <pt x="283" y="705" on="1"/>
        <pt x="234" y="461" on="1"/>
        <pt x="195" y="268" on="0"/>
        <pt x="299" y="86" on="0"/>
        <pt x="428" y="86" on="1"/>
        <pt x="545" y="86" on="0"/>
        <pt x="734" y="283" on="0"/>
        <pt x="770" y="461" on="1"/>
      </contour>
    </TTGlyph>
    <TTGlyph name="R" xMin="74" yMin="0" xMax="1107" yMax="1455">
      <contour>
        <pt x="323" y="657" on="1"/>
        <pt x="192" y="0" on="1"/>
        <pt x="74" y="0" on="1"/>
        <pt x="365" y="1455" on="1"/>
        <pt x="765" y="1455" on="1"/>
        <pt x="939" y="1455" on="0"/>
        <pt x="1107" y="1245" on="0"/>
        <pt x="1069" y="1052" on="1"/>
        <pt x="1044" y="927" on="0"/>
        <pt x="903" y="751" on="0"/>
        <pt x="797" y="710" on="1"/>
        <pt x="891" y="674" on="0"/>
        <pt x="954" y="497" on="0"/>
        <pt x="930" y="371" on="1"/>
        <pt x="903" y="234" on="1"/>
        <pt x="888" y="162" on="0"/>
        <pt x="892" y="59" on="0"/>
        <pt x="915" y="24" on="1"/>
        <pt x="910" y="0" on="1"/>
        <pt x="789" y="0" on="1"/>
        <pt x="766" y="36" on="0"/>
        <pt x="770" y="163" on="0"/>
        <pt x="785" y="236" on="1"/>
        <pt x="812" y="369" on="1"/>
        <pt x="840" y="510" on="0"/>
        <pt x="745" y="657" on="0"/>
        <pt x="633" y="657" on="1"/>
      </contour>
      <contour>
        <pt x="344" y="761" on="1"/>
        <pt x="612" y="761" on="1"/>
        <pt x="747" y="761" on="0"/>
        <pt x="924" y="922" on="0"/>
        <pt x="951" y="1053" on="1"/>
        <pt x="981" y="1205" on="0"/>
        <pt x="881" y="1350" on="0"/>
        <pt x="744" y="1350" on="1"/>
        <pt x="462" y="1350" on="1"/>
      </contour>
    </TTGlyph>
    <TTGlyph name="R.smcp" xMin="57" yMin="0" xMax="936" yMax="1165">
      <contour>
        <pt x="276" y="507" on="1"/>
        <pt x="175" y="0" on="1"/>
        <pt x="57" y="0" on="1"/>
        <pt x="290" y="1165" on="1"/>
        <pt x="645" y="1165" on="1"/>
        <pt x="792" y="1165" on="0"/>
        <pt x="936" y="990" on="0"/>
        <pt x="906" y="835" on="1"/>
        <pt x="885" y="731" on="0"/>
        <pt x="779" y="596" on="0"/>
        <pt x="692" y="562" on="1"/>
        <pt x="766" y="532" on="0"/>
        <pt x="816" y="390" on="0"/>
        <pt x="796" y="290" on="1"/>
        <pt x="772" y="172" on="1"/>
        <pt x="761" y="119" on="0"/>
        <pt x="754" y="41" on="0"/>
        <pt x="761" y="19" on="1"/>
        <pt x="757" y="0" on="1"/>
        <pt x="635" y="0" on="1"/>
        <pt x="630" y="23" on="0"/>
        <pt x="644" y="117" on="0"/>
        <pt x="656" y="173" on="1"/>
        <pt x="679" y="289" on="1"/>
        <pt x="701" y="399" on="0"/>
        <pt x="629" y="507" on="0"/>
        <pt x="539" y="507" on="1"/>
      </contour>
      <contour>
        <pt x="297" y="611" on="1"/>
        <pt x="534" y="611" on="1"/>
        <pt x="636" y="611" on="0"/>
        <pt x="764" y="725" on="0"/>
        <pt x="786" y="831" on="1"/>
        <pt x="809" y="948" on="0"/>
        <pt x="735" y="1061" on="0"/>
        <pt x="624" y="1061" on="1"/>
        <pt x="387" y="1061" on="1"/>
      </contour>
    </TTGlyph>
    <TTGlyph name="Racute" xMin="74" yMin="0" xMax="1107" yMax="1823">
      <component glyphName="R" x="0" y="0" flags="0x204"/>
      <component glyphName="acute" x="423" y="345" flags="0x4"/>
    </TTGlyph>
    <TTGlyph name="Racute.smcp" xMin="57" yMin="0" xMax="936" yMax="1500">
      <component glyphName="R.smcp" x="0" y="0" flags="0x204"/>
      <component glyphName="acute" x="269" y="22" flags="0x4"/>
    </TTGlyph>
    <TTGlyph name="Rcaron" xMin="74" yMin="0" xMax="1107" yMax="1846">
      <component glyphName="R" x="0" y="0" flags="0x204"/>
      <component glyphName="caron" x="215" y="351" flags="0x4"/>
    </TTGlyph>
    <TTGlyph name="Rcaron.smcp" xMin="57" yMin="0" xMax="936" yMax="1523">
      <component glyphName="R.smcp" x="0" y="0" flags="0x204"/>
      <component glyphName="caron" x="61" y="28" flags="0x4"/>
    </TTGlyph>
    <TTGlyph name="Rcommaaccent" xMin="74" yMin="-462" xMax="1107" yMax="1455">
      <component glyphName="R" x="0" y="0" flags="0x204"/>
      <component glyphName="commaaccent" x="230" y="-309" flags="0x4"/>
    </TTGlyph>
    <TTGlyph name="Rcommaaccent.smcp" xMin="57" yMin="-462" xMax="936" yMax="1165">
      <component glyphName="R.smcp" x="0" y="0" flags="0x204"/>
      <component glyphName="commaaccent" x="140" y="-309" flags="0x4"/>
    </TTGlyph>
    <TTGlyph name="Rho" xMin="76" yMin="0" xMax="1114" yMax="1456">
      <component glyphName="P" x="0" y="0" flags="0x204"/>
    </TTGlyph>
    <TTGlyph name="S" xMin="74" yMin="-21" xMax="1050" yMax="1477">
      <contour>
        <pt x="791" y="318" on="1"/>
        <pt x="817" y="451" on="0"/>
        <pt x="717" y="598" on="0"/>
        <pt x="558" y="674" on="1"/>
        <pt x="381" y="750" on="0"/>
        <pt x="233" y="947" on="0"/>
        <pt x="271" y="1135" on="1"/>
        <pt x="303" y="1300" on="0"/>
        <pt x="530" y="1477" on="0"/>
        <pt x="687" y="1477" on="1"/>
        <pt x="861" y="1477" on="0"/>
        <pt x="1050" y="1241" on="0"/>
        <pt x="1009" y="1036" on="1"/>
        <pt x="890" y="1036" on="1"/>
        <pt x="920" y="1190" on="0"/>
        <pt x="799" y="1371" on="0"/>
        <pt x="666" y="1371" on="1"/>
        <pt x="568" y="1371" on="0"/>
        <pt x="409" y="1233" on="0"/>
        <pt x="390" y="1137" on="1"/>
        <pt x="363" y="1001" on="0"/>
        <pt x="455" y="858" on="0"/>
        <pt x="618" y="781" on="1"/>
        <pt x="796" y="704" on="0"/>
        <pt x="946" y="502" on="0"/>
        <pt x="910" y="320" on="1"/>
        <pt x="876" y="150" on="0"/>
        <pt x="640" y="-21" on="0"/>
        <pt x="474" y="-21" on="1"/>
        <pt x="301" y="-21" on="0"/>
        <pt x="74" y="191" on="0"/>
        <pt x="122" y="414" on="1"/>
        <pt x="125" y="419" on="1"/>
        <pt x="237" y="419" on="1"/>
        <pt x="199" y="230" on="0"/>
        <pt x="360" y="83" on="0"/>
        <pt x="495" y="83" on="1"/>
        <pt x="596" y="83" on="0"/>
        <pt x="771" y="220" on="0"/>
      </contour>
    </TTGlyph>
    <TTGlyph name="S.smcp" xMin="38" yMin="-17" xMax="922" yMax="1181">
      <contour>
        <pt x="676" y="291" on="1"/>
        <pt x="694" y="381" on="0"/>
        <pt x="610" y="477" on="0"/>
        <pt x="475" y="529" on="1"/>
        <pt x="315" y="585" on="0"/>
        <pt x="185" y="730" on="0"/>
        <pt x="213" y="872" on="1"/>
        <pt x="243" y="1022" on="0"/>
        <pt x="457" y="1181" on="0"/>
        <pt x="618" y="1181" on="1"/>
        <pt x="768" y="1181" on="0"/>
        <pt x="922" y="994" on="0"/>
        <pt x="890" y="828" on="1"/>
        <pt x="772" y="828" on="1"/>
        <pt x="795" y="945" on="0"/>
        <pt x="705" y="1077" on="0"/>
        <pt x="597" y="1077" on="1"/>
        <pt x="493" y="1077" on="0"/>
        <pt x="349" y="958" on="0"/>
        <pt x="333" y="873" on="1"/>
        <pt x="314" y="781" on="0"/>
        <pt x="390" y="687" on="0"/>
        <pt x="534" y="635" on="1"/>
        <pt x="692" y="578" on="0"/>
        <pt x="822" y="431" on="0"/>
        <pt x="794" y="292" on="1"/>
        <pt x="763" y="137" on="0"/>
        <pt x="540" y="-17" on="0"/>
        <pt x="370" y="-17" on="1"/>
        <pt x="223" y="-17" on="0"/>
        <pt x="38" y="152" on="0"/>
        <pt x="78" y="331" on="1"/>
        <pt x="80" y="336" on="1"/>
        <pt x="192" y="336" on="1"/>
        <pt x="164" y="195" on="0"/>
        <pt x="282" y="86" on="0"/>
        <pt x="390" y="86" on="1"/>
        <pt x="497" y="86" on="0"/>
        <pt x="659" y="205" on="0"/>
      </contour>
    </TTGlyph>
    <TTGlyph name="Sacute" xMin="74" yMin="-21" xMax="1050" yMax="1844">
      <component glyphName="S" x="0" y="0" flags="0x4"/>
      <component glyphName="acute" x="428" y="366" flags="0x4"/>
    </TTGlyph>
    <TTGlyph name="Sacute.smcp" xMin="38" yMin="-17" xMax="922" yMax="1516">
      <component glyphName="S.smcp" x="0" y="0" flags="0x204"/>
      <component glyphName="acute" x="315" y="38" flags="0x4"/>
    </TTGlyph>
    <TTGlyph name="Scaron" xMin="74" yMin="-21" xMax="1050" yMax="1867">
      <component glyphName="S" x="0" y="0" flags="0x4"/>
      <component glyphName="caron" x="220" y="372" flags="0x4"/>
    </TTGlyph>
    <TTGlyph name="Scaron.smcp" xMin="38" yMin="-17" xMax="922" yMax="1539">
      <component glyphName="S.smcp" x="0" y="0" flags="0x204"/>
      <component glyphName="caron" x="107" y="44" flags="0x4"/>
    </TTGlyph>
    <TTGlyph name="Scedilla" xMin="74" yMin="-441" xMax="1050" yMax="1477">
      <component glyphName="S" x="0" y="0" flags="0x4"/>
      <component glyphName="cedilla" x="323" y="-8" flags="0x4"/>
    </TTGlyph>
    <TTGlyph name="Scedilla.smcp" xMin="38" yMin="-438" xMax="922" yMax="1181">
      <component glyphName="S.smcp" x="0" y="0" flags="0x204"/>
      <component glyphName="cedilla" x="277" y="-5" flags="0x4"/>
    </TTGlyph>
    <TTGlyph name="Scircumflex" xMin="74" yMin="-21" xMax="1050" yMax="1865">
      <component glyphName="S" x="0" y="0" flags="0x4"/>
      <component glyphName="circumflex" x="203" y="370" flags="0x4"/>
    </TTGlyph>
    <TTGlyph name="Scircumflex.smcp" xMin="38" yMin="-17" xMax="922" yMax="1537">
      <component glyphName="S.smcp" x="0" y="0" flags="0x204"/>
      <component glyphName="circumflex" x="90" y="42" flags="0x4"/>
    </TTGlyph>
    <TTGlyph name="Sigma" xMin="-19" yMin="0" xMax="1030" yMax="1456">
      <contour>
        <pt x="649" y="741" on="1"/>
        <pt x="138" y="109" on="1"/>
        <pt x="141" y="104" on="1"/>
        <pt x="802" y="104" on="1"/>
        <pt x="781" y="0" on="1"/>
        <pt x="-19" y="0" on="1"/>
        <pt x="0" y="95" on="1"/>
        <pt x="527" y="757" on="1"/>
        <pt x="253" y="1360" on="1"/>
        <pt x="272" y="1456" on="1"/>
        <pt x="1030" y="1456" on="1"/>
        <pt x="1009" y="1351" on="1"/>
        <pt x="389" y="1351" on="1"/>
        <pt x="656" y="776" on="1"/>
      </contour>
    </TTGlyph>
    <TTGlyph name="T" xMin="231" yMin="0" xMax="1140" yMax="1456">
      <contour>
        <pt x="1119" y="1350" on="1"/>
        <pt x="733" y="1350" on="1"/>
        <pt x="463" y="0" on="1"/>
        <pt x="346" y="0" on="1"/>
        <pt x="616" y="1350" on="1"/>
        <pt x="231" y="1350" on="1"/>
        <pt x="252" y="1456" on="1"/>
        <pt x="1140" y="1456" on="1"/>
      </contour>
    </TTGlyph>
    <TTGlyph name="T.smcp" xMin="197" yMin="0" xMax="927" yMax="1165">
      <contour>
        <pt x="906" y="1061" on="1"/>
        <pt x="606" y="1061" on="1"/>
        <pt x="394" y="0" on="1"/>
        <pt x="276" y="0" on="1"/>
        <pt x="488" y="1061" on="1"/>
        <pt x="197" y="1061" on="1"/>
        <pt x="218" y="1165" on="1"/>
        <pt x="927" y="1165" on="1"/>
      </contour>
    </TTGlyph>
    <TTGlyph name="Tau" xMin="231" yMin="0" xMax="1140" yMax="1456">
      <component glyphName="T" x="0" y="0" flags="0x204"/>
    </TTGlyph>
    <TTGlyph name="Tbar" xMin="231" yMin="0" xMax="1140" yMax="1456">
      <contour>
        <pt x="810" y="833" on="1"/>
        <pt x="629" y="833" on="1"/>
        <pt x="463" y="0" on="1"/>
        <pt x="346" y="0" on="1"/>
        <pt x="512" y="833" on="1"/>
        <pt x="319" y="833" on="1"/>
        <pt x="340" y="937" on="1"/>
        <pt x="533" y="937" on="1"/>
        <pt x="616" y="1350" on="1"/>
        <pt x="231" y="1350" on="1"/>
        <pt x="252" y="1456" on="1"/>
        <pt x="1140" y="1456" on="1"/>
        <pt x="1119" y="1350" on="1"/>
        <pt x="733" y="1350" on="1"/>
        <pt x="650" y="937" on="1"/>
        <pt x="831" y="937" on="1"/>
      </contour>
    </TTGlyph>
    <TTGlyph name="Tbar.smcp" xMin="197" yMin="0" xMax="927" yMax="1165">
      <contour>
        <pt x="706" y="656" on="1"/>
        <pt x="525" y="656" on="1"/>
        <pt x="394" y="0" on="1"/>
        <pt x="276" y="0" on="1"/>
        <pt x="407" y="656" on="1"/>
        <pt x="215" y="656" on="1"/>
        <pt x="236" y="760" on="1"/>
        <pt x="428" y="760" on="1"/>
        <pt x="488" y="1061" on="1"/>
        <pt x="197" y="1061" on="1"/>
        <pt x="218" y="1165" on="1"/>
        <pt x="927" y="1165" on="1"/>
        <pt x="906" y="1061" on="1"/>
        <pt x="606" y="1061" on="1"/>
        <pt x="546" y="760" on="1"/>
        <pt x="727" y="760" on="1"/>
      </contour>
    </TTGlyph>
    <TTGlyph name="Tcaron" xMin="231" yMin="0" xMax="1140" yMax="1841">
      <component glyphName="T" x="0" y="0" flags="0x204"/>
      <component glyphName="caron" x="206" y="346" flags="0x4"/>
    </TTGlyph>
    <TTGlyph name="Tcaron.smcp" xMin="197" yMin="0" xMax="927" yMax="1519">
      <component glyphName="T.smcp" x="0" y="0" flags="0x204"/>
      <component glyphName="caron" x="70" y="24" flags="0x4"/>
    </TTGlyph>
    <TTGlyph name="Tcommaaccent.smcp" xMin="146" yMin="-462" xMax="927" yMax="1165">
      <component glyphName="T.smcp" x="0" y="0" flags="0x204"/>
      <component glyphName="commaaccent" x="150" y="-309" flags="0x4"/>
    </TTGlyph>
    <TTGlyph name="Theta" xMin="91" yMin="-21" xMax="1149" yMax="1477">
      <contour>
        <pt x="824" y="675" on="1"/>
        <pt x="401" y="675" on="1"/>
        <pt x="422" y="779" on="1"/>
        <pt x="845" y="779" on="1"/>
      </contour>
      <contour>
        <pt x="1048" y="603" on="1"/>
        <pt x="987" y="301" on="0"/>
        <pt x="700" y="-21" on="0"/>
        <pt x="492" y="-21" on="1"/>
        <pt x="301" y="-21" on="0"/>
        <pt x="91" y="340" on="0"/>
        <pt x="146" y="612" on="1"/>
        <pt x="194" y="851" on="1"/>
        <pt x="254" y="1154" on="0"/>
        <pt x="534" y="1477" on="0"/>
        <pt x="738" y="1477" on="1"/>
        <pt x="933" y="1477" on="0"/>
        <pt x="1149" y="1113" on="0"/>
        <pt x="1095" y="842" on="1"/>
      </contour>
      <contour>
        <pt x="978" y="844" on="1"/>
        <pt x="1026" y="1088" on="0"/>
        <pt x="881" y="1368" on="0"/>
        <pt x="717" y="1368" on="1"/>
        <pt x="576" y="1368" on="0"/>
        <pt x="359" y="1086" on="0"/>
        <pt x="313" y="853" on="1"/>
        <pt x="264" y="612" on="1"/>
        <pt x="215" y="366" on="0"/>
        <pt x="354" y="86" on="0"/>
        <pt x="513" y="86" on="1"/>
        <pt x="659" y="86" on="0"/>
        <pt x="882" y="368" on="0"/>
        <pt x="930" y="603" on="1"/>
      </contour>
    </TTGlyph>
    <TTGlyph name="Thorn" xMin="67" yMin="0" xMax="984" yMax="1456">
      <contour>
        <pt x="476" y="1456" on="1"/>
        <pt x="415" y="1153" on="1"/>
        <pt x="655" y="1153" on="1"/>
        <pt x="820" y="1153" on="0"/>
        <pt x="984" y="917" on="0"/>
        <pt x="949" y="738" on="1"/>
        <pt x="909" y="541" on="0"/>
        <pt x="670" y="323" on="0"/>
        <pt x="489" y="323" on="1"/>
        <pt x="249" y="323" on="1"/>
        <pt x="185" y="0" on="1"/>
        <pt x="67" y="0" on="1"/>
        <pt x="358" y="1456" on="1"/>
      </contour>
      <contour>
        <pt x="394" y="1048" on="1"/>
        <pt x="270" y="427" on="1"/>
        <pt x="509" y="427" on="1"/>
        <pt x="628" y="427" on="0"/>
        <pt x="804" y="613" on="0"/>
        <pt x="829" y="736" on="1"/>
        <pt x="856" y="872" on="0"/>
        <pt x="764" y="1048" on="0"/>
        <pt x="634" y="1048" on="1"/>
      </contour>
    </TTGlyph>
    <TTGlyph name="U" xMin="93" yMin="-21" xMax="1149" yMax="1456">
      <contour>
        <pt x="1149" y="1456" on="1"/>
        <pt x="945" y="437" on="1"/>
        <pt x="898" y="199" on="0"/>
        <pt x="632" y="-21" on="0"/>
        <pt x="445" y="-21" on="1"/>
        <pt x="277" y="-21" on="0"/>
        <pt x="93" y="218" on="0"/>
        <pt x="137" y="437" on="1"/>
        <pt x="341" y="1456" on="1"/>
        <pt x="456" y="1456" on="1"/>
        <pt x="252" y="437" on="1"/>
        <pt x="215" y="254" on="0"/>
        <pt x="336" y="83" on="0"/>
        <pt x="466" y="83" on="1"/>
        <pt x="591" y="83" on="0"/>
        <pt x="793" y="261" on="0"/>
        <pt x="828" y="437" on="1"/>
        <pt x="1032" y="1456" on="1"/>
      </contour>
    </TTGlyph>
    <TTGlyph name="U.smcp" xMin="86" yMin="-17" xMax="1050" yMax="1165">
      <contour>
        <pt x="1050" y="1165" on="1"/>
        <pt x="896" y="394" on="1"/>
        <pt x="854" y="188" on="0"/>
        <pt x="604" y="-17" on="0"/>
        <pt x="429" y="-17" on="1"/>
        <pt x="269" y="-17" on="0"/>
        <pt x="86" y="204" on="0"/>
        <pt x="125" y="394" on="1"/>
        <pt x="279" y="1165" on="1"/>
        <pt x="397" y="1165" on="1"/>
        <pt x="243" y="394" on="1"/>
        <pt x="212" y="242" on="0"/>
        <pt x="328" y="86" on="0"/>
        <pt x="449" y="86" on="1"/>
        <pt x="560" y="86" on="0"/>
        <pt x="749" y="254" on="0"/>
        <pt x="778" y="394" on="1"/>
        <pt x="932" y="1165" on="1"/>
      </contour>
    </TTGlyph>
    <TTGlyph name="Uacute" xMin="93" yMin="-21" xMax="1149" yMax="1823">
      <component glyphName="U" x="0" y="0" flags="0x204"/>
      <component glyphName="acute" x="466" y="345" flags="0x4"/>
    </TTGlyph>
    <TTGlyph name="Uacute.smcp" xMin="86" yMin="-17" xMax="1050" yMax="1501">
      <component glyphName="U.smcp" x="0" y="0" flags="0x204"/>
      <component glyphName="acute" x="370" y="23" flags="0x4"/>
    </TTGlyph>
    <TTGlyph name="Ubreve" xMin="93" yMin="-21" xMax="1149" yMax="1855">
      <component glyphName="U" x="0" y="0" flags="0x204"/>
      <component glyphName="breve" x="285" y="399" flags="0x4"/>
    </TTGlyph>
    <TTGlyph name="Ubreve.smcp" xMin="86" yMin="-17" xMax="1050" yMax="1533">
      <component glyphName="U.smcp" x="0" y="0" flags="0x204"/>
      <component glyphName="breve" x="189" y="77" flags="0x4"/>
    </TTGlyph>
    <TTGlyph name="Ucircumflex" xMin="93" yMin="-21" xMax="1149" yMax="1844">
      <component glyphName="U" x="0" y="0" flags="0x204"/>
      <component glyphName="circumflex" x="241" y="349" flags="0x4"/>
    </TTGlyph>
    <TTGlyph name="Ucircumflex.smcp" xMin="86" yMin="-17" xMax="1050" yMax="1522">
      <component glyphName="U.smcp" x="0" y="0" flags="0x204"/>
      <component glyphName="circumflex" x="145" y="27" flags="0x4"/>
    </TTGlyph>
    <TTGlyph name="Udieresis" xMin="93" yMin="-21" xMax="1149" yMax="1798">
      <component glyphName="U" x="0" y="0" flags="0x204"/>
      <component glyphName="dieresis" x="224" y="342" flags="0x4"/>
    </TTGlyph>
    <TTGlyph name="Udieresis.smcp" xMin="86" yMin="-17" xMax="1050" yMax="1476">
      <component glyphName="U.smcp" x="0" y="0" flags="0x204"/>
      <component glyphName="dieresis" x="128" y="20" flags="0x4"/>
    </TTGlyph>
    <TTGlyph name="Ugrave" xMin="93" yMin="-21" xMax="1149" yMax="1827">
      <component glyphName="U" x="0" y="0" flags="0x204"/>
      <component glyphName="grave" x="309" y="351" flags="0x4"/>
    </TTGlyph>
    <TTGlyph name="Ugrave.smcp" xMin="86" yMin="-17" xMax="1050" yMax="1505">
      <component glyphName="U.smcp" x="0" y="0" flags="0x204"/>
      <component glyphName="grave" x="213" y="29" flags="0x4"/>
    </TTGlyph>
    <TTGlyph name="Uhorn" xMin="93" yMin="-21" xMax="1507" yMax="1590">
      <contour>
        <pt x="1149" y="1456" on="1"/>
        <pt x="1107" y="1250" on="1"/>
        <pt x="1113" y="1248" on="1"/>
        <pt x="1211" y="1257" on="0"/>
        <pt x="1362" y="1438" on="0"/>
        <pt x="1393" y="1590" on="1"/>
        <pt x="1504" y="1590" on="1"/>
        <pt x="1507" y="1584" on="1"/>
        <pt x="1467" y="1371" on="0"/>
        <pt x="1252" y="1153" on="0"/>
        <pt x="1085" y="1140" on="1"/>
        <pt x="945" y="437" on="1"/>
        <pt x="898" y="199" on="0"/>
        <pt x="632" y="-21" on="0"/>
        <pt x="445" y="-21" on="1"/>
        <pt x="277" y="-21" on="0"/>
        <pt x="93" y="218" on="0"/>
        <pt x="137" y="437" on="1"/>
        <pt x="341" y="1456" on="1"/>
        <pt x="456" y="1456" on="1"/>
        <pt x="252" y="437" on="1"/>
        <pt x="215" y="254" on="0"/>
        <pt x="336" y="83" on="0"/>
        <pt x="466" y="83" on="1"/>
        <pt x="591" y="83" on="0"/>
        <pt x="793" y="261" on="0"/>
        <pt x="828" y="437" on="1"/>
        <pt x="1032" y="1456" on="1"/>
      </contour>
    </TTGlyph>
    <TTGlyph name="Uhungarumlaut" xMin="93" yMin="-21" xMax="1203" yMax="1867">
      <component glyphName="U" x="0" y="0" flags="0x204"/>
      <component glyphName="hungarumlaut" x="332" y="349" flags="0x4"/>
    </TTGlyph>
    <TTGlyph name="Uhungarumlaut.smcp" xMin="86" yMin="-17" xMax="1107" yMax="1545">
      <component glyphName="U.smcp" x="0" y="0" flags="0x204"/>
      <component glyphName="hungarumlaut" x="236" y="27" flags="0x4"/>
    </TTGlyph>
    <TTGlyph name="Umacron" xMin="93" yMin="-21" xMax="1149" yMax="1786">
      <component glyphName="U" x="0" y="0" flags="0x204"/>
      <component glyphName="macron" x="254" y="330" flags="0x4"/>
    </TTGlyph>
    <TTGlyph name="Umacron.smcp" xMin="86" yMin="-17" xMax="1050" yMax="1464">
      <component glyphName="U.smcp" x="0" y="0" flags="0x204"/>
      <component glyphName="macron" x="158" y="8" flags="0x4"/>
    </TTGlyph>
    <TTGlyph name="Uogonek" xMin="93" yMin="-394" xMax="1149" yMax="1456">
      <component glyphName="U" x="0" y="0" flags="0x204"/>
      <component glyphName="ogonek" x="466" y="0" flags="0x4"/>
    </TTGlyph>
    <TTGlyph name="Uogonek.smcp" xMin="86" yMin="-394" xMax="1050" yMax="1165">
      <component glyphName="U.smcp" x="0" y="0" flags="0x204"/>
      <component glyphName="ogonek" x="446" y="0" flags="0x4"/>
    </TTGlyph>
    <TTGlyph name="Upsilon" xMin="245" yMin="0" xMax="1183" yMax="1456">
      <component glyphName="Y" x="0" y="0" flags="0x204"/>
    </TTGlyph>
    <TTGlyph name="Upsilondieresis" xMin="245" yMin="0" xMax="1183" yMax="1791">
      <component glyphName="Y" x="0" y="0" flags="0x204"/>
      <component glyphName="dieresis" x="189" y="335" flags="0x4"/>
    </TTGlyph>
    <TTGlyph name="Upsilontonos" xMin="121" yMin="0" xMax="1283" yMax="1618">
      <component glyphName="Y" x="100" y="0" flags="0x4"/>
      <component glyphName="tonos" x="-216" y="0" flags="0x4"/>
    </TTGlyph>
    <TTGlyph name="Uring" xMin="93" yMin="-21" xMax="1149" yMax="1899">
      <component glyphName="U" x="0" y="0" flags="0x204"/>
      <component glyphName="ring" x="326" y="408" flags="0x4"/>
    </TTGlyph>
    <TTGlyph name="Uring.smcp" xMin="86" yMin="-17" xMax="1050" yMax="1577">
      <component glyphName="U.smcp" x="0" y="0" flags="0x204"/>
      <component glyphName="ring" x="230" y="86" flags="0x4"/>
    </TTGlyph>
    <TTGlyph name="Utilde" xMin="93" yMin="-21" xMax="1149" yMax="1844">
      <component glyphName="U" x="0" y="0" flags="0x204"/>
      <component glyphName="tilde" x="270" y="342" flags="0x4"/>
    </TTGlyph>
    <TTGlyph name="Utilde.smcp" xMin="86" yMin="-17" xMax="1050" yMax="1522">
      <component glyphName="U.smcp" x="0" y="0" flags="0x204"/>
      <component glyphName="tilde" x="174" y="20" flags="0x4"/>
    </TTGlyph>
    <TTGlyph name="V" xMin="202" yMin="0" xMax="1162" yMax="1456">
      <contour>
        <pt x="464" y="252" on="1"/>
        <pt x="473" y="166" on="1"/>
        <pt x="479" y="165" on="1"/>
        <pt x="516" y="252" on="1"/>
        <pt x="1035" y="1456" on="1"/>
        <pt x="1162" y="1456" on="1"/>
        <pt x="502" y="0" on="1"/>
        <pt x="396" y="0" on="1"/>
        <pt x="202" y="1456" on="1"/>
        <pt x="329" y="1456" on="1"/>
      </contour>
    </TTGlyph>
    <TTGlyph name="V.smcp" xMin="202" yMin="0" xMax="1055" yMax="1165">
      <contour>
        <pt x="418" y="212" on="1"/>
        <pt x="421" y="146" on="1"/>
        <pt x="427" y="145" on="1"/>
        <pt x="458" y="211" on="1"/>
        <pt x="928" y="1165" on="1"/>
        <pt x="1055" y="1165" on="1"/>
        <pt x="452" y="0" on="1"/>
        <pt x="339" y="0" on="1"/>
        <pt x="202" y="1165" on="1"/>
        <pt x="330" y="1165" on="1"/>
      </contour>
    </TTGlyph>
    <TTGlyph name="W" xMin="222" yMin="0" xMax="1565" yMax="1456">
      <contour>
        <pt x="370" y="417" on="1"/>
        <pt x="368" y="225" on="1"/>
        <pt x="374" y="224" on="1"/>
        <pt x="443" y="417" on="1"/>
        <pt x="839" y="1456" on="1"/>
        <pt x="947" y="1456" on="1"/>
        <pt x="1013" y="417" on="1"/>
        <pt x="1018" y="223" on="1"/>
        <pt x="1024" y="222" on="1"/>
        <pt x="1087" y="417" on="1"/>
        <pt x="1446" y="1456" on="1"/>
        <pt x="1565" y="1456" on="1"/>
        <pt x="1044" y="0" on="1"/>
        <pt x="935" y="0" on="1"/>
        <pt x="868" y="1111" on="1"/>
        <pt x="863" y="1241" on="1"/>
        <pt x="857" y="1242" on="1"/>
        <pt x="812" y="1111" on="1"/>
        <pt x="384" y="0" on="1"/>
        <pt x="276" y="0" on="1"/>
        <pt x="222" y="1456" on="1"/>
        <pt x="340" y="1456" on="1"/>
      </contour>
    </TTGlyph>
    <TTGlyph name="W.smcp" xMin="218" yMin="0" xMax="1323" yMax="1165">
      <contour>
        <pt x="330" y="277" on="1"/>
        <pt x="325" y="205" on="1"/>
        <pt x="331" y="204" on="1"/>
        <pt x="356" y="279" on="1"/>
        <pt x="715" y="1165" on="1"/>
        <pt x="828" y="1165" on="1"/>
        <pt x="832" y="277" on="1"/>
        <pt x="826" y="199" on="1"/>
        <pt x="832" y="198" on="1"/>
        <pt x="860" y="279" on="1"/>
        <pt x="1196" y="1165" on="1"/>
        <pt x="1323" y="1165" on="1"/>
        <pt x="848" y="0" on="1"/>
        <pt x="738" y="0" on="1"/>
        <pt x="727" y="915" on="1"/>
        <pt x="728" y="933" on="1"/>
        <pt x="722" y="934" on="1"/>
        <pt x="716" y="915" on="1"/>
        <pt x="338" y="0" on="1"/>
        <pt x="226" y="0" on="1"/>
        <pt x="218" y="1165" on="1"/>
        <pt x="344" y="1165" on="1"/>
      </contour>
    </TTGlyph>
    <TTGlyph name="Wacute" xMin="222" yMin="0" xMax="1565" yMax="1823">
      <component glyphName="W" x="0" y="0" flags="0x204"/>
      <component glyphName="acute" x="605" y="345" flags="0x4"/>
    </TTGlyph>
    <TTGlyph name="Wcircumflex" xMin="222" yMin="0" xMax="1565" yMax="1844">
      <component glyphName="W" x="0" y="0" flags="0x204"/>
      <component glyphName="circumflex" x="380" y="349" flags="0x4"/>
    </TTGlyph>
    <TTGlyph name="Wcircumflex.smcp" xMin="218" yMin="0" xMax="1323" yMax="1521">
      <component glyphName="W.smcp" x="0" y="0" flags="0x204"/>
      <component glyphName="circumflex" x="250" y="26" flags="0x4"/>
    </TTGlyph>
    <TTGlyph name="Wdieresis" xMin="222" yMin="0" xMax="1565" yMax="1798">
      <component glyphName="W" x="0" y="0" flags="0x204"/>
      <component glyphName="dieresis" x="363" y="342" flags="0x4"/>
    </TTGlyph>
    <TTGlyph name="Wgrave" xMin="222" yMin="0" xMax="1565" yMax="1827">
      <component glyphName="W" x="0" y="0" flags="0x204"/>
      <component glyphName="grave" x="448" y="351" flags="0x4"/>
    </TTGlyph>
    <TTGlyph name="X" xMin="-8" yMin="0" xMax="1124" yMax="1456">
      <contour>
        <pt x="579" y="843" on="1"/>
        <pt x="585" y="842" on="1"/>
        <pt x="982" y="1456" on="1"/>
        <pt x="1124" y="1456" on="1"/>
        <pt x="634" y="738" on="1"/>
        <pt x="903" y="0" on="1"/>
        <pt x="762" y="0" on="1"/>
        <pt x="553" y="632" on="1"/>
        <pt x="547" y="633" on="1"/>
        <pt x="135" y="0" on="1"/>
        <pt x="-8" y="0" on="1"/>
        <pt x="497" y="738" on="1"/>
        <pt x="236" y="1456" on="1"/>
        <pt x="378" y="1456" on="1"/>
      </contour>
    </TTGlyph>
    <TTGlyph name="X.smcp" xMin="-26" yMin="0" xMax="999" yMax="1165">
      <contour>
        <pt x="511" y="687" on="1"/>
        <pt x="859" y="1165" on="1"/>
        <pt x="999" y="1165" on="1"/>
        <pt x="564" y="590" on="1"/>
        <pt x="775" y="0" on="1"/>
        <pt x="637" y="0" on="1"/>
        <pt x="473" y="491" on="1"/>
        <pt x="116" y="0" on="1"/>
        <pt x="-26" y="0" on="1"/>
        <pt x="423" y="590" on="1"/>
        <pt x="217" y="1165" on="1"/>
        <pt x="357" y="1165" on="1"/>
      </contour>
    </TTGlyph>
    <TTGlyph name="Xi" xMin="23" yMin="0" xMax="1029" yMax="1456">
      <contour>
        <pt x="44" y="104" on="1"/>
        <pt x="774" y="104" on="1"/>
        <pt x="753" y="0" on="1"/>
        <pt x="23" y="0" on="1"/>
      </contour>
      <contour>
        <pt x="252" y="786" on="1"/>
        <pt x="832" y="786" on="1"/>
        <pt x="811" y="682" on="1"/>
        <pt x="231" y="682" on="1"/>
      </contour>
      <contour>
        <pt x="320" y="1456" on="1"/>
        <pt x="1029" y="1456" on="1"/>
        <pt x="1008" y="1351" on="1"/>
        <pt x="299" y="1351" on="1"/>
      </contour>
    </TTGlyph>
    <TTGlyph name="Y" xMin="245" yMin="0" xMax="1183" yMax="1456">
      <contour>
        <pt x="558" y="692" on="1"/>
        <pt x="564" y="691" on="1"/>
        <pt x="1048" y="1456" on="1"/>
        <pt x="1183" y="1456" on="1"/>
        <pt x="587" y="532" on="1"/>
        <pt x="480" y="0" on="1"/>
        <pt x="363" y="0" on="1"/>
        <pt x="471" y="541" on="1"/>
        <pt x="245" y="1456" on="1"/>
        <pt x="381" y="1456" on="1"/>
      </contour>
    </TTGlyph>
    <TTGlyph name="Y.smcp" xMin="193" yMin="0" xMax="999" yMax="1165">
      <contour>
        <pt x="473" y="567" on="1"/>
        <pt x="479" y="566" on="1"/>
        <pt x="864" y="1165" on="1"/>
        <pt x="999" y="1165" on="1"/>
        <pt x="505" y="424" on="1"/>
        <pt x="420" y="0" on="1"/>
        <pt x="301" y="0" on="1"/>
        <pt x="387" y="429" on="1"/>
        <pt x="193" y="1165" on="1"/>
        <pt x="326" y="1165" on="1"/>
      </contour>
    </TTGlyph>
    <TTGlyph name="Yacute" xMin="245" yMin="0" xMax="1183" yMax="1816">
      <component glyphName="Y" x="0" y="0" flags="0x204"/>
      <component glyphName="acute" x="431" y="338" flags="0x4"/>
    </TTGlyph>
    <TTGlyph name="Yacute.smcp" xMin="193" yMin="0" xMax="999" yMax="1495">
      <component glyphName="Y.smcp" x="0" y="0" flags="0x204"/>
      <component glyphName="acute" x="301" y="17" flags="0x4"/>
    </TTGlyph>
    <TTGlyph name="Ycircumflex" xMin="245" yMin="0" xMax="1183" yMax="1837">
      <component glyphName="Y" x="0" y="0" flags="0x204"/>
      <component glyphName="circumflex" x="206" y="342" flags="0x4"/>
    </TTGlyph>
    <TTGlyph name="Ycircumflex.smcp" xMin="193" yMin="0" xMax="999" yMax="1516">
      <component glyphName="Y.smcp" x="0" y="0" flags="0x204"/>
      <component glyphName="circumflex" x="76" y="21" flags="0x4"/>
    </TTGlyph>
    <TTGlyph name="Ydieresis" xMin="245" yMin="0" xMax="1183" yMax="1791">
      <component glyphName="Y" x="0" y="0" flags="0x204"/>
      <component glyphName="dieresis" x="189" y="335" flags="0x4"/>
    </TTGlyph>
    <TTGlyph name="Ydieresis.smcp" xMin="193" yMin="0" xMax="999" yMax="1470">
      <component glyphName="Y.smcp" x="0" y="0" flags="0x204"/>
      <component glyphName="dieresis" x="59" y="14" flags="0x4"/>
    </TTGlyph>
    <TTGlyph name="Ygrave" xMin="245" yMin="0" xMax="1183" yMax="1820">
      <component glyphName="Y" x="0" y="0" flags="0x204"/>
      <component glyphName="grave" x="274" y="344" flags="0x4"/>
    </TTGlyph>
    <TTGlyph name="Z" xMin="16" yMin="0" xMax="984" yMax="1456">
      <contour>
        <pt x="155" y="104" on="1"/>
        <pt x="787" y="104" on="1"/>
        <pt x="766" y="0" on="1"/>
        <pt x="16" y="0" on="1"/>
        <pt x="23" y="95" on="1"/>
        <pt x="828" y="1351" on="1"/>
        <pt x="257" y="1351" on="1"/>
        <pt x="278" y="1456" on="1"/>
        <pt x="984" y="1456" on="1"/>
        <pt x="966" y="1366" on="1"/>
      </contour>
    </TTGlyph>
    <TTGlyph name="Z.smcp" xMin="-11" yMin="0" xMax="920" yMax="1165">
      <contour>
        <pt x="146" y="102" on="1"/>
        <pt x="726" y="102" on="1"/>
        <pt x="706" y="0" on="1"/>
        <pt x="-11" y="0" on="1"/>
        <pt x="5" y="82" on="1"/>
        <pt x="760" y="1061" on="1"/>
        <pt x="228" y="1061" on="1"/>
        <pt x="249" y="1165" on="1"/>
        <pt x="920" y="1165" on="1"/>
        <pt x="904" y="1087" on="1"/>
      </contour>
    </TTGlyph>
    <TTGlyph name="Zacute" xMin="16" yMin="0" xMax="991" yMax="1823">
      <component glyphName="Z" x="0" y="0" flags="0x4"/>
      <component glyphName="acute" x="399" y="345" flags="0x4"/>
    </TTGlyph>
    <TTGlyph name="Zacute.smcp" xMin="-11" yMin="0" xMax="920" yMax="1500">
      <component glyphName="Z.smcp" x="0" y="0" flags="0x204"/>
      <component glyphName="acute" x="277" y="22" flags="0x4"/>
    </TTGlyph>
    <TTGlyph name="Zcaron" xMin="16" yMin="0" xMax="992" yMax="1846">
      <component glyphName="Z" x="0" y="0" flags="0x4"/>
      <component glyphName="caron" x="191" y="351" flags="0x4"/>
    </TTGlyph>
    <TTGlyph name="Zcaron.smcp" xMin="-11" yMin="0" xMax="920" yMax="1523">
      <component glyphName="Z.smcp" x="0" y="0" flags="0x204"/>
      <component glyphName="caron" x="69" y="28" flags="0x4"/>
    </TTGlyph>
    <TTGlyph name="Zdotaccent" xMin="16" yMin="0" xMax="984" yMax="1805">
      <component glyphName="Z" x="0" y="0" flags="0x4"/>
      <component glyphName="dotaccent" x="335" y="349" flags="0x4"/>
    </TTGlyph>
    <TTGlyph name="Zdotaccent.smcp" xMin="-11" yMin="0" xMax="920" yMax="1482">
      <component glyphName="Z.smcp" x="0" y="0" flags="0x204"/>
      <component glyphName="dotaccent" x="213" y="26" flags="0x4"/>
    </TTGlyph>
    <TTGlyph name="Zeta" xMin="16" yMin="0" xMax="984" yMax="1456">
      <component glyphName="Z" x="0" y="0" flags="0x4"/>
    </TTGlyph>
    <TTGlyph name="a" xMin="44" yMin="-21" xMax="867" yMax="1102">
      <contour>
        <pt x="583" y="0" on="1"/>
        <pt x="585" y="53" on="0"/>
        <pt x="592" y="126" on="0"/>
        <pt x="599" y="164" on="1"/>
        <pt x="538" y="84" on="0"/>
        <pt x="368" y="-21" on="0"/>
        <pt x="277" y="-21" on="1"/>
        <pt x="157" y="-21" on="0"/>
        <pt x="44" y="150" on="0"/>
        <pt x="72" y="288" on="1"/>
        <pt x="103" y="448" on="0"/>
        <pt x="337" y="618" on="0"/>
        <pt x="512" y="618" on="1"/>
        <pt x="689" y="618" on="1"/>
        <pt x="716" y="751" on="1"/>
        <pt x="740" y="873" on="0"/>
        <pt x="658" y="996" on="0"/>
        <pt x="558" y="996" on="1"/>
        <pt x="473" y="996" on="0"/>
        <pt x="324" y="871" on="0"/>
        <pt x="307" y="782" on="1"/>
        <pt x="199" y="783" on="1"/>
        <pt x="197" y="789" on="1"/>
        <pt x="218" y="919" on="0"/>
        <pt x="437" y="1102" on="0"/>
        <pt x="585" y="1102" on="1"/>
        <pt x="719" y="1102" on="0"/>
        <pt x="867" y="916" on="0"/>
        <pt x="834" y="749" on="1"/>
        <pt x="728" y="218" on="1"/>
        <pt x="715" y="158" on="0"/>
        <pt x="704" y="54" on="0"/>
        <pt x="706" y="0" on="1"/>
      </contour>
      <contour>
        <pt x="313" y="87" on="1"/>
        <pt x="401" y="87" on="0"/>
        <pt x="576" y="205" on="0"/>
        <pt x="625" y="293" on="1"/>
        <pt x="671" y="525" on="1"/>
        <pt x="490" y="525" on="1"/>
        <pt x="382" y="525" on="0"/>
        <pt x="208" y="384" on="0"/>
        <pt x="189" y="284" on="1"/>
        <pt x="170" y="192" on="0"/>
        <pt x="234" y="87" on="0"/>
      </contour>
    </TTGlyph>
    <TTGlyph name="aacute" xMin="44" yMin="-21" xMax="898" yMax="1501">
      <component glyphName="a" x="0" y="0" flags="0x204"/>
      <component glyphName="acute" x="306" y="23" flags="0x4"/>
    </TTGlyph>
    <TTGlyph name="abreve" xMin="44" yMin="-21" xMax="896" yMax="1533">
      <component glyphName="a" x="0" y="0" flags="0x204"/>
      <component glyphName="breve" x="125" y="77" flags="0x4"/>
    </TTGlyph>
    <TTGlyph name="acircumflex" xMin="44" yMin="-21" xMax="867" yMax="1522">
      <component glyphName="a" x="0" y="0" flags="0x204"/>
      <component glyphName="circumflex" x="81" y="27" flags="0x4"/>
    </TTGlyph>
    <TTGlyph name="acute" xMin="239" yMin="1212" xMax="592" yMax="1478">
      <contour>
        <pt x="447" y="1478" on="1"/>
        <pt x="589" y="1478" on="1"/>
        <pt x="592" y="1472" on="1"/>
        <pt x="339" y="1212" on="1"/>
        <pt x="239" y="1212" on="1"/>
      </contour>
    </TTGlyph>
    <TTGlyph name="acutecomb" xMin="-321" yMin="1215" xMax="-37" yMax="1534">
      <contour>
        <pt x="-151" y="1534" on="1"/>
        <pt x="-37" y="1534" on="1"/>
        <pt x="-242" y="1215" on="1"/>
        <pt x="-321" y="1215" on="1"/>
      </contour>
    </TTGlyph>
    <TTGlyph name="adieresis" xMin="44" yMin="-21" xMax="925" yMax="1476">
      <component glyphName="a" x="0" y="0" flags="0x204"/>
      <component glyphName="dieresis" x="64" y="20" flags="0x4"/>
    </TTGlyph>
    <TTGlyph name="ae" xMin="13" yMin="-21" xMax="1407" yMax="1102">
      <contour>
        <pt x="921" y="-21" on="1"/>
        <pt x="820" y="-21" on="0"/>
        <pt x="677" y="88" on="0"/>
        <pt x="645" y="187" on="1"/>
        <pt x="587" y="101" on="0"/>
        <pt x="387" y="-21" on="0"/>
        <pt x="259" y="-21" on="1"/>
        <pt x="134" y="-21" on="0"/>
        <pt x="13" y="151" on="0"/>
        <pt x="42" y="294" on="1"/>
        <pt x="75" y="462" on="0"/>
        <pt x="286" y="632" on="0"/>
        <pt x="459" y="632" on="1"/>
        <pt x="656" y="632" on="1"/>
        <pt x="674" y="720" on="1"/>
        <pt x="702" y="860" on="0"/>
        <pt x="638" y="996" on="0"/>
        <pt x="547" y="996" on="1"/>
        <pt x="456" y="996" on="0"/>
        <pt x="310" y="862" on="0"/>
        <pt x="291" y="764" on="1"/>
        <pt x="185" y="777" on="1"/>
        <pt x="183" y="783" on="1"/>
        <pt x="208" y="930" on="0"/>
        <pt x="417" y="1102" on="0"/>
        <pt x="568" y="1102" on="1"/>
        <pt x="654" y="1102" on="0"/>
        <pt x="776" y="1007" on="0"/>
        <pt x="796" y="919" on="1"/>
        <pt x="862" y="1007" on="0"/>
        <pt x="1028" y="1102" on="0"/>
        <pt x="1117" y="1102" on="1"/>
        <pt x="1269" y="1102" on="0"/>
        <pt x="1407" y="849" on="0"/>
        <pt x="1364" y="636" on="1"/>
        <pt x="1344" y="535" on="1"/>
        <pt x="761" y="535" on="1"/>
        <pt x="756" y="510" on="1"/>
        <pt x="715" y="308" on="0"/>
        <pt x="803" y="83" on="0"/>
        <pt x="942" y="83" on="1"/>
        <pt x="1019" y="83" on="0"/>
        <pt x="1160" y="149" on="0"/>
        <pt x="1218" y="201" on="1"/>
        <pt x="1243" y="111" on="1"/>
        <pt x="1195" y="59" on="0"/>
        <pt x="1032" y="-21" on="0"/>
      </contour>
      <contour>
        <pt x="301" y="82" on="1"/>
        <pt x="367" y="82" on="0"/>
        <pt x="533" y="182" on="0"/>
        <pt x="578" y="241" on="1"/>
        <pt x="636" y="533" on="1"/>
        <pt x="441" y="533" on="1"/>
        <pt x="337" y="533" on="0"/>
        <pt x="180" y="390" on="0"/>
        <pt x="160" y="290" on="1"/>
        <pt x="139" y="187" on="0"/>
        <pt x="209" y="82" on="0"/>
      </contour>
      <contour>
        <pt x="1096" y="996" on="1"/>
        <pt x="1001" y="996" on="0"/>
        <pt x="830" y="793" on="0"/>
        <pt x="789" y="641" on="1"/>
        <pt x="791" y="636" on="1"/>
        <pt x="1246" y="636" on="1"/>
        <pt x="1252" y="667" on="1"/>
        <pt x="1283" y="821" on="0"/>
        <pt x="1210" y="996" on="0"/>
      </contour>
    </TTGlyph>
    <TTGlyph name="aeacute" xMin="13" yMin="-21" xMax="1407" yMax="1502">
      <component glyphName="ae" x="0" y="0" flags="0x204"/>
      <component glyphName="acute" x="552" y="24" flags="0x4"/>
    </TTGlyph>
    <TTGlyph name="agrave" xMin="44" yMin="-21" xMax="867" yMax="1505">
      <component glyphName="a" x="0" y="0" flags="0x204"/>
      <component glyphName="grave" x="149" y="29" flags="0x4"/>
    </TTGlyph>
    <TTGlyph name="alpha" xMin="67" yMin="-21" xMax="927" yMax="1102">
      <contour>
        <pt x="927" y="1082" on="1"/>
        <pt x="766" y="275" on="1"/>
        <pt x="743" y="166" on="0"/>
        <pt x="765" y="90" on="0"/>
        <pt x="800" y="90" on="1"/>
        <pt x="807" y="90" on="0"/>
        <pt x="823" y="93" on="0"/>
        <pt x="835" y="97" on="1"/>
        <pt x="833" y="3" on="1"/>
        <pt x="809" y="-10" on="0"/>
        <pt x="765" y="-21" on="0"/>
        <pt x="741" y="-21" on="1"/>
        <pt x="685" y="-21" on="0"/>
        <pt x="627" y="63" on="0"/>
        <pt x="631" y="153" on="1"/>
        <pt x="572" y="69" on="0"/>
        <pt x="423" y="-21" on="0"/>
        <pt x="337" y="-21" on="1"/>
        <pt x="192" y="-21" on="0"/>
        <pt x="67" y="273" on="0"/>
        <pt x="114" y="510" on="1"/>
        <pt x="118" y="531" on="1"/>
        <pt x="173" y="807" on="0"/>
        <pt x="403" y="1102" on="0"/>
        <pt x="562" y="1102" on="1"/>
        <pt x="643" y="1102" on="0"/>
        <pt x="753" y="1004" on="0"/>
        <pt x="780" y="914" on="1"/>
        <pt x="827" y="1082" on="1"/>
      </contour>
      <contour>
        <pt x="234" y="510" on="1"/>
        <pt x="192" y="302" on="0"/>
        <pt x="262" y="83" on="0"/>
        <pt x="384" y="83" on="1"/>
        <pt x="461" y="83" on="0"/>
        <pt x="596" y="199" on="0"/>
        <pt x="652" y="299" on="1"/>
        <pt x="745" y="765" on="1"/>
        <pt x="732" y="869" on="0"/>
        <pt x="648" y="996" on="0"/>
        <pt x="568" y="996" on="1"/>
        <pt x="456" y="996" on="0"/>
        <pt x="278" y="733" on="0"/>
        <pt x="238" y="531" on="1"/>
      </contour>
    </TTGlyph>
    <TTGlyph name="alpha.alt" xMin="67" yMin="-21" xMax="1002" yMax="1102">
      <contour>
        <pt x="696" y="266" on="1"/>
        <pt x="691" y="269" on="1"/>
        <pt x="629" y="135" on="0"/>
        <pt x="448" y="-21" on="0"/>
        <pt x="337" y="-21" on="1"/>
        <pt x="192" y="-21" on="0"/>
        <pt x="67" y="273" on="0"/>
        <pt x="114" y="510" on="1"/>
        <pt x="118" y="531" on="1"/>
        <pt x="173" y="807" on="0"/>
        <pt x="403" y="1102" on="0"/>
        <pt x="562" y="1102" on="1"/>
        <pt x="664" y="1102" on="0"/>
        <pt x="785" y="943" on="0"/>
        <pt x="800" y="805" on="1"/>
        <pt x="887" y="1082" on="1"/>
        <pt x="1002" y="1082" on="1"/>
        <pt x="814" y="540" on="1"/>
        <pt x="791" y="0" on="1"/>
        <pt x="677" y="0" on="1"/>
      </contour>
      <contour>
        <pt x="234" y="510" on="1"/>
        <pt x="192" y="302" on="0"/>
        <pt x="262" y="83" on="0"/>
        <pt x="384" y="83" on="1"/>
        <pt x="474" y="83" on="0"/>
        <pt x="647" y="315" on="0"/>
        <pt x="706" y="495" on="1"/>
        <pt x="721" y="572" on="1"/>
        <pt x="735" y="744" on="0"/>
        <pt x="669" y="996" on="0"/>
        <pt x="568" y="996" on="1"/>
        <pt x="456" y="996" on="0"/>
        <pt x="278" y="733" on="0"/>
        <pt x="238" y="531" on="1"/>
      </contour>
    </TTGlyph>
    <TTGlyph name="alphatonos" xMin="67" yMin="-21" xMax="927" yMax="1582">
      <component glyphName="alpha" x="0" y="0" flags="0x204"/>
      <component glyphName="tonos" x="285" y="-36" flags="0x4"/>
    </TTGlyph>
    <TTGlyph name="amacron" xMin="44" yMin="-21" xMax="934" yMax="1464">
      <component glyphName="a" x="0" y="0" flags="0x204"/>
      <component glyphName="macron" x="94" y="8" flags="0x4"/>
    </TTGlyph>
    <TTGlyph name="ampersand" xMin="43" yMin="-21" xMax="1027" yMax="1477">
      <contour>
        <pt x="387" y="790" on="1"/>
        <pt x="333" y="893" on="0"/>
        <pt x="292" y="1058" on="0"/>
        <pt x="307" y="1145" on="1"/>
        <pt x="334" y="1310" on="0"/>
        <pt x="511" y="1477" on="0"/>
        <pt x="645" y="1477" on="1"/>
        <pt x="764" y="1477" on="0"/>
        <pt x="892" y="1312" on="0"/>
        <pt x="873" y="1191" on="1"/>
        <pt x="857" y="1095" on="0"/>
        <pt x="759" y="970" on="0"/>
        <pt x="672" y="904" on="1"/>
        <pt x="528" y="788" on="1"/>
        <pt x="781" y="326" on="1"/>
        <pt x="787" y="327" on="1"/>
        <pt x="833" y="392" on="0"/>
        <pt x="901" y="558" on="0"/>
        <pt x="917" y="652" on="1"/>
        <pt x="1027" y="652" on="1"/>
        <pt x="1005" y="520" on="0"/>
        <pt x="910" y="310" on="0"/>
        <pt x="836" y="224" on="1"/>
        <pt x="959" y="0" on="1"/>
        <pt x="815" y="0" on="1"/>
        <pt x="744" y="130" on="1"/>
        <pt x="663" y="57" on="0"/>
        <pt x="484" y="-21" on="0"/>
        <pt x="391" y="-21" on="1"/>
        <pt x="222" y="-21" on="0"/>
        <pt x="43" y="196" on="0"/>
        <pt x="72" y="372" on="1"/>
        <pt x="92" y="498" on="0"/>
        <pt x="243" y="683" on="0"/>
        <pt x="381" y="785" on="1"/>
      </contour>
      <contour>
        <pt x="407" y="83" on="1"/>
        <pt x="477" y="83" on="0"/>
        <pt x="628" y="153" on="0"/>
        <pt x="696" y="218" on="1"/>
        <pt x="437" y="699" on="1"/>
        <pt x="431" y="709" on="1"/>
        <pt x="392" y="678" on="1"/>
        <pt x="287" y="585" on="0"/>
        <pt x="201" y="436" on="0"/>
        <pt x="192" y="372" on="1"/>
        <pt x="171" y="243" on="0"/>
        <pt x="278" y="83" on="0"/>
      </contour>
      <contour>
        <pt x="429" y="1147" on="1"/>
        <pt x="418" y="1081" on="0"/>
        <pt x="446" y="945" on="0"/>
        <pt x="485" y="868" on="1"/>
        <pt x="641" y="993" on="1"/>
        <pt x="696" y="1037" on="0"/>
        <pt x="751" y="1135" on="0"/>
        <pt x="761" y="1191" on="1"/>
        <pt x="773" y="1271" on="0"/>
        <pt x="703" y="1371" on="0"/>
        <pt x="628" y="1371" on="1"/>
        <pt x="552" y="1371" on="0"/>
        <pt x="443" y="1241" on="0"/>
      </contour>
    </TTGlyph>
    <TTGlyph name="anoteleia" xMin="183" yMin="624" xMax="354" yMax="805">
      <component glyphName="periodcentered" x="0" y="0" flags="0x204"/>
    </TTGlyph>
    <TTGlyph name="aogonek" xMin="44" yMin="-394" xMax="867" yMax="1102">
      <component glyphName="a" x="0" y="0" flags="0x204"/>
      <component glyphName="ogonek" x="477" y="0" flags="0x4"/>
    </TTGlyph>
    <TTGlyph name="approxequal" xMin="81" yMin="331" xMax="945" yMax="1002">
      <contour>
        <pt x="188" y="855" on="1"/>
        <pt x="238" y="923" on="0"/>
        <pt x="351" y="1001" on="0"/>
        <pt x="403" y="1001" on="1"/>
        <pt x="457" y="1002" on="0"/>
        <pt x="503" y="978" on="0"/>
        <pt x="573" y="928" on="1"/>
        <pt x="635" y="881" on="0"/>
        <pt x="679" y="857" on="0"/>
        <pt x="731" y="857" on="1"/>
        <pt x="777" y="857" on="0"/>
        <pt x="893" y="936" on="0"/>
        <pt x="940" y="1001" on="1"/>
        <pt x="945" y="998" on="1"/>
        <pt x="929" y="885" on="1"/>
        <pt x="878" y="816" on="0"/>
        <pt x="765" y="739" on="0"/>
        <pt x="714" y="739" on="1"/>
        <pt x="666" y="739" on="0"/>
        <pt x="609" y="768" on="0"/>
        <pt x="556" y="808" on="1"/>
        <pt x="478" y="863" on="0"/>
        <pt x="439" y="884" on="0"/>
        <pt x="385" y="883" on="1"/>
        <pt x="337" y="883" on="0"/>
        <pt x="222" y="803" on="0"/>
        <pt x="176" y="739" on="1"/>
        <pt x="171" y="742" on="1"/>
      </contour>
      <contour>
        <pt x="98" y="447" on="1"/>
        <pt x="149" y="516" on="0"/>
        <pt x="262" y="593" on="0"/>
        <pt x="314" y="593" on="1"/>
        <pt x="368" y="594" on="0"/>
        <pt x="413" y="570" on="0"/>
        <pt x="483" y="520" on="1"/>
        <pt x="547" y="471" on="0"/>
        <pt x="590" y="448" on="0"/>
        <pt x="642" y="448" on="1"/>
        <pt x="688" y="448" on="0"/>
        <pt x="804" y="528" on="0"/>
        <pt x="850" y="593" on="1"/>
        <pt x="855" y="590" on="1"/>
        <pt x="839" y="477" on="1"/>
        <pt x="787" y="407" on="0"/>
        <pt x="674" y="331" on="0"/>
        <pt x="623" y="331" on="1"/>
        <pt x="576" y="331" on="0"/>
        <pt x="522" y="359" on="0"/>
        <pt x="466" y="400" on="1"/>
        <pt x="389" y="454" on="0"/>
        <pt x="349" y="476" on="0"/>
        <pt x="294" y="475" on="1"/>
        <pt x="247" y="475" on="0"/>
        <pt x="132" y="395" on="0"/>
        <pt x="86" y="331" on="1"/>
        <pt x="81" y="334" on="1"/>
      </contour>
    </TTGlyph>
    <TTGlyph name="aring" xMin="44" yMin="-21" xMax="867" yMax="1577">
      <component glyphName="a" x="0" y="0" flags="0x204"/>
      <component glyphName="ring" x="166" y="86" flags="0x4"/>
    </TTGlyph>
    <TTGlyph name="aringacute" xMin="44" yMin="-21" xMax="929" yMax="1760">
      <component glyphName="a" x="0" y="0" flags="0x204"/>
      <component glyphName="ringacute" x="187" y="72" flags="0x4"/>
    </TTGlyph>
    <TTGlyph name="asciicircum" xMin="130" yMin="729" xMax="686" yMax="1456">
      <contour>
        <pt x="243" y="729" on="1"/>
        <pt x="130" y="729" on="1"/>
        <pt x="511" y="1456" on="1"/>
        <pt x="596" y="1456" on="1"/>
        <pt x="686" y="729" on="1"/>
        <pt x="575" y="729" on="1"/>
        <pt x="525" y="1210" on="1"/>
        <pt x="523" y="1293" on="1"/>
        <pt x="517" y="1295" on="1"/>
        <pt x="482" y="1210" on="1"/>
      </contour>
    </TTGlyph>
    <TTGlyph name="asciitilde" xMin="129" yMin="421" xMax="1056" yMax="788">
      <contour>
        <pt x="1056" y="740" on="1"/>
        <pt x="1034" y="606" on="0"/>
        <pt x="874" y="421" on="0"/>
        <pt x="776" y="421" on="1"/>
        <pt x="708" y="421" on="0"/>
        <pt x="602" y="493" on="0"/>
        <pt x="544" y="571" on="1"/>
        <pt x="505" y="624" on="0"/>
        <pt x="431" y="678" on="0"/>
        <pt x="388" y="678" on="1"/>
        <pt x="332" y="678" on="0"/>
        <pt x="230" y="556" on="0"/>
        <pt x="215" y="458" on="1"/>
        <pt x="129" y="474" on="1"/>
        <pt x="150" y="611" on="0"/>
        <pt x="305" y="788" on="0"/>
        <pt x="406" y="788" on="1"/>
        <pt x="472" y="788" on="0"/>
        <pt x="583" y="711" on="0"/>
        <pt x="637" y="639" on="1"/>
        <pt x="676" y="582" on="0"/>
        <pt x="749" y="531" on="0"/>
        <pt x="794" y="531" on="1"/>
        <pt x="848" y="531" on="0"/>
        <pt x="951" y="659" on="0"/>
        <pt x="967" y="755" on="1"/>
      </contour>
    </TTGlyph>
    <TTGlyph name="asterisk" xMin="174" yMin="635" xMax="853" yMax="1456">
      <contour>
        <pt x="418" y="999" on="1"/>
        <pt x="174" y="1105" on="1"/>
        <pt x="226" y="1209" on="1"/>
        <pt x="467" y="1087" on="1"/>
        <pt x="537" y="1456" on="1"/>
        <pt x="638" y="1456" on="1"/>
        <pt x="557" y="1084" on="1"/>
        <pt x="844" y="1210" on="1"/>
        <pt x="853" y="1106" on="1"/>
        <pt x="561" y="992" on="1"/>
        <pt x="682" y="699" on="1"/>
        <pt x="585" y="635" on="1"/>
        <pt x="478" y="939" on="1"/>
        <pt x="254" y="637" on="1"/>
        <pt x="184" y="700" on="1"/>
      </contour>
    </TTGlyph>
    <TTGlyph name="at" xMin="25" yMin="-453" xMax="1578" yMax="1421">
      <contour>
        <pt x="1481" y="512" on="1"/>
        <pt x="1431" y="295" on="0"/>
        <pt x="1188" y="-21" on="0"/>
        <pt x="1013" y="-21" on="1"/>
        <pt x="952" y="-21" on="0"/>
        <pt x="881" y="79" on="0"/>
        <pt x="883" y="168" on="1"/>
        <pt x="820" y="73" on="0"/>
        <pt x="675" y="-21" on="0"/>
        <pt x="592" y="-21" on="1"/>
        <pt x="492" y="-21" on="0"/>
        <pt x="421" y="223" on="0"/>
        <pt x="474" y="416" on="1"/>
        <pt x="544" y="670" on="0"/>
        <pt x="800" y="978" on="0"/>
        <pt x="939" y="978" on="1"/>
        <pt x="1014" y="978" on="0"/>
        <pt x="1111" y="922" on="0"/>
        <pt x="1156" y="870" on="1"/>
        <pt x="1154" y="868" on="1"/>
        <pt x="1157" y="868" on="1"/>
        <pt x="1000" y="293" on="1"/>
        <pt x="966" y="161" on="0"/>
        <pt x="1008" y="65" on="0"/>
        <pt x="1051" y="73" on="1"/>
        <pt x="1057" y="72" on="1"/>
        <pt x="1159" y="67" on="0"/>
        <pt x="1348" y="319" on="0"/>
        <pt x="1395" y="512" on="1"/>
        <pt x="1488" y="900" on="0"/>
        <pt x="1299" y="1332" on="0"/>
        <pt x="1004" y="1332" on="1"/>
        <pt x="757" y="1332" on="0"/>
        <pt x="309" y="855" on="0"/>
        <pt x="220" y="478" on="1"/>
        <pt x="128" y="99" on="0"/>
        <pt x="330" y="-366" on="0"/>
        <pt x="604" y="-366" on="1"/>
        <pt x="672" y="-366" on="0"/>
        <pt x="836" y="-322" on="0"/>
        <pt x="895" y="-287" on="1"/>
        <pt x="906" y="-364" on="1"/>
        <pt x="844" y="-405" on="0"/>
        <pt x="663" y="-453" on="0"/>
        <pt x="583" y="-453" on="1"/>
        <pt x="287" y="-453" on="0"/>
        <pt x="25" y="55" on="0"/>
        <pt x="125" y="478" on="1"/>
        <pt x="224" y="902" on="0"/>
        <pt x="714" y="1421" on="0"/>
        <pt x="1026" y="1421" on="1"/>
        <pt x="1327" y="1421" on="0"/>
        <pt x="1578" y="926" on="0"/>
      </contour>
      <contour>
        <pt x="583" y="416" on="1"/>
        <pt x="541" y="261" on="0"/>
        <pt x="569" y="79" on="0"/>
        <pt x="643" y="79" on="1"/>
        <pt x="705" y="79" on="0"/>
        <pt x="831" y="158" on="0"/>
        <pt x="894" y="260" on="1"/>
        <pt x="902" y="293" on="1"/>
        <pt x="1052" y="841" on="1"/>
        <pt x="1031" y="861" on="0"/>
        <pt x="975" y="885" on="0"/>
        <pt x="940" y="885" on="1"/>
        <pt x="837" y="885" on="0"/>
        <pt x="646" y="645" on="0"/>
      </contour>
    </TTGlyph>
    <TTGlyph name="atilde" xMin="44" yMin="-21" xMax="915" yMax="1522">
      <component glyphName="a" x="0" y="0" flags="0x204"/>
      <component glyphName="tilde" x="110" y="20" flags="0x4"/>
    </TTGlyph>
    <TTGlyph name="b" xMin="49" yMin="-21" xMax="906" yMax="1560">
      <contour>
        <pt x="852" y="495" on="1"/>
        <pt x="800" y="236" on="0"/>
        <pt x="592" y="-21" on="0"/>
        <pt x="435" y="-21" on="1"/>
        <pt x="354" y="-21" on="0"/>
        <pt x="227" y="74" on="0"/>
        <pt x="193" y="155" on="1"/>
        <pt x="150" y="0" on="1"/>
        <pt x="49" y="0" on="1"/>
        <pt x="361" y="1560" on="1"/>
        <pt x="479" y="1560" on="1"/>
        <pt x="358" y="959" on="1"/>
        <pt x="363" y="955" on="1"/>
        <pt x="412" y="1024" on="0"/>
        <pt x="547" y="1102" on="0"/>
        <pt x="627" y="1102" on="1"/>
        <pt x="773" y="1102" on="0"/>
        <pt x="906" y="769" on="0"/>
        <pt x="856" y="516" on="1"/>
      </contour>
      <contour>
        <pt x="737" y="516" on="1"/>
        <pt x="780" y="733" on="0"/>
        <pt x="701" y="994" on="0"/>
        <pt x="579" y="994" on="1"/>
        <pt x="499" y="994" on="0"/>
        <pt x="370" y="870" on="0"/>
        <pt x="321" y="773" on="1"/>
        <pt x="219" y="262" on="1"/>
        <pt x="236" y="181" on="0"/>
        <pt x="343" y="86" on="0"/>
        <pt x="431" y="86" on="1"/>
        <pt x="540" y="86" on="0"/>
        <pt x="694" y="304" on="0"/>
        <pt x="733" y="495" on="1"/>
      </contour>
    </TTGlyph>
    <TTGlyph name="backslash" xMin="255" yMin="-125" xMax="533" yMax="1456">
      <contour>
        <pt x="255" y="1456" on="1"/>
        <pt x="368" y="1456" on="1"/>
        <pt x="533" y="-125" on="1"/>
        <pt x="418" y="-125" on="1"/>
      </contour>
    </TTGlyph>
    <TTGlyph name="bar" xMin="40" yMin="-270" xMax="413" yMax="1456">
      <contour>
        <pt x="137" y="-270" on="1"/>
        <pt x="40" y="-270" on="1"/>
        <pt x="316" y="1456" on="1"/>
        <pt x="413" y="1456" on="1"/>
      </contour>
    </TTGlyph>
    <TTGlyph name="beta" xMin="-18" yMin="-398" xMax="982" yMax="1477">
      <contour>
        <pt x="697" y="1477" on="1"/>
        <pt x="835" y="1477" on="0"/>
        <pt x="982" y="1258" on="0"/>
        <pt x="949" y="1092" on="1"/>
        <pt x="927" y="985" on="0"/>
        <pt x="811" y="821" on="0"/>
        <pt x="727" y="779" on="1"/>
        <pt x="820" y="737" on="0"/>
        <pt x="900" y="536" on="0"/>
        <pt x="874" y="405" on="1"/>
        <pt x="831" y="192" on="0"/>
        <pt x="595" y="-21" on="0"/>
        <pt x="433" y="-21" on="1"/>
        <pt x="365" y="-21" on="0"/>
        <pt x="238" y="37" on="0"/>
        <pt x="200" y="94" on="1"/>
        <pt x="101" y="-398" on="1"/>
        <pt x="-18" y="-398" on="1"/>
        <pt x="275" y="1063" on="1"/>
        <pt x="312" y="1249" on="0"/>
        <pt x="553" y="1477" on="0"/>
      </contour>
      <contour>
        <pt x="493" y="825" on="1"/>
        <pt x="564" y="825" on="1"/>
        <pt x="666" y="825" on="0"/>
        <pt x="807" y="971" on="0"/>
        <pt x="832" y="1097" on="1"/>
        <pt x="855" y="1215" on="0"/>
        <pt x="777" y="1371" on="0"/>
        <pt x="676" y="1371" on="1"/>
        <pt x="588" y="1371" on="0"/>
        <pt x="419" y="1193" on="0"/>
        <pt x="394" y="1063" on="1"/>
        <pt x="224" y="217" on="1"/>
        <pt x="247" y="153" on="0"/>
        <pt x="362" y="83" on="0"/>
        <pt x="443" y="83" on="1"/>
        <pt x="552" y="83" on="0"/>
        <pt x="725" y="258" on="0"/>
        <pt x="754" y="401" on="1"/>
        <pt x="783" y="548" on="0"/>
        <pt x="697" y="720" on="0"/>
        <pt x="585" y="720" on="1"/>
        <pt x="472" y="720" on="1"/>
        <pt x="486" y="789" on="1"/>
        <pt x="489" y="804" on="1"/>
      </contour>
    </TTGlyph>
    <TTGlyph name="braceleft" xMin="83" yMin="-396" xMax="712" yMax="1590">
      <contour>
        <pt x="383" y="-396" on="1"/>
        <pt x="377" y="-395" on="1"/>
        <pt x="239" y="-345" on="0"/>
        <pt x="153" y="-109" on="0"/>
        <pt x="181" y="60" on="1"/>
        <pt x="217" y="285" on="1"/>
        <pt x="237" y="411" on="0"/>
        <pt x="173" y="543" on="0"/>
        <pt x="83" y="543" on="1"/>
        <pt x="96" y="626" on="1"/>
        <pt x="100" y="649" on="1"/>
        <pt x="186" y="649" on="0"/>
        <pt x="296" y="784" on="0"/>
        <pt x="316" y="905" on="1"/>
        <pt x="352" y="1132" on="1"/>
        <pt x="380" y="1309" on="0"/>
        <pt x="540" y="1540" on="0"/>
        <pt x="695" y="1590" on="1"/>
        <pt x="701" y="1590" on="1"/>
        <pt x="712" y="1515" on="1"/>
        <pt x="610" y="1475" on="0"/>
        <pt x="494" y="1276" on="0"/>
        <pt x="471" y="1132" on="1"/>
        <pt x="435" y="905" on="1"/>
        <pt x="416" y="789" on="0"/>
        <pt x="315" y="629" on="0"/>
        <pt x="232" y="593" on="1"/>
        <pt x="300" y="553" on="0"/>
        <pt x="352" y="391" on="0"/>
        <pt x="336" y="285" on="1"/>
        <pt x="300" y="60" on="1"/>
        <pt x="275" y="-88" on="0"/>
        <pt x="329" y="-278" on="0"/>
        <pt x="420" y="-320" on="1"/>
      </contour>
    </TTGlyph>
    <TTGlyph name="braceright" xMin="-96" yMin="-396" xMax="534" yMax="1590">
      <contour>
        <pt x="-96" y="-320" on="1"/>
        <pt x="5" y="-278" on="0"/>
        <pt x="124" y="-82" on="0"/>
        <pt x="147" y="60" on="1"/>
        <pt x="183" y="285" on="1"/>
        <pt x="201" y="401" on="0"/>
        <pt x="304" y="562" on="0"/>
        <pt x="392" y="597" on="1"/>
        <pt x="318" y="633" on="0"/>
        <pt x="264" y="795" on="0"/>
        <pt x="282" y="905" on="1"/>
        <pt x="318" y="1132" on="1"/>
        <pt x="341" y="1281" on="0"/>
        <pt x="287" y="1474" on="0"/>
        <pt x="198" y="1515" on="1"/>
        <pt x="234" y="1590" on="1"/>
        <pt x="240" y="1590" on="1"/>
        <pt x="376" y="1540" on="0"/>
        <pt x="462" y="1303" on="0"/>
        <pt x="435" y="1132" on="1"/>
        <pt x="399" y="905" on="1"/>
        <pt x="378" y="778" on="0"/>
        <pt x="443" y="649" on="0"/>
        <pt x="534" y="649" on="1"/>
        <pt x="521" y="570" on="1"/>
        <pt x="517" y="543" on="1"/>
        <pt x="430" y="543" on="0"/>
        <pt x="319" y="405" on="0"/>
        <pt x="300" y="285" on="1"/>
        <pt x="264" y="60" on="1"/>
        <pt x="235" y="-115" on="0"/>
        <pt x="75" y="-345" on="0"/>
        <pt x="-78" y="-396" on="1"/>
        <pt x="-84" y="-394" on="1"/>
      </contour>
    </TTGlyph>
    <TTGlyph name="bracketleft" xMin="24" yMin="-312" xMax="629" yMax="1664">
      <contour>
        <pt x="612" y="1558" on="1"/>
        <pt x="444" y="1558" on="1"/>
        <pt x="162" y="-206" on="1"/>
        <pt x="330" y="-206" on="1"/>
        <pt x="313" y="-312" on="1"/>
        <pt x="24" y="-312" on="1"/>
        <pt x="340" y="1664" on="1"/>
        <pt x="629" y="1664" on="1"/>
      </contour>
    </TTGlyph>
    <TTGlyph name="bracketright" xMin="-103" yMin="-312" xMax="503" yMax="1664">
      <contour>
        <pt x="213" y="1664" on="1"/>
        <pt x="503" y="1664" on="1"/>
        <pt x="187" y="-312" on="1"/>
        <pt x="-103" y="-312" on="1"/>
        <pt x="-86" y="-206" on="1"/>
        <pt x="83" y="-206" on="1"/>
        <pt x="365" y="1558" on="1"/>
        <pt x="196" y="1558" on="1"/>
      </contour>
    </TTGlyph>
    <TTGlyph name="breve" xMin="270" yMin="1197" xMax="771" yMax="1456">
      <contour>
        <pt x="769" y="1456" on="1"/>
        <pt x="771" y="1450" on="1"/>
        <pt x="755" y="1333" on="0"/>
        <pt x="605" y="1197" on="0"/>
        <pt x="492" y="1197" on="1"/>
        <pt x="384" y="1197" on="0"/>
        <pt x="270" y="1341" on="0"/>
        <pt x="289" y="1456" on="1"/>
        <pt x="389" y="1456" on="1"/>
        <pt x="376" y="1377" on="0"/>
        <pt x="431" y="1285" on="0"/>
        <pt x="506" y="1285" on="1"/>
        <pt x="574" y="1285" on="0"/>
        <pt x="662" y="1382" on="0"/>
        <pt x="675" y="1456" on="1"/>
      </contour>
    </TTGlyph>
    <TTGlyph name="breveacutecomb" xMin="313" yMin="1243" xMax="787" yMax="1674">
      <contour>
        <pt x="653" y="1674" on="1"/>
        <pt x="748" y="1674" on="1"/>
        <pt x="750" y="1669" on="1"/>
        <pt x="583" y="1468" on="1"/>
        <pt x="512" y="1468" on="1"/>
      </contour>
      <contour>
        <pt x="785" y="1456" on="1"/>
        <pt x="787" y="1450" on="1"/>
        <pt x="772" y="1353" on="0"/>
        <pt x="628" y="1243" on="0"/>
        <pt x="521" y="1243" on="1"/>
        <pt x="421" y="1243" on="0"/>
        <pt x="313" y="1361" on="0"/>
        <pt x="336" y="1451" on="1"/>
        <pt x="338" y="1456" on="1"/>
        <pt x="428" y="1456" on="1"/>
        <pt x="415" y="1390" on="0"/>
        <pt x="464" y="1315" on="0"/>
        <pt x="535" y="1315" on="1"/>
        <pt x="597" y="1315" on="0"/>
        <pt x="683" y="1396" on="0"/>
        <pt x="695" y="1456" on="1"/>
      </contour>
    </TTGlyph>
    <TTGlyph name="brevegravecomb" xMin="308" yMin="1243" xMax="782" yMax="1683">
      <contour>
        <pt x="623" y="1468" on="1"/>
        <pt x="519" y="1468" on="1"/>
        <pt x="403" y="1683" on="1"/>
        <pt x="548" y="1683" on="1"/>
      </contour>
      <contour>
        <pt x="780" y="1456" on="1"/>
        <pt x="782" y="1450" on="1"/>
        <pt x="767" y="1353" on="0"/>
        <pt x="623" y="1243" on="0"/>
        <pt x="516" y="1243" on="1"/>
        <pt x="416" y="1243" on="0"/>
        <pt x="308" y="1361" on="0"/>
        <pt x="331" y="1451" on="1"/>
        <pt x="333" y="1456" on="1"/>
        <pt x="423" y="1456" on="1"/>
        <pt x="410" y="1390" on="0"/>
        <pt x="459" y="1315" on="0"/>
        <pt x="530" y="1315" on="1"/>
        <pt x="592" y="1315" on="0"/>
        <pt x="678" y="1396" on="0"/>
        <pt x="690" y="1456" on="1"/>
      </contour>
    </TTGlyph>
    <TTGlyph name="brevehookcomb" xMin="302" yMin="1243" xMax="787" yMax="1800">
      <contour>
        <pt x="525" y="1475" on="1"/>
        <pt x="547" y="1583" on="1"/>
        <pt x="613" y="1587" on="0"/>
        <pt x="672" y="1618" on="0"/>
        <pt x="681" y="1660" on="1"/>
        <pt x="689" y="1699" on="0"/>
        <pt x="613" y="1737" on="0"/>
        <pt x="556" y="1737" on="1"/>
        <pt x="574" y="1800" on="1"/>
        <pt x="682" y="1800" on="0"/>
        <pt x="787" y="1728" on="0"/>
        <pt x="773" y="1659" on="1"/>
        <pt x="761" y="1599" on="0"/>
        <pt x="677" y="1536" on="0"/>
        <pt x="620" y="1530" on="1"/>
        <pt x="608" y="1475" on="1"/>
      </contour>
      <contour>
        <pt x="774" y="1456" on="1"/>
        <pt x="776" y="1450" on="1"/>
        <pt x="761" y="1353" on="0"/>
        <pt x="617" y="1243" on="0"/>
        <pt x="510" y="1243" on="1"/>
        <pt x="410" y="1243" on="0"/>
        <pt x="302" y="1361" on="0"/>
        <pt x="325" y="1451" on="1"/>
        <pt x="327" y="1456" on="1"/>
        <pt x="417" y="1456" on="1"/>
        <pt x="404" y="1390" on="0"/>
        <pt x="453" y="1315" on="0"/>
        <pt x="524" y="1315" on="1"/>
        <pt x="586" y="1315" on="0"/>
        <pt x="672" y="1396" on="0"/>
        <pt x="684" y="1456" on="1"/>
      </contour>
    </TTGlyph>
    <TTGlyph name="brevetildecomb" xMin="308" yMin="1243" xMax="836" yMax="1731">
      <contour>
        <pt x="780" y="1456" on="1"/>
        <pt x="782" y="1450" on="1"/>
        <pt x="767" y="1353" on="0"/>
        <pt x="623" y="1243" on="0"/>
        <pt x="516" y="1243" on="1"/>
        <pt x="416" y="1243" on="0"/>
        <pt x="308" y="1361" on="0"/>
        <pt x="331" y="1451" on="1"/>
        <pt x="333" y="1456" on="1"/>
        <pt x="423" y="1456" on="1"/>
        <pt x="410" y="1390" on="0"/>
        <pt x="459" y="1315" on="0"/>
        <pt x="530" y="1315" on="1"/>
        <pt x="592" y="1315" on="0"/>
        <pt x="678" y="1396" on="0"/>
        <pt x="690" y="1456" on="1"/>
      </contour>
      <contour>
        <pt x="836" y="1714" on="1"/>
        <pt x="820" y="1635" on="0"/>
        <pt x="728" y="1542" on="0"/>
        <pt x="672" y="1542" on="1"/>
        <pt x="630" y="1542" on="0"/>
        <pt x="543" y="1634" on="0"/>
        <pt x="507" y="1634" on="1"/>
        <pt x="479" y="1634" on="0"/>
        <pt x="425" y="1575" on="0"/>
        <pt x="416" y="1531" on="1"/>
        <pt x="361" y="1546" on="1"/>
        <pt x="376" y="1623" on="0"/>
        <pt x="467" y="1718" on="0"/>
        <pt x="524" y="1718" on="1"/>
        <pt x="560" y="1718" on="0"/>
        <pt x="653" y="1624" on="0"/>
        <pt x="689" y="1624" on="1"/>
        <pt x="715" y="1624" on="0"/>
        <pt x="770" y="1685" on="0"/>
        <pt x="779" y="1731" on="1"/>
      </contour>
    </TTGlyph>
    <TTGlyph name="brokenbar" xMin="-4" yMin="-270" xMax="459" yMax="1456">
      <contour>
        <pt x="-4" y="-270" on="1"/>
        <pt x="150" y="502" on="1"/>
        <pt x="268" y="502" on="1"/>
        <pt x="114" y="-270" on="1"/>
      </contour>
      <contour>
        <pt x="308" y="698" on="1"/>
        <pt x="190" y="698" on="1"/>
        <pt x="341" y="1456" on="1"/>
        <pt x="459" y="1456" on="1"/>
      </contour>
    </TTGlyph>
    <TTGlyph name="bullet" xMin="176" yMin="540" xMax="539" yMax="962">
      <contour>
        <pt x="205" y="783" on="1"/>
        <pt x="221" y="866" on="0"/>
        <pt x="325" y="962" on="0"/>
        <pt x="399" y="962" on="1"/>
        <pt x="468" y="962" on="0"/>
        <pt x="539" y="860" on="0"/>
        <pt x="525" y="783" on="1"/>
        <pt x="511" y="717" on="1"/>
        <pt x="494" y="633" on="0"/>
        <pt x="390" y="540" on="0"/>
        <pt x="316" y="540" on="1"/>
        <pt x="247" y="540" on="0"/>
        <pt x="176" y="640" on="0"/>
        <pt x="191" y="717" on="1"/>
      </contour>
    </TTGlyph>
    <TTGlyph name="c" xMin="60" yMin="-21" xMax="867" yMax="1102">
      <contour>
        <pt x="404" y="83" on="1"/>
        <pt x="490" y="83" on="0"/>
        <pt x="649" y="218" on="0"/>
        <pt x="668" y="337" on="1"/>
        <pt x="771" y="337" on="1"/>
        <pt x="773" y="331" on="1"/>
        <pt x="751" y="174" on="0"/>
        <pt x="524" y="-21" on="0"/>
        <pt x="388" y="-21" on="1"/>
        <pt x="217" y="-21" on="0"/>
        <pt x="60" y="250" on="0"/>
        <pt x="94" y="456" on="1"/>
        <pt x="121" y="624" on="1"/>
        <pt x="155" y="840" on="0"/>
        <pt x="388" y="1102" on="0"/>
        <pt x="568" y="1102" on="1"/>
        <pt x="707" y="1102" on="0"/>
        <pt x="867" y="888" on="0"/>
        <pt x="839" y="714" on="1"/>
        <pt x="728" y="714" on="1"/>
        <pt x="749" y="848" on="0"/>
        <pt x="647" y="996" on="0"/>
        <pt x="551" y="996" on="1"/>
        <pt x="424" y="996" on="0"/>
        <pt x="264" y="782" on="0"/>
        <pt x="239" y="624" on="1"/>
        <pt x="212" y="456" on="1"/>
        <pt x="184" y="287" on="0"/>
        <pt x="270" y="83" on="0"/>
      </contour>
    </TTGlyph>
    <TTGlyph name="cacute" xMin="60" yMin="-21" xMax="867" yMax="1501">
      <component glyphName="c" x="0" y="0" flags="0x204"/>
      <component glyphName="acute" x="262" y="23" flags="0x4"/>
    </TTGlyph>
    <TTGlyph name="caron" xMin="334" yMin="1252" xMax="801" yMax="1495">
      <contour>
        <pt x="534" y="1327" on="1"/>
        <pt x="693" y="1495" on="1"/>
        <pt x="801" y="1495" on="1"/>
        <pt x="798" y="1478" on="1"/>
        <pt x="560" y="1252" on="1"/>
        <pt x="477" y="1252" on="1"/>
        <pt x="334" y="1478" on="1"/>
        <pt x="337" y="1495" on="1"/>
        <pt x="443" y="1495" on="1"/>
      </contour>
    </TTGlyph>
    <TTGlyph name="ccaron" xMin="60" yMin="-21" xMax="867" yMax="1524">
      <component glyphName="c" x="0" y="0" flags="0x204"/>
      <component glyphName="caron" x="54" y="29" flags="0x4"/>
    </TTGlyph>
    <TTGlyph name="ccedilla" xMin="60" yMin="-441" xMax="867" yMax="1102">
      <component glyphName="c" x="0" y="0" flags="0x204"/>
      <component glyphName="cedilla" x="278" y="-8" flags="0x4"/>
    </TTGlyph>
    <TTGlyph name="ccircumflex" xMin="60" yMin="-21" xMax="867" yMax="1522">
      <component glyphName="c" x="0" y="0" flags="0x204"/>
      <component glyphName="circumflex" x="37" y="27" flags="0x4"/>
    </TTGlyph>
    <TTGlyph name="cedilla" xMin="-68" yMin="-433" xMax="228" yMax="0">
      <contour>
        <pt x="137" y="0" on="1"/>
        <pt x="115" y="-63" on="1"/>
        <pt x="172" y="-72" on="0"/>
        <pt x="228" y="-152" on="0"/>
        <pt x="212" y="-234" on="1"/>
        <pt x="192" y="-331" on="0"/>
        <pt x="50" y="-433" on="0"/>
        <pt x="-63" y="-431" on="1"/>
        <pt x="-68" y="-427" on="1"/>
        <pt x="-58" y="-355" on="1"/>
        <pt x="3" y="-355" on="0"/>
        <pt x="105" y="-294" on="0"/>
        <pt x="117" y="-236" on="1"/>
        <pt x="129" y="-176" on="0"/>
        <pt x="78" y="-135" on="0"/>
        <pt x="1" y="-127" on="1"/>
        <pt x="49" y="0" on="1"/>
      </contour>
    </TTGlyph>
    <TTGlyph name="cent" xMin="80" yMin="-245" xMax="878" yMax="1318">
      <contour>
        <pt x="420" y="83" on="1"/>
        <pt x="506" y="83" on="0"/>
        <pt x="665" y="218" on="0"/>
        <pt x="684" y="337" on="1"/>
        <pt x="787" y="337" on="1"/>
        <pt x="789" y="331" on="1"/>
        <pt x="768" y="185" on="0"/>
        <pt x="567" y="-4" on="0"/>
        <pt x="440" y="-19" on="1"/>
        <pt x="395" y="-245" on="1"/>
        <pt x="276" y="-245" on="1"/>
        <pt x="323" y="-11" on="1"/>
        <pt x="193" y="20" on="0"/>
        <pt x="80" y="277" on="0"/>
        <pt x="110" y="456" on="1"/>
        <pt x="137" y="624" on="1"/>
        <pt x="168" y="828" on="0"/>
        <pt x="380" y="1085" on="0"/>
        <pt x="545" y="1100" on="1"/>
        <pt x="589" y="1318" on="1"/>
        <pt x="708" y="1318" on="1"/>
        <pt x="662" y="1091" on="1"/>
        <pt x="768" y="1062" on="0"/>
        <pt x="878" y="861" on="0"/>
        <pt x="855" y="714" on="1"/>
        <pt x="744" y="714" on="1"/>
        <pt x="765" y="848" on="0"/>
        <pt x="663" y="996" on="0"/>
        <pt x="567" y="996" on="1"/>
        <pt x="440" y="996" on="0"/>
        <pt x="280" y="782" on="0"/>
        <pt x="255" y="624" on="1"/>
        <pt x="228" y="456" on="1"/>
        <pt x="200" y="287" on="0"/>
        <pt x="286" y="83" on="0"/>
      </contour>
    </TTGlyph>
    <TTGlyph name="chi" xMin="-65" yMin="-427" xMax="957" yMax="1093">
      <contour>
        <pt x="283" y="1093" on="1"/>
        <pt x="369" y="1093" on="0"/>
        <pt x="453" y="939" on="0"/>
        <pt x="468" y="838" on="1"/>
        <pt x="507" y="549" on="1"/>
        <pt x="513" y="548" on="1"/>
        <pt x="834" y="1082" on="1"/>
        <pt x="957" y="1082" on="1"/>
        <pt x="531" y="370" on="1"/>
        <pt x="598" y="-126" on="1"/>
        <pt x="613" y="-226" on="0"/>
        <pt x="642" y="-314" on="0"/>
        <pt x="678" y="-314" on="1"/>
        <pt x="689" y="-314" on="0"/>
        <pt x="709" y="-311" on="0"/>
        <pt x="722" y="-309" on="1"/>
        <pt x="702" y="-415" on="1"/>
        <pt x="691" y="-420" on="0"/>
        <pt x="659" y="-427" on="0"/>
        <pt x="648" y="-427" on="1"/>
        <pt x="572" y="-427" on="0"/>
        <pt x="494" y="-299" on="0"/>
        <pt x="478" y="-163" on="1"/>
        <pt x="430" y="191" on="1"/>
        <pt x="424" y="192" on="1"/>
        <pt x="61" y="-414" on="1"/>
        <pt x="-65" y="-414" on="1"/>
        <pt x="406" y="370" on="1"/>
        <pt x="349" y="795" on="1"/>
        <pt x="336" y="889" on="0"/>
        <pt x="293" y="985" on="0"/>
        <pt x="242" y="985" on="1"/>
        <pt x="234" y="985" on="0"/>
        <pt x="197" y="980" on="0"/>
        <pt x="187" y="979" on="1"/>
        <pt x="204" y="1081" on="1"/>
        <pt x="218" y="1085" on="0"/>
        <pt x="266" y="1093" on="0"/>
      </contour>
    </TTGlyph>
    <TTGlyph name="circumflex" xMin="309" yMin="1252" xMax="769" yMax="1495">
      <contour>
        <pt x="769" y="1271" on="1"/>
        <pt x="765" y="1252" on="1"/>
        <pt x="661" y="1252" on="1"/>
        <pt x="569" y="1418" on="1"/>
        <pt x="410" y="1252" on="1"/>
        <pt x="309" y="1252" on="1"/>
        <pt x="314" y="1273" on="1"/>
        <pt x="543" y="1495" on="1"/>
        <pt x="626" y="1495" on="1"/>
      </contour>
    </TTGlyph>
    <TTGlyph name="circumflexacutecomb" xMin="265" yMin="1252" xMax="1067" yMax="1635">
      <contour>
        <pt x="941" y="1635" on="1"/>
        <pt x="1065" y="1635" on="1"/>
        <pt x="1067" y="1630" on="1"/>
        <pt x="875" y="1403" on="1"/>
        <pt x="781" y="1403" on="1"/>
      </contour>
      <contour>
        <pt x="804" y="1252" on="1"/>
        <pt x="689" y="1252" on="1"/>
        <pt x="569" y="1438" on="1"/>
        <pt x="375" y="1252" on="1"/>
        <pt x="267" y="1252" on="1"/>
        <pt x="265" y="1258" on="1"/>
        <pt x="518" y="1495" on="1"/>
        <pt x="643" y="1495" on="1"/>
      </contour>
    </TTGlyph>
    <TTGlyph name="circumflexgravecomb" xMin="150" yMin="1252" xMax="808" yMax="1635">
      <contour>
        <pt x="347" y="1403" on="1"/>
        <pt x="254" y="1403" on="1"/>
        <pt x="150" y="1635" on="1"/>
        <pt x="279" y="1635" on="1"/>
      </contour>
      <contour>
        <pt x="808" y="1252" on="1"/>
        <pt x="693" y="1252" on="1"/>
        <pt x="573" y="1438" on="1"/>
        <pt x="379" y="1252" on="1"/>
        <pt x="271" y="1252" on="1"/>
        <pt x="269" y="1258" on="1"/>
        <pt x="522" y="1495" on="1"/>
        <pt x="647" y="1495" on="1"/>
      </contour>
    </TTGlyph>
    <TTGlyph name="circumflexhookcomb" xMin="269" yMin="1252" xMax="1055" yMax="1714">
      <contour>
        <pt x="808" y="1252" on="1"/>
        <pt x="693" y="1252" on="1"/>
        <pt x="573" y="1438" on="1"/>
        <pt x="379" y="1252" on="1"/>
        <pt x="271" y="1252" on="1"/>
        <pt x="269" y="1258" on="1"/>
        <pt x="522" y="1495" on="1"/>
        <pt x="647" y="1495" on="1"/>
      </contour>
      <contour>
        <pt x="817" y="1378" on="1"/>
        <pt x="838" y="1492" on="1"/>
        <pt x="898" y="1496" on="0"/>
        <pt x="948" y="1523" on="0"/>
        <pt x="956" y="1563" on="1"/>
        <pt x="963" y="1603" on="0"/>
        <pt x="900" y="1639" on="0"/>
        <pt x="850" y="1639" on="1"/>
        <pt x="869" y="1714" on="1"/>
        <pt x="966" y="1714" on="0"/>
        <pt x="1055" y="1638" on="0"/>
        <pt x="1041" y="1566" on="1"/>
        <pt x="1028" y="1503" on="0"/>
        <pt x="953" y="1438" on="0"/>
        <pt x="903" y="1431" on="1"/>
        <pt x="892" y="1378" on="1"/>
      </contour>
    </TTGlyph>
    <TTGlyph name="circumflextildecomb" xMin="269" yMin="1252" xMax="835" yMax="1730">
      <contour>
        <pt x="835" y="1714" on="1"/>
        <pt x="820" y="1644" on="0"/>
        <pt x="733" y="1556" on="0"/>
        <pt x="682" y="1556" on="1"/>
        <pt x="644" y="1556" on="0"/>
        <pt x="568" y="1644" on="0"/>
        <pt x="536" y="1644" on="1"/>
        <pt x="512" y="1644" on="0"/>
        <pt x="459" y="1581" on="0"/>
        <pt x="451" y="1541" on="1"/>
        <pt x="399" y="1555" on="1"/>
        <pt x="413" y="1624" on="0"/>
        <pt x="503" y="1723" on="0"/>
        <pt x="552" y="1723" on="1"/>
        <pt x="584" y="1723" on="0"/>
        <pt x="666" y="1636" on="0"/>
        <pt x="698" y="1636" on="1"/>
        <pt x="722" y="1636" on="0"/>
        <pt x="774" y="1690" on="0"/>
        <pt x="782" y="1730" on="1"/>
      </contour>
      <contour>
        <pt x="808" y="1252" on="1"/>
        <pt x="693" y="1252" on="1"/>
        <pt x="573" y="1438" on="1"/>
        <pt x="379" y="1252" on="1"/>
        <pt x="271" y="1252" on="1"/>
        <pt x="269" y="1258" on="1"/>
        <pt x="522" y="1495" on="1"/>
        <pt x="647" y="1495" on="1"/>
      </contour>
    </TTGlyph>
    <TTGlyph name="colon" xMin="53" yMin="0" xMax="394" yMax="1080">
      <component glyphName="period" x="-6" y="0" flags="0x4"/>
      <component glyphName="period" x="175" y="914" flags="0x4"/>
    </TTGlyph>
    <TTGlyph name="comma" xMin="-68" yMin="-258" xMax="195" yMax="190">
      <contour>
        <pt x="161" y="19" on="1"/>
        <pt x="7" y="-258" on="1"/>
        <pt x="-68" y="-258" on="1"/>
        <pt x="42" y="22" on="1"/>
        <pt x="76" y="190" on="1"/>
        <pt x="195" y="190" on="1"/>
      </contour>
    </TTGlyph>
    <TTGlyph name="commaaccent" xMin="-4" yMin="-153" xMax="205" yMax="179">
      <contour>
        <pt x="180" y="56" on="1"/>
        <pt x="61" y="-153" on="1"/>
        <pt x="-4" y="-153" on="1"/>
        <pt x="84" y="59" on="1"/>
        <pt x="108" y="179" on="1"/>
        <pt x="205" y="179" on="1"/>
      </contour>
    </TTGlyph>
    <TTGlyph name="commaaccentrotate" xMin="292" yMin="1203" xMax="507" yMax="1559">
      <contour>
        <pt x="319" y="1341" on="1"/>
        <pt x="442" y="1559" on="1"/>
        <pt x="507" y="1559" on="1"/>
        <pt x="437" y="1339" on="1"/>
        <pt x="410" y="1203" on="1"/>
        <pt x="292" y="1203" on="1"/>
      </contour>
    </TTGlyph>
    <TTGlyph name="copyright" xMin="93" yMin="-21" xMax="1373" yMax="1476">
      <contour>
        <pt x="962" y="596" on="1"/>
        <pt x="964" y="590" on="1"/>
        <pt x="942" y="434" on="0"/>
        <pt x="780" y="282" on="0"/>
        <pt x="653" y="282" on="1"/>
        <pt x="530" y="282" on="0"/>
        <pt x="406" y="497" on="0"/>
        <pt x="434" y="669" on="1"/>
        <pt x="453" y="788" on="1"/>
        <pt x="481" y="967" on="0"/>
        <pt x="667" y="1175" on="0"/>
        <pt x="796" y="1175" on="1"/>
        <pt x="917" y="1175" on="0"/>
        <pt x="1038" y="1014" on="0"/>
        <pt x="1014" y="862" on="1"/>
        <pt x="918" y="862" on="1"/>
        <pt x="936" y="978" on="0"/>
        <pt x="866" y="1082" on="0"/>
        <pt x="781" y="1082" on="1"/>
        <pt x="697" y="1082" on="0"/>
        <pt x="570" y="916" on="0"/>
        <pt x="550" y="789" on="1"/>
        <pt x="531" y="669" on="1"/>
        <pt x="509" y="533" on="0"/>
        <pt x="580" y="374" on="0"/>
        <pt x="668" y="374" on="1"/>
        <pt x="749" y="374" on="0"/>
        <pt x="855" y="482" on="0"/>
        <pt x="874" y="596" on="1"/>
      </contour>
      <contour>
        <pt x="225" y="729" on="1"/>
        <pt x="178" y="440" on="0"/>
        <pt x="415" y="66" on="0"/>
        <pt x="629" y="66" on="1"/>
        <pt x="831" y="66" on="0"/>
        <pt x="1199" y="454" on="0"/>
        <pt x="1244" y="729" on="1"/>
        <pt x="1289" y="1016" on="0"/>
        <pt x="1053" y="1387" on="0"/>
        <pt x="840" y="1387" on="1"/>
        <pt x="636" y="1387" on="0"/>
        <pt x="268" y="1001" on="0"/>
      </contour>
      <contour>
        <pt x="144" y="729" on="1"/>
        <pt x="196" y="1056" on="0"/>
        <pt x="605" y="1476" on="0"/>
        <pt x="854" y="1476" on="1"/>
        <pt x="1089" y="1476" on="0"/>
        <pt x="1373" y="1041" on="0"/>
        <pt x="1324" y="729" on="1"/>
        <pt x="1271" y="401" on="0"/>
        <pt x="862" y="-21" on="0"/>
        <pt x="615" y="-21" on="1"/>
        <pt x="378" y="-21" on="0"/>
        <pt x="93" y="416" on="0"/>
      </contour>
    </TTGlyph>
    <TTGlyph name="crossbar" xMin="171" yMin="684" xMax="683" yMax="788">
      <contour>
        <pt x="662" y="684" on="1"/>
        <pt x="171" y="684" on="1"/>
        <pt x="192" y="788" on="1"/>
        <pt x="683" y="788" on="1"/>
      </contour>
    </TTGlyph>
    <TTGlyph name="currency" xMin="30" yMin="-27" xMax="1306" yMax="1265">
      <contour>
        <pt x="889" y="120" on="1"/>
        <pt x="809" y="52" on="0"/>
        <pt x="629" y="-20" on="0"/>
        <pt x="538" y="-20" on="1"/>
        <pt x="454" y="-20" on="0"/>
        <pt x="308" y="57" on="0"/>
        <pt x="255" y="129" on="1"/>
        <pt x="99" y="-26" on="1"/>
        <pt x="30" y="62" on="1"/>
        <pt x="199" y="227" on="1"/>
        <pt x="164" y="307" on="0"/>
        <pt x="147" y="501" on="0"/>
        <pt x="169" y="608" on="1"/>
        <pt x="192" y="727" on="0"/>
        <pt x="287" y="930" on="0"/>
        <pt x="354" y="1010" on="1"/>
        <pt x="253" y="1174" on="1"/>
        <pt x="357" y="1264" on="1"/>
        <pt x="452" y="1107" on="1"/>
        <pt x="528" y="1168" on="0"/>
        <pt x="700" y="1234" on="0"/>
        <pt x="789" y="1234" on="1"/>
        <pt x="869" y="1234" on="0"/>
        <pt x="1012" y="1161" on="0"/>
        <pt x="1065" y="1095" on="1"/>
        <pt x="1237" y="1265" on="1"/>
        <pt x="1306" y="1174" on="1"/>
        <pt x="1125" y="996" on="1"/>
        <pt x="1161" y="914" on="0"/>
        <pt x="1179" y="716" on="0"/>
        <pt x="1158" y="608" on="1"/>
        <pt x="1135" y="494" on="0"/>
        <pt x="1045" y="298" on="0"/>
        <pt x="984" y="220" on="1"/>
        <pt x="1083" y="62" on="1"/>
        <pt x="979" y="-27" on="1"/>
      </contour>
      <contour>
        <pt x="282" y="608" on="1"/>
        <pt x="236" y="381" on="0"/>
        <pt x="400" y="94" on="0"/>
        <pt x="561" y="94" on="1"/>
        <pt x="708" y="94" on="0"/>
        <pt x="1003" y="399" on="0"/>
        <pt x="1045" y="608" on="1"/>
        <pt x="1089" y="833" on="0"/>
        <pt x="926" y="1119" on="0"/>
        <pt x="766" y="1119" on="1"/>
        <pt x="618" y="1119" on="0"/>
        <pt x="323" y="815" on="0"/>
      </contour>
    </TTGlyph>
    <TTGlyph name="cyrillicbreve" xMin="270" yMin="1197" xMax="771" yMax="1456">
      <component glyphName="breve" x="0" y="0" flags="0x204"/>
    </TTGlyph>
    <TTGlyph name="cyrillichook" xMin="-230" yMin="-437" xMax="213" yMax="135">
      <contour>
        <pt x="213" y="135" on="1"/>
        <pt x="168" y="-89" on="1"/>
        <pt x="132" y="-267" on="0"/>
        <pt x="-27" y="-437" on="0"/>
        <pt x="-146" y="-437" on="1"/>
        <pt x="-167" y="-437" on="0"/>
        <pt x="-208" y="-427" on="0"/>
        <pt x="-230" y="-418" on="1"/>
        <pt x="-197" y="-311" on="1"/>
        <pt x="-186" y="-316" on="0"/>
        <pt x="-138" y="-327" on="0"/>
        <pt x="-124" y="-327" on="1"/>
        <pt x="-66" y="-327" on="0"/>
        <pt x="29" y="-200" on="0"/>
        <pt x="51" y="-89" on="1"/>
        <pt x="96" y="135" on="1"/>
      </contour>
    </TTGlyph>
    <TTGlyph name="cyrillichookleft" xMin="-99" yMin="-384" xMax="238" yMax="43">
      <contour>
        <pt x="133" y="43" on="1"/>
        <pt x="192" y="-6" on="0"/>
        <pt x="238" y="-143" on="0"/>
        <pt x="225" y="-213" on="1"/>
        <pt x="207" y="-299" on="0"/>
        <pt x="102" y="-384" on="0"/>
        <pt x="31" y="-384" on="1"/>
        <pt x="-11" y="-384" on="0"/>
        <pt x="-78" y="-358" on="0"/>
        <pt x="-99" y="-340" on="1"/>
        <pt x="-62" y="-255" on="1"/>
        <pt x="-44" y="-268" on="0"/>
        <pt x="-2" y="-287" on="0"/>
        <pt x="25" y="-287" on="1"/>
        <pt x="64" y="-287" on="0"/>
        <pt x="116" y="-231" on="0"/>
        <pt x="123" y="-201" on="1"/>
        <pt x="134" y="-143" on="0"/>
        <pt x="101" y="-59" on="0"/>
        <pt x="62" y="0" on="1"/>
      </contour>
    </TTGlyph>
    <TTGlyph name="cyrillictic" xMin="-44" yMin="-355" xMax="171" yMax="126">
      <contour>
        <pt x="75" y="-355" on="1"/>
        <pt x="-44" y="-355" on="1"/>
        <pt x="52" y="126" on="1"/>
        <pt x="171" y="126" on="1"/>
      </contour>
    </TTGlyph>
    <TTGlyph name="d" xMin="71" yMin="-21" xMax="1024" yMax="1560">
      <contour>
        <pt x="122" y="551" on="1"/>
        <pt x="177" y="828" on="0"/>
        <pt x="388" y="1102" on="0"/>
        <pt x="547" y="1102" on="1"/>
        <pt x="627" y="1102" on="0"/>
        <pt x="750" y="1020" on="0"/>
        <pt x="783" y="946" on="1"/>
        <pt x="906" y="1560" on="1"/>
        <pt x="1024" y="1560" on="1"/>
        <pt x="712" y="0" on="1"/>
        <pt x="608" y="0" on="1"/>
        <pt x="625" y="126" on="1"/>
        <pt x="570" y="55" on="0"/>
        <pt x="432" y="-21" on="0"/>
        <pt x="352" y="-21" on="1"/>
        <pt x="208" y="-21" on="0"/>
        <pt x="71" y="294" on="0"/>
        <pt x="118" y="530" on="1"/>
      </contour>
      <contour>
        <pt x="238" y="530" on="1"/>
        <pt x="197" y="324" on="0"/>
        <pt x="278" y="86" on="0"/>
        <pt x="400" y="86" on="1"/>
        <pt x="475" y="86" on="0"/>
        <pt x="600" y="189" on="0"/>
        <pt x="650" y="279" on="1"/>
        <pt x="756" y="809" on="1"/>
        <pt x="738" y="890" on="0"/>
        <pt x="637" y="994" on="0"/>
        <pt x="552" y="994" on="1"/>
        <pt x="441" y="994" on="0"/>
        <pt x="282" y="754" on="0"/>
        <pt x="242" y="551" on="1"/>
      </contour>
    </TTGlyph>
    <TTGlyph name="dagger" xMin="153" yMin="0" xMax="952" yMax="1456">
      <contour>
        <pt x="935" y="974" on="1"/>
        <pt x="603" y="974" on="1"/>
        <pt x="448" y="0" on="1"/>
        <pt x="329" y="0" on="1"/>
        <pt x="485" y="974" on="1"/>
        <pt x="153" y="974" on="1"/>
        <pt x="170" y="1082" on="1"/>
        <pt x="502" y="1082" on="1"/>
        <pt x="562" y="1456" on="1"/>
        <pt x="681" y="1456" on="1"/>
        <pt x="621" y="1082" on="1"/>
        <pt x="952" y="1082" on="1"/>
      </contour>
    </TTGlyph>
    <TTGlyph name="daggerdbl" xMin="12" yMin="-416" xMax="964" yMax="1456">
      <contour>
        <pt x="791" y="0" on="1"/>
        <pt x="453" y="0" on="1"/>
        <pt x="387" y="-416" on="1"/>
        <pt x="270" y="-416" on="1"/>
        <pt x="336" y="0" on="1"/>
        <pt x="12" y="0" on="1"/>
        <pt x="29" y="104" on="1"/>
        <pt x="353" y="104" on="1"/>
        <pt x="493" y="975" on="1"/>
        <pt x="168" y="975" on="1"/>
        <pt x="185" y="1082" on="1"/>
        <pt x="510" y="1082" on="1"/>
        <pt x="570" y="1456" on="1"/>
        <pt x="687" y="1456" on="1"/>
        <pt x="627" y="1082" on="1"/>
        <pt x="964" y="1082" on="1"/>
        <pt x="947" y="975" on="1"/>
        <pt x="610" y="975" on="1"/>
        <pt x="470" y="104" on="1"/>
        <pt x="808" y="104" on="1"/>
      </contour>
    </TTGlyph>
    <TTGlyph name="dasiaoxia" xMin="248" yMin="1135" xMax="755" yMax="1477">
      <contour>
        <pt x="468" y="1164" on="1"/>
        <pt x="612" y="1477" on="1"/>
        <pt x="755" y="1477" on="1"/>
        <pt x="751" y="1456" on="1"/>
        <pt x="516" y="1137" on="1"/>
        <pt x="462" y="1137" on="1"/>
      </contour>
      <contour>
        <pt x="277" y="1278" on="1"/>
        <pt x="429" y="1476" on="1"/>
        <pt x="506" y="1476" on="1"/>
        <pt x="400" y="1272" on="1"/>
        <pt x="373" y="1135" on="1"/>
        <pt x="248" y="1135" on="1"/>
      </contour>
    </TTGlyph>
    <TTGlyph name="dcaron" xMin="71" yMin="-21" xMax="1249" yMax="1560">
      <component glyphName="d" x="0" y="0" flags="0x4"/>
      <component glyphName="commaaccent" x="1044" y="1380" flags="0x4"/>
    </TTGlyph>
    <TTGlyph name="dcroat" xMin="71" yMin="-21" xMax="1128" yMax="1560">
      <contour>
        <pt x="1107" y="1256" on="1"/>
        <pt x="963" y="1256" on="1"/>
        <pt x="712" y="0" on="1"/>
        <pt x="608" y="0" on="1"/>
        <pt x="625" y="126" on="1"/>
        <pt x="570" y="55" on="0"/>
        <pt x="432" y="-21" on="0"/>
        <pt x="352" y="-21" on="1"/>
        <pt x="208" y="-21" on="0"/>
        <pt x="71" y="294" on="0"/>
        <pt x="118" y="530" on="1"/>
        <pt x="122" y="551" on="1"/>
        <pt x="177" y="828" on="0"/>
        <pt x="388" y="1102" on="0"/>
        <pt x="547" y="1102" on="1"/>
        <pt x="627" y="1102" on="0"/>
        <pt x="750" y="1020" on="0"/>
        <pt x="783" y="946" on="1"/>
        <pt x="845" y="1256" on="1"/>
        <pt x="616" y="1256" on="1"/>
        <pt x="637" y="1360" on="1"/>
        <pt x="866" y="1360" on="1"/>
        <pt x="906" y="1560" on="1"/>
        <pt x="1024" y="1560" on="1"/>
        <pt x="984" y="1360" on="1"/>
        <pt x="1128" y="1360" on="1"/>
      </contour>
      <contour>
        <pt x="238" y="530" on="1"/>
        <pt x="197" y="324" on="0"/>
        <pt x="278" y="86" on="0"/>
        <pt x="400" y="86" on="1"/>
        <pt x="475" y="86" on="0"/>
        <pt x="600" y="189" on="0"/>
        <pt x="650" y="279" on="1"/>
        <pt x="756" y="809" on="1"/>
        <pt x="738" y="890" on="0"/>
        <pt x="637" y="994" on="0"/>
        <pt x="552" y="994" on="1"/>
        <pt x="441" y="994" on="0"/>
        <pt x="282" y="754" on="0"/>
        <pt x="242" y="551" on="1"/>
      </contour>
    </TTGlyph>
    <TTGlyph name="degree" xMin="268" yMin="978" xMax="720" yMax="1477">
      <contour>
        <pt x="289" y="1226" on="1"/>
        <pt x="311" y="1335" on="0"/>
        <pt x="459" y="1477" on="0"/>
        <pt x="546" y="1477" on="1"/>
        <pt x="624" y="1477" on="0"/>
        <pt x="720" y="1326" on="0"/>
        <pt x="700" y="1226" on="1"/>
        <pt x="678" y="1115" on="0"/>
        <pt x="532" y="978" on="0"/>
        <pt x="447" y="978" on="1"/>
        <pt x="367" y="978" on="0"/>
        <pt x="268" y="1124" on="0"/>
      </contour>
      <contour>
        <pt x="375" y="1226" on="1"/>
        <pt x="361" y="1154" on="0"/>
        <pt x="412" y="1072" on="0"/>
        <pt x="465" y="1072" on="1"/>
        <pt x="511" y="1072" on="0"/>
        <pt x="599" y="1160" on="0"/>
        <pt x="613" y="1226" on="1"/>
        <pt x="627" y="1298" on="0"/>
        <pt x="579" y="1383" on="0"/>
        <pt x="528" y="1383" on="1"/>
        <pt x="480" y="1383" on="0"/>
        <pt x="388" y="1291" on="0"/>
      </contour>
    </TTGlyph>
    <TTGlyph name="delta" xMin="60" yMin="-21" xMax="967" yMax="1456">
      <contour>
        <pt x="967" y="1456" on="1"/>
        <pt x="947" y="1353" on="1"/>
        <pt x="547" y="1353" on="1"/>
        <pt x="734" y="1170" on="0"/>
        <pt x="916" y="769" on="0"/>
        <pt x="873" y="556" on="1"/>
        <pt x="867" y="524" on="1"/>
        <pt x="815" y="268" on="0"/>
        <pt x="555" y="-21" on="0"/>
        <pt x="379" y="-21" on="1"/>
        <pt x="216" y="-21" on="0"/>
        <pt x="60" y="288" on="0"/>
        <pt x="108" y="524" on="1"/>
        <pt x="114" y="556" on="1"/>
        <pt x="161" y="791" on="0"/>
        <pt x="404" y="1070" on="0"/>
        <pt x="573" y="1084" on="1"/>
        <pt x="581" y="1084" on="0"/>
        <pt x="602" y="1080" on="0"/>
        <pt x="608" y="1076" on="1"/>
        <pt x="611" y="1081" on="1"/>
        <pt x="572" y="1145" on="0"/>
        <pt x="449" y="1289" on="0"/>
        <pt x="379" y="1360" on="1"/>
        <pt x="398" y="1456" on="1"/>
      </contour>
      <contour>
        <pt x="226" y="524" on="1"/>
        <pt x="186" y="324" on="0"/>
        <pt x="272" y="83" on="0"/>
        <pt x="400" y="83" on="1"/>
        <pt x="515" y="83" on="0"/>
        <pt x="711" y="341" on="0"/>
        <pt x="748" y="524" on="1"/>
        <pt x="754" y="556" on="1"/>
        <pt x="785" y="711" on="0"/>
        <pt x="725" y="921" on="0"/>
        <pt x="667" y="979" on="1"/>
        <pt x="649" y="985" on="0"/>
        <pt x="599" y="996" on="0"/>
        <pt x="581" y="996" on="1"/>
        <pt x="464" y="996" on="0"/>
        <pt x="268" y="737" on="0"/>
        <pt x="232" y="556" on="1"/>
      </contour>
    </TTGlyph>
    <TTGlyph name="dieresis" xMin="288" yMin="1296" xMax="861" yMax="1456">
      <contour>
        <pt x="835" y="1296" on="1"/>
        <pt x="679" y="1296" on="1"/>
        <pt x="705" y="1456" on="1"/>
        <pt x="861" y="1456" on="1"/>
      </contour>
      <contour>
        <pt x="445" y="1296" on="1"/>
        <pt x="288" y="1296" on="1"/>
        <pt x="314" y="1456" on="1"/>
        <pt x="471" y="1456" on="1"/>
      </contour>
    </TTGlyph>
    <TTGlyph name="dieresistonos" xMin="316" yMin="1301" xMax="879" yMax="1693">
      <contour>
        <pt x="848" y="1301" on="1"/>
        <pt x="711" y="1301" on="1"/>
        <pt x="742" y="1456" on="1"/>
        <pt x="879" y="1456" on="1"/>
      </contour>
      <contour>
        <pt x="454" y="1301" on="1"/>
        <pt x="316" y="1301" on="1"/>
        <pt x="347" y="1456" on="1"/>
        <pt x="485" y="1456" on="1"/>
      </contour>
      <contour>
        <pt x="651" y="1693" on="1"/>
        <pt x="802" y="1693" on="1"/>
        <pt x="660" y="1472" on="1"/>
        <pt x="574" y="1472" on="1"/>
      </contour>
    </TTGlyph>
    <TTGlyph name="divide" xMin="113" yMin="210" xMax="924" yMax="1171">
      <contour>
        <pt x="900" y="641" on="1"/>
        <pt x="113" y="641" on="1"/>
        <pt x="137" y="761" on="1"/>
        <pt x="924" y="761" on="1"/>
      </contour>
      <contour>
        <pt x="649" y="1009" on="1"/>
        <pt x="520" y="1009" on="1"/>
        <pt x="552" y="1171" on="1"/>
        <pt x="681" y="1171" on="1"/>
      </contour>
      <contour>
        <pt x="489" y="210" on="1"/>
        <pt x="360" y="210" on="1"/>
        <pt x="393" y="373" on="1"/>
        <pt x="522" y="373" on="1"/>
      </contour>
    </TTGlyph>
    <TTGlyph name="dollar" xMin="66" yMin="-208" xMax="942" yMax="1677">
      <contour>
        <pt x="696" y="359" on="1"/>
        <pt x="714" y="472" on="0"/>
        <pt x="631" y="607" on="0"/>
        <pt x="505" y="672" on="1"/>
        <pt x="351" y="738" on="0"/>
        <pt x="223" y="924" on="0"/>
        <pt x="250" y="1093" on="1"/>
        <pt x="276" y="1260" on="0"/>
        <pt x="462" y="1458" on="0"/>
        <pt x="599" y="1474" on="1"/>
        <pt x="631" y="1677" on="1"/>
        <pt x="730" y="1677" on="1"/>
        <pt x="698" y="1473" on="1"/>
        <pt x="826" y="1453" on="0"/>
        <pt x="942" y="1220" on="0"/>
        <pt x="911" y="1026" on="1"/>
        <pt x="793" y="1026" on="1"/>
        <pt x="818" y="1183" on="0"/>
        <pt x="734" y="1367" on="0"/>
        <pt x="630" y="1367" on="1"/>
        <pt x="528" y="1367" on="0"/>
        <pt x="386" y="1212" on="0"/>
        <pt x="368" y="1096" on="1"/>
        <pt x="349" y="979" on="0"/>
        <pt x="430" y="846" on="0"/>
        <pt x="563" y="781" on="1"/>
        <pt x="715" y="713" on="0"/>
        <pt x="840" y="529" on="0"/>
        <pt x="814" y="361" on="1"/>
        <pt x="786" y="190" on="0"/>
        <pt x="595" y="-2" on="0"/>
        <pt x="451" y="-18" on="1"/>
        <pt x="421" y="-208" on="1"/>
        <pt x="323" y="-208" on="1"/>
        <pt x="353" y="-18" on="1"/>
        <pt x="219" y="-2" on="0"/>
        <pt x="66" y="209" on="0"/>
        <pt x="100" y="419" on="1"/>
        <pt x="217" y="419" on="1"/>
        <pt x="187" y="235" on="0"/>
        <pt x="308" y="87" on="0"/>
        <pt x="414" y="87" on="1"/>
        <pt x="519" y="87" on="0"/>
        <pt x="677" y="243" on="0"/>
      </contour>
    </TTGlyph>
    <TTGlyph name="dotaccent" xMin="311" yMin="1286" xMax="484" yMax="1456">
      <contour>
        <pt x="450" y="1286" on="1"/>
        <pt x="311" y="1286" on="1"/>
        <pt x="345" y="1456" on="1"/>
        <pt x="484" y="1456" on="1"/>
      </contour>
    </TTGlyph>
    <TTGlyph name="dotbelow" xMin="-670" yMin="-316" xMax="-497" yMax="-146">
      <contour>
        <pt x="-531" y="-316" on="1"/>
        <pt x="-670" y="-316" on="1"/>
        <pt x="-636" y="-146" on="1"/>
        <pt x="-497" y="-146" on="1"/>
      </contour>
    </TTGlyph>
    <TTGlyph name="dotlessi" xMin="57" yMin="0" xMax="391" yMax="1082">
      <contour>
        <pt x="175" y="0" on="1"/>
        <pt x="57" y="0" on="1"/>
        <pt x="273" y="1082" on="1"/>
        <pt x="391" y="1082" on="1"/>
      </contour>
    </TTGlyph>
    <TTGlyph name="e" xMin="58" yMin="-21" xMax="860" yMax="1102">
      <contour>
        <pt x="395" y="-21" on="1"/>
        <pt x="234" y="-21" on="0"/>
        <pt x="58" y="244" on="0"/>
        <pt x="91" y="446" on="1"/>
        <pt x="120" y="626" on="1"/>
        <pt x="154" y="839" on="0"/>
        <pt x="406" y="1102" on="0"/>
        <pt x="557" y="1102" on="1"/>
        <pt x="714" y="1102" on="0"/>
        <pt x="860" y="857" on="0"/>
        <pt x="828" y="654" on="1"/>
        <pt x="809" y="535" on="1"/>
        <pt x="221" y="535" on="1"/>
        <pt x="207" y="446" on="1"/>
        <pt x="181" y="284" on="0"/>
        <pt x="289" y="83" on="0"/>
        <pt x="411" y="83" on="1"/>
        <pt x="492" y="83" on="0"/>
        <pt x="630" y="146" on="0"/>
        <pt x="681" y="202" on="1"/>
        <pt x="716" y="117" on="1"/>
        <pt x="659" y="53" on="0"/>
        <pt x="500" y="-21" on="0"/>
      </contour>
      <contour>
        <pt x="540" y="996" on="1"/>
        <pt x="439" y="996" on="0"/>
        <pt x="266" y="790" on="0"/>
        <pt x="243" y="644" on="1"/>
        <pt x="245" y="639" on="1"/>
        <pt x="707" y="639" on="1"/>
        <pt x="715" y="685" on="1"/>
        <pt x="736" y="824" on="0"/>
        <pt x="647" y="996" on="0"/>
      </contour>
    </TTGlyph>
    <TTGlyph name="eacute" xMin="58" yMin="-21" xMax="871" yMax="1502">
      <component glyphName="e" x="0" y="0" flags="0x204"/>
      <component glyphName="acute" x="279" y="24" flags="0x4"/>
    </TTGlyph>
    <TTGlyph name="ebreve" xMin="58" yMin="-21" xMax="869" yMax="1534">
      <component glyphName="e" x="0" y="0" flags="0x204"/>
      <component glyphName="breve" x="98" y="78" flags="0x4"/>
    </TTGlyph>
    <TTGlyph name="ecaron" xMin="58" yMin="-21" xMax="872" yMax="1525">
      <component glyphName="e" x="0" y="0" flags="0x204"/>
      <component glyphName="caron" x="71" y="30" flags="0x4"/>
    </TTGlyph>
    <TTGlyph name="ecircumflex" xMin="58" yMin="-21" xMax="860" yMax="1523">
      <component glyphName="e" x="0" y="0" flags="0x204"/>
      <component glyphName="circumflex" x="54" y="28" flags="0x4"/>
    </TTGlyph>
    <TTGlyph name="edieresis" xMin="58" yMin="-21" xMax="898" yMax="1477">
      <component glyphName="e" x="0" y="0" flags="0x204"/>
      <component glyphName="dieresis" x="37" y="21" flags="0x4"/>
    </TTGlyph>
    <TTGlyph name="edotaccent" xMin="58" yMin="-21" xMax="860" yMax="1484">
      <component glyphName="e" x="0" y="0" flags="0x204"/>
      <component glyphName="dotaccent" x="215" y="28" flags="0x4"/>
    </TTGlyph>
    <TTGlyph name="egrave" xMin="58" yMin="-21" xMax="860" yMax="1506">
      <component glyphName="e" x="0" y="0" flags="0x204"/>
      <component glyphName="grave" x="122" y="30" flags="0x4"/>
    </TTGlyph>
    <TTGlyph name="eight" xMin="46" yMin="-21" xMax="973" yMax="1477">
      <contour>
        <pt x="936" y="1081" on="1"/>
        <pt x="910" y="953" on="0"/>
        <pt x="767" y="780" on="0"/>
        <pt x="667" y="743" on="1"/>
        <pt x="760" y="699" on="0"/>
        <pt x="851" y="510" on="0"/>
        <pt x="827" y="386" on="1"/>
        <pt x="784" y="176" on="0"/>
        <pt x="544" y="-21" on="0"/>
        <pt x="376" y="-21" on="1"/>
        <pt x="220" y="-21" on="0"/>
        <pt x="46" y="192" on="0"/>
        <pt x="85" y="386" on="1"/>
        <pt x="112" y="524" on="0"/>
        <pt x="275" y="711" on="0"/>
        <pt x="390" y="749" on="1"/>
        <pt x="309" y="791" on="0"/>
        <pt x="233" y="966" on="0"/>
        <pt x="256" y="1081" on="1"/>
        <pt x="296" y="1282" on="0"/>
        <pt x="519" y="1477" on="0"/>
        <pt x="674" y="1477" on="1"/>
        <pt x="814" y="1477" on="0"/>
        <pt x="973" y="1265" on="0"/>
      </contour>
      <contour>
        <pt x="709" y="386" on="1"/>
        <pt x="738" y="532" on="0"/>
        <pt x="629" y="694" on="0"/>
        <pt x="518" y="694" on="1"/>
        <pt x="413" y="694" on="0"/>
        <pt x="231" y="521" on="0"/>
        <pt x="204" y="386" on="1"/>
        <pt x="173" y="234" on="0"/>
        <pt x="280" y="83" on="0"/>
        <pt x="397" y="83" on="1"/>
        <pt x="501" y="83" on="0"/>
        <pt x="681" y="247" on="0"/>
      </contour>
      <contour>
        <pt x="816" y="1081" on="1"/>
        <pt x="843" y="1215" on="0"/>
        <pt x="750" y="1371" on="0"/>
        <pt x="653" y="1371" on="1"/>
        <pt x="561" y="1371" on="0"/>
        <pt x="401" y="1211" on="0"/>
        <pt x="375" y="1081" on="1"/>
        <pt x="348" y="944" on="0"/>
        <pt x="440" y="799" on="0"/>
        <pt x="540" y="799" on="1"/>
        <pt x="630" y="799" on="0"/>
        <pt x="791" y="955" on="0"/>
      </contour>
    </TTGlyph>
    <TTGlyph name="eight.lnum" xMin="68" yMin="-21" xMax="1014" yMax="1477">
      <contour>
        <pt x="977" y="1081" on="1"/>
        <pt x="951" y="953" on="0"/>
        <pt x="805" y="780" on="0"/>
        <pt x="703" y="743" on="1"/>
        <pt x="799" y="699" on="0"/>
        <pt x="893" y="509" on="0"/>
        <pt x="869" y="386" on="1"/>
        <pt x="826" y="176" on="0"/>
        <pt x="581" y="-21" on="0"/>
        <pt x="409" y="-21" on="1"/>
        <pt x="248" y="-21" on="0"/>
        <pt x="68" y="192" on="0"/>
        <pt x="107" y="386" on="1"/>
        <pt x="134" y="524" on="0"/>
        <pt x="300" y="711" on="0"/>
        <pt x="418" y="749" on="1"/>
        <pt x="334" y="790" on="0"/>
        <pt x="255" y="966" on="0"/>
        <pt x="278" y="1081" on="1"/>
        <pt x="318" y="1282" on="0"/>
        <pt x="546" y="1477" on="0"/>
        <pt x="706" y="1477" on="1"/>
        <pt x="850" y="1477" on="0"/>
        <pt x="1014" y="1265" on="0"/>
      </contour>
      <contour>
        <pt x="752" y="386" on="1"/>
        <pt x="781" y="531" on="0"/>
        <pt x="665" y="694" on="0"/>
        <pt x="550" y="694" on="1"/>
        <pt x="441" y="694" on="0"/>
        <pt x="251" y="521" on="0"/>
        <pt x="224" y="386" on="1"/>
        <pt x="193" y="234" on="0"/>
        <pt x="307" y="83" on="0"/>
        <pt x="430" y="83" on="1"/>
        <pt x="537" y="83" on="0"/>
        <pt x="724" y="247" on="0"/>
      </contour>
      <contour>
        <pt x="858" y="1081" on="1"/>
        <pt x="885" y="1215" on="0"/>
        <pt x="786" y="1371" on="0"/>
        <pt x="685" y="1371" on="1"/>
        <pt x="588" y="1371" on="0"/>
        <pt x="422" y="1211" on="0"/>
        <pt x="396" y="1081" on="1"/>
        <pt x="369" y="943" on="0"/>
        <pt x="466" y="799" on="0"/>
        <pt x="573" y="799" on="1"/>
        <pt x="667" y="799" on="0"/>
        <pt x="833" y="955" on="0"/>
      </contour>
    </TTGlyph>
    <TTGlyph name="eight.smcp" xMin="42" yMin="-17" xMax="855" yMax="1181">
      <contour>
        <pt x="826" y="867" on="1"/>
        <pt x="806" y="768" on="0"/>
        <pt x="692" y="632" on="0"/>
        <pt x="611" y="600" on="1"/>
        <pt x="687" y="562" on="0"/>
        <pt x="763" y="414" on="0"/>
        <pt x="745" y="319" on="1"/>
        <pt x="711" y="151" on="0"/>
        <pt x="493" y="-17" on="0"/>
        <pt x="350" y="-17" on="1"/>
        <pt x="211" y="-17" on="0"/>
        <pt x="42" y="164" on="0"/>
        <pt x="74" y="319" on="1"/>
        <pt x="95" y="426" on="0"/>
        <pt x="231" y="573" on="0"/>
        <pt x="328" y="606" on="1"/>
        <pt x="258" y="642" on="0"/>
        <pt x="191" y="778" on="0"/>
        <pt x="209" y="867" on="1"/>
        <pt x="241" y="1027" on="0"/>
        <pt x="446" y="1181" on="0"/>
        <pt x="587" y="1181" on="1"/>
        <pt x="709" y="1181" on="0"/>
        <pt x="855" y="1014" on="0"/>
      </contour>
      <contour>
        <pt x="627" y="319" on="1"/>
        <pt x="648" y="428" on="0"/>
        <pt x="551" y="551" on="0"/>
        <pt x="461" y="551" on="1"/>
        <pt x="372" y="551" on="0"/>
        <pt x="213" y="420" on="0"/>
        <pt x="193" y="319" on="1"/>
        <pt x="170" y="206" on="0"/>
        <pt x="271" y="86" on="0"/>
        <pt x="370" y="86" on="1"/>
        <pt x="452" y="86" on="0"/>
        <pt x="606" y="215" on="0"/>
      </contour>
      <contour>
        <pt x="709" y="867" on="1"/>
        <pt x="729" y="964" on="0"/>
        <pt x="644" y="1077" on="0"/>
        <pt x="566" y="1077" on="1"/>
        <pt x="487" y="1077" on="0"/>
        <pt x="347" y="962" on="0"/>
        <pt x="328" y="867" on="1"/>
        <pt x="307" y="766" on="0"/>
        <pt x="398" y="655" on="0"/>
        <pt x="484" y="655" on="1"/>
        <pt x="555" y="655" on="0"/>
        <pt x="691" y="774" on="0"/>
      </contour>
    </TTGlyph>
    <TTGlyph name="eight.sup" xMin="46" yMin="-11" xMax="648" yMax="812">
      <contour>
        <pt x="628" y="594" on="1"/>
        <pt x="614" y="529" on="0"/>
        <pt x="534" y="436" on="0"/>
        <pt x="477" y="412" on="1"/>
        <pt x="530" y="384" on="0"/>
        <pt x="583" y="284" on="0"/>
        <pt x="571" y="221" on="1"/>
        <pt x="547" y="104" on="0"/>
        <pt x="387" y="-11" on="0"/>
        <pt x="279" y="-11" on="1"/>
        <pt x="174" y="-11" on="0"/>
        <pt x="46" y="113" on="0"/>
        <pt x="68" y="221" on="1"/>
        <pt x="81" y="292" on="0"/>
        <pt x="176" y="392" on="0"/>
        <pt x="245" y="417" on="1"/>
        <pt x="196" y="443" on="0"/>
        <pt x="150" y="536" on="0"/>
        <pt x="163" y="594" on="1"/>
        <pt x="184" y="704" on="0"/>
        <pt x="337" y="812" on="0"/>
        <pt x="442" y="812" on="1"/>
        <pt x="534" y="812" on="0"/>
        <pt x="648" y="696" on="0"/>
      </contour>
      <contour>
        <pt x="468" y="223" on="1"/>
        <pt x="481" y="291" on="0"/>
        <pt x="414" y="368" on="0"/>
        <pt x="354" y="368" on="1"/>
        <pt x="293" y="368" on="0"/>
        <pt x="185" y="286" on="0"/>
        <pt x="173" y="223" on="1"/>
        <pt x="158" y="153" on="0"/>
        <pt x="230" y="81" on="0"/>
        <pt x="297" y="81" on="1"/>
        <pt x="352" y="81" on="0"/>
        <pt x="455" y="159" on="0"/>
      </contour>
      <contour>
        <pt x="521" y="592" on="1"/>
        <pt x="533" y="653" on="0"/>
        <pt x="477" y="718" on="0"/>
        <pt x="424" y="718" on="1"/>
        <pt x="370" y="718" on="0"/>
        <pt x="279" y="650" on="0"/>
        <pt x="267" y="592" on="1"/>
        <pt x="254" y="528" on="0"/>
        <pt x="315" y="461" on="0"/>
        <pt x="373" y="461" on="1"/>
        <pt x="421" y="461" on="0"/>
        <pt x="509" y="533" on="0"/>
      </contour>
    </TTGlyph>
    <TTGlyph name="ellipsis" xMin="69" yMin="0" xMax="880" yMax="166">
      <component glyphName="period" x="10" y="0" flags="0x4"/>
      <component glyphName="period" x="344" y="0" flags="0x4"/>
      <component glyphName="period" x="661" y="0" flags="0x4"/>
    </TTGlyph>
    <TTGlyph name="emacron" xMin="58" yMin="-21" xMax="907" yMax="1465">
      <component glyphName="e" x="0" y="0" flags="0x204"/>
      <component glyphName="macron" x="67" y="9" flags="0x4"/>
    </TTGlyph>
    <TTGlyph name="emdash" xMin="252" yMin="684" xMax="1339" yMax="788">
      <component glyphName="minus" x="-63" y="0" scalex="1.59997558594" scaley="1.0" flags="0x4"/>
    </TTGlyph>
    <TTGlyph name="endash" xMin="227" yMin="684" xMax="1110" yMax="788">
      <component glyphName="minus" x="-29" y="0" scalex="1.29998779297" scaley="1.0" flags="0x4"/>
    </TTGlyph>
    <TTGlyph name="eng" xMin="49" yMin="-437" xMax="889" yMax="1102">
      <contour>
        <pt x="348" y="929" on="1"/>
        <pt x="353" y="926" on="1"/>
        <pt x="407" y="1011" on="0"/>
        <pt x="558" y="1102" on="0"/>
        <pt x="647" y="1102" on="1"/>
        <pt x="777" y="1102" on="0"/>
        <pt x="889" y="883" on="0"/>
        <pt x="845" y="660" on="1"/>
        <pt x="695" y="-89" on="1"/>
        <pt x="659" y="-267" on="0"/>
        <pt x="498" y="-437" on="0"/>
        <pt x="379" y="-437" on="1"/>
        <pt x="355" y="-437" on="0"/>
        <pt x="310" y="-427" on="0"/>
        <pt x="288" y="-418" on="1"/>
        <pt x="321" y="-311" on="1"/>
        <pt x="331" y="-316" on="0"/>
        <pt x="385" y="-327" on="0"/>
        <pt x="401" y="-327" on="1"/>
        <pt x="457" y="-327" on="0"/>
        <pt x="555" y="-200" on="0"/>
        <pt x="577" y="-89" on="1"/>
        <pt x="727" y="659" on="1"/>
        <pt x="766" y="856" on="0"/>
        <pt x="695" y="994" on="0"/>
        <pt x="594" y="994" on="1"/>
        <pt x="513" y="994" on="0"/>
        <pt x="375" y="883" on="0"/>
        <pt x="325" y="791" on="1"/>
        <pt x="167" y="0" on="1"/>
        <pt x="49" y="0" on="1"/>
        <pt x="265" y="1082" on="1"/>
        <pt x="370" y="1082" on="1"/>
      </contour>
    </TTGlyph>
    <TTGlyph name="eogonek" xMin="58" yMin="-334" xMax="860" yMax="1102">
      <component glyphName="e" x="0" y="0" flags="0x204"/>
      <component glyphName="ogonek" x="419" y="60" flags="0x4"/>
    </TTGlyph>
    <TTGlyph name="epsilon" xMin="40" yMin="-18" xMax="888" yMax="1099">
      <contour>
        <pt x="614" y="523" on="1"/>
        <pt x="610" y="501" on="1"/>
        <pt x="457" y="501" on="1"/>
        <pt x="351" y="501" on="0"/>
        <pt x="209" y="398" on="0"/>
        <pt x="188" y="295" on="1"/>
        <pt x="167" y="195" on="0"/>
        <pt x="268" y="84" on="0"/>
        <pt x="381" y="84" on="1"/>
        <pt x="479" y="84" on="0"/>
        <pt x="644" y="216" on="0"/>
        <pt x="663" y="310" on="1"/>
        <pt x="772" y="310" on="1"/>
        <pt x="774" y="304" on="1"/>
        <pt x="744" y="137" on="0"/>
        <pt x="508" y="-18" on="0"/>
        <pt x="360" y="-18" on="1"/>
        <pt x="212" y="-18" on="0"/>
        <pt x="40" y="153" on="0"/>
        <pt x="69" y="297" on="1"/>
        <pt x="90" y="401" on="0"/>
        <pt x="206" y="530" on="0"/>
        <pt x="300" y="558" on="1"/>
        <pt x="232" y="592" on="0"/>
        <pt x="169" y="718" on="0"/>
        <pt x="185" y="793" on="1"/>
        <pt x="216" y="949" on="0"/>
        <pt x="423" y="1099" on="0"/>
        <pt x="584" y="1099" on="1"/>
        <pt x="718" y="1099" on="0"/>
        <pt x="888" y="927" on="0"/>
        <pt x="858" y="794" on="1"/>
        <pt x="856" y="789" on="1"/>
        <pt x="745" y="789" on="1"/>
        <pt x="763" y="885" on="0"/>
        <pt x="659" y="995" on="0"/>
        <pt x="563" y="995" on="1"/>
        <pt x="461" y="995" on="0"/>
        <pt x="320" y="880" on="0"/>
        <pt x="303" y="795" on="1"/>
        <pt x="283" y="698" on="0"/>
        <pt x="366" y="603" on="0"/>
        <pt x="478" y="603" on="1"/>
        <pt x="631" y="603" on="1"/>
        <pt x="615" y="523" on="1"/>
      </contour>
    </TTGlyph>
    <TTGlyph name="epsilontonos" xMin="40" yMin="-18" xMax="888" yMax="1581">
      <component glyphName="epsilon" x="0" y="0" flags="0x204"/>
      <component glyphName="tonos" x="227" y="-37" flags="0x4"/>
    </TTGlyph>
    <TTGlyph name="equal" xMin="132" yMin="421" xMax="894" yMax="941">
      <contour>
        <pt x="872" y="832" on="1"/>
        <pt x="214" y="832" on="1"/>
        <pt x="236" y="941" on="1"/>
        <pt x="894" y="941" on="1"/>
      </contour>
      <contour>
        <pt x="790" y="421" on="1"/>
        <pt x="132" y="421" on="1"/>
        <pt x="154" y="530" on="1"/>
        <pt x="812" y="530" on="1"/>
      </contour>
    </TTGlyph>
    <TTGlyph name="estimated" xMin="110" yMin="-20" xMax="1007" yMax="1102">
      <contour>
        <pt x="772" y="94" on="1"/>
        <pt x="692" y="39" on="0"/>
        <pt x="532" y="-20" on="0"/>
        <pt x="457" y="-20" on="1"/>
        <pt x="296" y="-20" on="0"/>
        <pt x="110" y="313" on="0"/>
        <pt x="156" y="541" on="1"/>
        <pt x="204" y="782" on="0"/>
        <pt x="518" y="1102" on="0"/>
        <pt x="681" y="1102" on="1"/>
        <pt x="833" y="1102" on="0"/>
        <pt x="1007" y="788" on="0"/>
        <pt x="962" y="561" on="1"/>
        <pt x="953" y="514" on="1"/>
        <pt x="348" y="514" on="1"/>
        <pt x="282" y="186" on="1"/>
        <pt x="315" y="133" on="0"/>
        <pt x="415" y="76" on="0"/>
        <pt x="476" y="76" on="1"/>
        <pt x="546" y="76" on="0"/>
        <pt x="711" y="137" on="0"/>
        <pt x="791" y="198" on="1"/>
      </contour>
      <contour>
        <pt x="663" y="1008" on="1"/>
        <pt x="608" y="1008" on="0"/>
        <pt x="478" y="942" on="0"/>
        <pt x="422" y="886" on="1"/>
        <pt x="367" y="609" on="1"/>
        <pt x="793" y="609" on="1"/>
        <pt x="850" y="895" on="1"/>
        <pt x="818" y="947" on="0"/>
        <pt x="721" y="1008" on="0"/>
      </contour>
    </TTGlyph>
    <TTGlyph name="eta" xMin="49" yMin="-415" xMax="890" yMax="1102">
      <contour>
        <pt x="348" y="929" on="1"/>
        <pt x="353" y="926" on="1"/>
        <pt x="407" y="1011" on="0"/>
        <pt x="558" y="1102" on="0"/>
        <pt x="647" y="1102" on="1"/>
        <pt x="778" y="1102" on="0"/>
        <pt x="890" y="888" on="0"/>
        <pt x="845" y="660" on="1"/>
        <pt x="630" y="-415" on="1"/>
        <pt x="512" y="-415" on="1"/>
        <pt x="727" y="659" on="1"/>
        <pt x="766" y="856" on="0"/>
        <pt x="695" y="996" on="0"/>
        <pt x="594" y="996" on="1"/>
        <pt x="513" y="996" on="0"/>
        <pt x="375" y="885" on="0"/>
        <pt x="325" y="791" on="1"/>
        <pt x="167" y="0" on="1"/>
        <pt x="49" y="0" on="1"/>
        <pt x="265" y="1082" on="1"/>
        <pt x="370" y="1082" on="1"/>
      </contour>
    </TTGlyph>
    <TTGlyph name="etatonos" xMin="49" yMin="-415" xMax="890" yMax="1582">
      <component glyphName="eta" x="0" y="0" flags="0x204"/>
      <component glyphName="tonos" x="248" y="-36" flags="0x4"/>
    </TTGlyph>
    <TTGlyph name="eth" xMin="50" yMin="-21" xMax="1059" yMax="1517">
      <contour>
        <pt x="842" y="1297" on="1"/>
        <pt x="907" y="1176" on="0"/>
        <pt x="934" y="839" on="0"/>
        <pt x="891" y="623" on="1"/>
        <pt x="873" y="535" on="1"/>
        <pt x="821" y="274" on="0"/>
        <pt x="546" y="-21" on="0"/>
        <pt x="376" y="-21" on="1"/>
        <pt x="220" y="-21" on="0"/>
        <pt x="50" y="258" on="0"/>
        <pt x="90" y="456" on="1"/>
        <pt x="140" y="705" on="0"/>
        <pt x="398" y="965" on="0"/>
        <pt x="572" y="965" on="1"/>
        <pt x="645" y="965" on="0"/>
        <pt x="766" y="886" on="0"/>
        <pt x="796" y="821" on="1"/>
        <pt x="801" y="824" on="1"/>
        <pt x="814" y="960" on="0"/>
        <pt x="782" y="1161" on="0"/>
        <pt x="742" y="1235" on="1"/>
        <pt x="467" y="1061" on="1"/>
        <pt x="434" y="1137" on="1"/>
        <pt x="695" y="1302" on="1"/>
        <pt x="667" y="1333" on="0"/>
        <pt x="600" y="1385" on="0"/>
        <pt x="561" y="1409" on="1"/>
        <pt x="618" y="1517" on="1"/>
        <pt x="671" y="1488" on="0"/>
        <pt x="761" y="1413" on="0"/>
        <pt x="797" y="1367" on="1"/>
        <pt x="1025" y="1511" on="1"/>
        <pt x="1059" y="1435" on="1"/>
      </contour>
      <contour>
        <pt x="784" y="686" on="1"/>
        <pt x="769" y="760" on="0"/>
        <pt x="653" y="858" on="0"/>
        <pt x="551" y="858" on="1"/>
        <pt x="436" y="858" on="0"/>
        <pt x="243" y="625" on="0"/>
        <pt x="209" y="456" on="1"/>
        <pt x="177" y="299" on="0"/>
        <pt x="276" y="85" on="0"/>
        <pt x="400" y="85" on="1"/>
        <pt x="510" y="85" on="0"/>
        <pt x="716" y="342" on="0"/>
        <pt x="755" y="535" on="1"/>
        <pt x="773" y="625" on="1"/>
      </contour>
    </TTGlyph>
    <TTGlyph name="exclam" xMin="58" yMin="0" xMax="471" yMax="1456">
      <contour>
        <pt x="276" y="478" on="1"/>
        <pt x="159" y="478" on="1"/>
        <pt x="354" y="1456" on="1"/>
        <pt x="471" y="1456" on="1"/>
      </contour>
      <contour>
        <pt x="187" y="0" on="1"/>
        <pt x="58" y="0" on="1"/>
        <pt x="92" y="168" on="1"/>
        <pt x="221" y="168" on="1"/>
      </contour>
    </TTGlyph>
    <TTGlyph name="exclamdbl" xMin="58" yMin="0" xMax="886" yMax="1456">
      <component glyphName="exclam" x="0" y="0" flags="0x4"/>
      <component glyphName="exclam" x="415" y="0" flags="0x4"/>
    </TTGlyph>
    <TTGlyph name="exclamdown" xMin="-27" yMin="-374" xMax="388" yMax="1082">
      <contour>
        <pt x="91" y="-374" on="1"/>
        <pt x="-27" y="-374" on="1"/>
        <pt x="169" y="604" on="1"/>
        <pt x="287" y="604" on="1"/>
      </contour>
      <contour>
        <pt x="351" y="896" on="1"/>
        <pt x="222" y="896" on="1"/>
        <pt x="259" y="1082" on="1"/>
        <pt x="388" y="1082" on="1"/>
      </contour>
    </TTGlyph>
    <TTGlyph name="f" xMin="119" yMin="0" xMax="795" yMax="1581">
      <contour>
        <pt x="119" y="0" on="1"/>
        <pt x="315" y="981" on="1"/>
        <pt x="176" y="981" on="1"/>
        <pt x="196" y="1082" on="1"/>
        <pt x="335" y="1082" on="1"/>
        <pt x="367" y="1238" on="1"/>
        <pt x="402" y="1413" on="0"/>
        <pt x="567" y="1581" on="0"/>
        <pt x="691" y="1581" on="1"/>
        <pt x="716" y="1581" on="0"/>
        <pt x="770" y="1570" on="0"/>
        <pt x="795" y="1561" on="1"/>
        <pt x="761" y="1460" on="1"/>
        <pt x="744" y="1466" on="0"/>
        <pt x="706" y="1473" on="0"/>
        <pt x="682" y="1473" on="1"/>
        <pt x="612" y="1473" on="0"/>
        <pt x="507" y="1349" on="0"/>
        <pt x="485" y="1238" on="1"/>
        <pt x="453" y="1082" on="1"/>
        <pt x="646" y="1082" on="1"/>
        <pt x="626" y="981" on="1"/>
        <pt x="433" y="981" on="1"/>
        <pt x="237" y="0" on="1"/>
      </contour>
    </TTGlyph>
    <TTGlyph name="fi" xMin="100" yMin="0" xMax="920" yMax="1581">
      <contour>
        <pt x="100" y="0" on="1"/>
        <pt x="296" y="981" on="1"/>
        <pt x="156" y="981" on="1"/>
        <pt x="176" y="1082" on="1"/>
        <pt x="316" y="1082" on="1"/>
        <pt x="344" y="1218" on="1"/>
        <pt x="380" y="1403" on="0"/>
        <pt x="570" y="1581" on="0"/>
        <pt x="712" y="1581" on="1"/>
        <pt x="763" y="1581" on="0"/>
        <pt x="869" y="1550" on="0"/>
        <pt x="920" y="1521" on="1"/>
        <pt x="880" y="1416" on="1"/>
        <pt x="842" y="1440" on="0"/>
        <pt x="754" y="1468" on="0"/>
        <pt x="699" y="1468" on="1"/>
        <pt x="610" y="1468" on="0"/>
        <pt x="485" y="1338" on="0"/>
        <pt x="462" y="1218" on="1"/>
        <pt x="435" y="1082" on="1"/>
        <pt x="621" y="1082" on="1"/>
        <pt x="601" y="981" on="1"/>
        <pt x="414" y="981" on="1"/>
        <pt x="218" y="0" on="1"/>
      </contour>
      <contour>
        <pt x="678" y="0" on="1"/>
        <pt x="559" y="0" on="1"/>
        <pt x="775" y="1082" on="1"/>
        <pt x="894" y="1082" on="1"/>
      </contour>
    </TTGlyph>
    <TTGlyph name="five" xMin="100" yMin="-21" xMax="951" yMax="1456">
      <contour>
        <pt x="194" y="659" on="1"/>
        <pt x="387" y="1456" on="1"/>
        <pt x="951" y="1456" on="1"/>
        <pt x="933" y="1341" on="1"/>
        <pt x="469" y="1341" on="1"/>
        <pt x="344" y="828" on="1"/>
        <pt x="393" y="876" on="0"/>
        <pt x="501" y="931" on="0"/>
        <pt x="578" y="934" on="1"/>
        <pt x="730" y="937" on="0"/>
        <pt x="870" y="681" on="0"/>
        <pt x="835" y="464" on="1"/>
        <pt x="798" y="235" on="0"/>
        <pt x="581" y="-21" on="0"/>
        <pt x="403" y="-21" on="1"/>
        <pt x="265" y="-21" on="0"/>
        <pt x="100" y="184" on="0"/>
        <pt x="132" y="383" on="1"/>
        <pt x="246" y="383" on="1"/>
        <pt x="222" y="231" on="0"/>
        <pt x="317" y="83" on="0"/>
        <pt x="419" y="83" on="1"/>
        <pt x="532" y="83" on="0"/>
        <pt x="687" y="281" on="0"/>
        <pt x="717" y="462" on="1"/>
        <pt x="744" y="630" on="0"/>
        <pt x="654" y="819" on="0"/>
        <pt x="545" y="819" on="1"/>
        <pt x="446" y="819" on="0"/>
        <pt x="325" y="730" on="0"/>
        <pt x="288" y="642" on="1"/>
      </contour>
    </TTGlyph>
</ttFont>
